<?xml version="1.0" encoding="UTF-8" standalone="no"?>
<!-- Created with Inkscape (http://www.inkscape.org/) -->

<svg
   xmlns:dc="http://purl.org/dc/elements/1.1/"
   xmlns:cc="http://creativecommons.org/ns#"
   xmlns:rdf="http://www.w3.org/1999/02/22-rdf-syntax-ns#"
   xmlns:svg="http://www.w3.org/2000/svg"
   xmlns="http://www.w3.org/2000/svg"
   xmlns:sodipodi="http://sodipodi.sourceforge.net/DTD/sodipodi-0.dtd"
   xmlns:inkscape="http://www.inkscape.org/namespaces/inkscape"
   id="svg4136"
   version="1.1"
   inkscape:version="0.91 r13725"
   width="198.3"
   height="114"
   viewBox="0 0 198.3 114"
   sodipodi:docname="buddhism.svg">
  <metadata
     id="metadata4142">
    <rdf:RDF>
      <cc:Work
         rdf:about="">
        <dc:format>image/svg+xml</dc:format>
        <dc:type
           rdf:resource="http://purl.org/dc/dcmitype/StillImage" />
        <dc:title></dc:title>
      </cc:Work>
    </rdf:RDF>
  </metadata>
  <defs
     id="defs4140" />
  <sodipodi:namedview
     pagecolor="#ffffff"
     bordercolor="#666666"
     borderopacity="1"
     objecttolerance="10"
     gridtolerance="10"
     guidetolerance="10"
     inkscape:pageopacity="0"
     inkscape:pageshadow="2"
     inkscape:window-width="1440"
     inkscape:window-height="897"
     id="namedview4138"
     showgrid="false"
     inkscape:zoom="4"
     inkscape:cx="77.498733"
     inkscape:cy="35.202586"
     inkscape:window-x="-8"
     inkscape:window-y="-8"
     inkscape:window-maximized="1"
     inkscape:current-layer="svg4136" />
  <path
     style="fill:#000000"
     d="m 44.831628,96.855907 c -0.542568,-0.0538 -1.360764,-0.46727 -1.875,-0.94763 -0.78405,-0.73242 -0.912366,-1.06583 -0.912366,-2.37067 0,-3.91797 2.997993,-7.887895 7.81671,-10.350856 1.907235,-0.974832 2.491935,-1.390029 1.957497,-1.390029 -0.419136,0 -1.271046,-0.18387 -1.893135,-0.4086 -0.622089,-0.22473 -1.738572,-0.567429 -2.481072,-0.761553 -0.7425,-0.194121 -2.6325,-0.695685 -4.2,-1.114584 -3.443667,-0.920286 -7.076472,-1.046718 -8.765364,-0.305061 -1.486242,0.652665 -3.016644,0.627921 -3.638139,-0.05882 -0.544341,-0.601488 -0.676293,-2.902566 -0.20883,-3.641694 0.214077,-0.338487 0.06142,-0.511932 -0.660084,-0.75 -0.662238,-0.218508 -1.013664,-0.574653 -1.193658,-1.209684 -0.286107,-1.009413 -0.101943,-2.753007 0.409293,-3.875049 0.445446,-0.977649 3.394182,-2.557551 3.875355,-2.076378 0.551736,0.551736 0.05564,1.456749 -1.145175,2.089107 -1.940439,1.021848 -2.098188,3.139182 -0.250254,3.358974 0.669852,0.07967 0.873219,-0.06387 1.157487,-0.816981 0.402996,-1.067658 0.658635,-1.192887 2.894565,-1.417941 2.243427,-0.22581 3.324804,0.2058 3.324804,1.327029 0,0.850968 0.01092,0.855726 3.525,1.536561 4.358319,0.844404 5.383056,1.078512 6.525,1.490682 1.916097,0.69159 7.926267,2.425572 10.5,3.029334 2.874768,0.674379 8.154045,0.898155 11.25,0.476862 2.242743,-0.305193 5.772766,-1.099431 5.609979,-1.26222 -0.07277,-0.07277 -2.681037,-0.326289 -5.796144,-0.56337 -7.128912,-0.542559 -13.712862,-1.832817 -19.613835,-3.843726 -0.7425,-0.253026 -2.0925,-0.664719 -3,-0.914874 -0.9075,-0.250152 -2.621148,-0.796617 -3.808104,-1.214361 -2.297586,-0.808629 -6.319584,-1.433358 -6.574323,-1.021179 -0.254664,0.41205 -1.892544,0.277761 -2.647791,-0.217095 -0.878265,-0.575463 -1.494915,-1.995963 -1.26468,-2.913294 0.474141,-1.889127 3.567945,-3.870948 6.888693,-4.412739 2.996091,-0.48882 8.327334,-0.432714 11.756205,0.123723 3.477807,0.564378 5.968764,1.619862 8.023644,3.399825 0.783006,0.678249 1.660506,1.190658 1.95,1.138683 0.289497,-0.05197 1.170219,-0.188004 1.957161,-0.302289 0.870582,-0.126429 1.355556,-0.32955 1.238616,-0.51876 -0.105702,-0.171033 -0.589431,-0.231522 -1.074951,-0.134418 -1.010967,0.202194 -2.719335,-0.555546 -3.75447,-1.665279 C 59.977638,63.536401 59.49666,61.285162 60.011946,60.9667 60.657207,60.567904 60.324921,60.346039 58.991991,60.285682 56.218947,60.160117 52.537872,57.812293 50.257665,54.71485 46.965993,50.243434 45.995763,46.084393 46.631082,39.168937 l 0.236817,-2.577789 -2.282184,-0.677505 c -3.55413,-1.055106 -5.46363,-1.128111 -7.863699,-0.300654 -2.538825,0.875298 -5.44968,0.971832 -6.294069,0.208737 -0.319512,-0.28875 -0.651633,-0.525 -0.738048,-0.525 -0.29691,0 -0.695601,5.253384 -0.660267,8.7 0.03924,3.827382 0.58731,5.974638 2.29719,9 1.752711,3.101148 4.034496,4.907925 8.149302,6.452835 1.042554,0.391428 1.859514,0.888348 1.915134,1.164891 0.08075,0.401493 -0.213717,0.482274 -1.758006,0.482274 -5.554131,0 -11.53524,-6.986283 -12.862866,-15.024573 -0.41697,-2.524614 -0.412626,-4.810275 0.01548,-8.148501 0.255477,-1.992099 0.255477,-2.749842 0,-3.005319 -0.187881,-0.187884 -0.341604,-0.652107 -0.341604,-1.031607 0,-0.551613 0.165462,-0.690921 0.825,-0.694593 0.45375,-0.0024 1.014138,-0.124347 1.245309,-0.270708 0.259536,-0.164322 0.872538,-0.106557 1.602597,0.151023 0.990462,0.349455 2.901075,0.399309 5.177094,0.135084 0.165,-0.01917 -0.0375,-0.219762 -0.45,-0.445794 -0.921738,-0.505071 -2.500875,-3.069264 -3.31278,-5.379273 -0.821514,-2.337357 -1.055736,-6.539853 -0.562116,-10.085739 0.218208,-1.5675 0.40308,-3.795 0.41082,-4.95 l 0.01407,-2.1 1.1394,-0.09397 c 0.62667,-0.05168 2.159859,0.117067 3.407088,0.375 1.247235,0.257932 3.713463,0.468968 5.480508,0.468968 6.39789,0 10.773234,1.411914 12.589521,4.062611 0.689418,1.00614 0.825429,2.083354 0.303759,2.405764 -0.18282,0.112986 -0.884559,-0.396768 -1.575,-1.144105 -5.719284,-6.047544 -12.028939,-1.017291 -17.227224,-2.717213 -1.213175,-0.465525 -1.229605,-0.598398 -1.420395,0.655301 -0.09103,0.598203 -0.280989,1.492642 -0.422121,1.987642 -0.910755,3.194358 -1.002432,3.926004 -0.838146,6.688833 0.223437,3.757584 1.014675,6.055209 2.758821,8.011167 0.735657,0.825 1.341213,1.66875 1.345677,1.875 0.0058,0.267213 0.679842,0.375 2.345088,0.375 2.647092,0 5.158653,0.563643 6.78357,1.522368 0.607794,0.358608 1.179081,0.57801 1.269528,0.487566 0.09045,-0.09045 0.214107,-1.355934 0.274803,-2.812191 0.0607,-1.45626 0.115932,-2.748993 0.122742,-2.872743 0.02862,-0.519861 1.471527,-0.177012 1.893867,0.45 0.45258,0.671904 0.453939,0.671079 0.296001,-0.1794 l -0.158667,-0.8544 2.238855,0.209799 c 1.5672,0.146859 3.249789,0.05412 5.608626,-0.309123 4.12575,-0.63534 10.374168,-0.486621 12.933705,0.307833 5.608809,1.740918 11.655846,6.797043 12.209486,10.208754 0.15352,0.945999 0.1035,1.040718 -0.54523,1.032615 -0.55608,-0.0069 -0.94679,-0.414951 -1.76426,-1.842366 -1.20734,-2.108184 -3.965528,-4.740438 -5.971337,-5.698695 -0.758262,-0.362253 -1.446552,-0.756948 -1.529535,-0.877101 -0.551742,-0.798882 -5.299761,-1.810107 -8.559045,-1.82289 -2.017395,-0.0079 -2.451252,0.11037 -5.141709,1.401792 -3.448284,1.655175 -4.419645,1.681737 -6.936573,0.189681 -1.905306,-1.129482 -2.289528,-1.181805 -1.957014,-0.266499 0.410637,1.130349 0.238335,3.711891 -0.302874,4.537881 -1.158747,1.76847 -1.538778,3.54912 -1.544568,7.237119 -0.0065,4.172637 0.591987,6.402024 2.512179,9.357132 1.911159,2.941209 3.914544,4.605528 7.008072,5.821974 0.864825,0.340068 1.774908,0.799311 2.022408,1.020537 0.379662,0.33936 0.560703,0.312207 1.158234,-0.173706 0.803043,-0.653034 2.434032,-0.762294 2.999541,-0.200937 0.302889,0.300666 0.338355,0.271458 0.178923,-0.147339 -0.156015,-0.409821 0.09346,-0.647643 1.158126,-1.104009 1.802601,-0.772686 3.33705,-2.199957 6.681123,-6.214467 1.530588,-1.837446 4.310901,-4.922664 6.178469,-6.856038 1.86757,-1.933374 3.44058,-3.636258 3.49558,-3.784185 0.055,-0.14793 0.2865,-0.268962 0.51445,-0.268962 0.22795,0 0.55145,-0.255999 0.7189,-0.568884 0.62734,-1.172196 8.37797,-7.41675 10.87007,-8.757837 0.43261,-0.232803 1.96488,-1.084896 3.40504,-1.89354 3.511502,-1.971693 7.427282,-3.674646 9.933422,-4.320003 l 2.05812,-0.529983 0.0783,-1.470075 c 0.17068,-3.20538 2.52129,-6.409027 5.50718,-7.505723 2.1879,-0.8036 7.79852,-0.833952 11.21454,-0.06067 4.396,0.99512 7.28239,2.140078 9.95544,3.949072 4.40873,2.983614 6.61952,4.957974 8.041,7.18107 3.06507,4.793535 3.99162,8.051466 3.63365,12.776571 -0.31361,4.139445 -0.93796,5.880333 -2.7405,7.641432 -2.93567,2.868159 -5.23372,4.058568 -7.83495,4.058568 -1.53493,0 -4.00464,-1.054695 -4.00464,-1.710195 0,-0.320532 0.48149,-0.36369 2.33388,-0.209205 2.02249,0.168669 2.52674,0.106782 3.77934,-0.463842 2.13815,-0.974043 4.03135,-2.871753 5.10458,-5.116758 0.88626,-1.853895 0.93156,-2.127423 0.9191,-5.55 -0.0113,-3.114441 -0.11894,-3.889908 -0.79779,-5.749419 -0.9867,-2.702772 -3.71071,-6.869373 -5.56923,-8.518569 -3.6447,-3.234219 -10.31412,-6.582012 -13.11258,-6.582012 -0.56003,0 -1.39828,-0.150999 -1.86277,-0.335551 -0.46449,-0.184553 -2.08522,-0.321415 -3.60162,-0.304137 -2.19428,0.025 -3.08235,0.175261 -4.3505,0.736093 -1.7864,0.790035 -3.36235,2.393808 -3.80325,3.870396 -0.16147,0.540759 -0.421,1.392642 -0.57675,1.893075 l -0.28317,0.909876 2.28538,-0.547377 c 1.25696,-0.301059 2.58913,-0.611823 2.96038,-0.690591 0.37125,-0.07877 0.675,-0.328701 0.675,-0.555402 0,-0.561579 0.68182,-0.796896 3.15,-1.087167 2.52264,-0.296673 3.98577,-0.01536 6.86853,1.32066 5.84919,2.710791 11.88632,11.029551 11.8798,16.369575 -0.002,1.849338 -0.4705,3.411873 -1.2278,4.09722 -0.34435,0.31164 -0.76313,0.82266 -0.93061,1.135602 -0.27515,0.514113 -0.22184,0.548457 0.55279,0.356118 1.18916,-0.295269 2.17401,-1.278357 2.87353,-2.86839 0.50896,-1.156863 0.56587,-1.735437 0.39785,-4.044129 -0.25567,-3.512823 -0.96293,-5.193987 -3.92897,-9.339201 -3.44975,-4.821213 -6.21645,-6.774069 -11.03239,-7.787133 -1.25671,-0.264357 -2.78242,-0.367065 -3.90726,-0.263031 -2.51931,0.233001 -5.85329,1.294128 -6.22022,1.979748 -0.36042,0.673455 -1.4265,0.729852 -1.67262,0.08848 -0.24461,-0.637467 0.87924,-1.763979 2.56044,-2.566494 0.94725,-0.452163 2.29044,-0.733191 4.23693,-0.886464 7.87072,-0.61977 13.50389,2.366952 18.42639,9.769719 2.97174,4.469103 3.99379,9.065544 3.01128,13.542582 -0.82086,3.74043 -1.53213,4.734342 -3.57962,5.002128 -1.33507,0.174609 -2.94619,-0.370917 -3.37888,-1.144083 -0.24604,-0.439653 -0.38278,-0.376134 -1.06968,0.49689 -0.43317,0.550542 -0.96126,1.207929 -1.17353,1.460862 -0.21228,0.25293 -0.88528,1.219179 -1.49557,2.147217 -1.30154,1.979181 -7.28575,7.897781 -7.89894,8.042907 -0.23626,0.05592 0.0229,-0.245465 0.0229,-0.0843 0,0.251256 -1.46601,1.478576 -4.2144,3.559658 -3.52022,2.665518 -4.22133,3.218481 -4.3561,3.435606 -0.0859,0.138327 -0.49086,0.394626 -0.9,0.569553 -1.06702,0.456204 -1.907,1.01181 -2.1838,1.444485 -0.13195,0.20625 -0.41686,0.375 -0.63314,0.375 -0.21627,0 -0.85082,0.30573 -1.41009,0.679401 -0.95192,0.636006 -1.99496,1.114902 -4.91687,2.257491 -0.66,0.258087 -1.76634,0.715368 -2.45854,1.016178 -0.69219,0.300813 -1.41386,0.54693 -1.60371,0.54693 -0.18984,0 -0.7035,0.196992 -1.141462,0.437757 -1.03953,0.571479 -6.10462,2.258442 -6.83189,2.27541 -0.31042,0.0072 -1.1044,0.210057 -1.7644,0.450699 -0.66,0.240639 -3.0225,0.659115 -5.25,0.929943 -3.41025,0.414636 -4.1475,0.596673 -4.66723,1.152432 -0.33948,0.363006 -1.25073,0.901947 -2.025,1.197642 -0.77427,0.295698 -1.40777,0.714921 -1.40777,0.931608 0,1.085148 -4.705811,3.470139 -8.322809,4.21815 -1.970931,0.407598 -2.569656,0.694389 -4.260204,2.040672 -2.701971,2.151732 -5.374149,3.551602 -8.566983,4.487972 -1.485,0.4355 -2.934417,0.92365 -3.220929,1.08477 -0.286512,0.16112 -0.691512,0.29213 -0.9,0.29114 -0.208488,-9e-4 -1.073967,0.30275 -1.923285,0.675 -1.60176,0.70203 -2.805786,2.04255 -2.805786,3.12387 0,1.15928 -1.331988,1.84841 -3.212634,1.66212 z m 0.992787,-2.08878 c 0.181584,-0.12122 0.68037,-0.77965 1.10841,-1.46316 1.253553,-2.00174 2.098401,-2.46266 8.161437,-4.45264 4.761042,-1.56265 7.3287,-2.732874 8.851332,-4.034064 l 1.048668,-0.896157 -1.401549,-0.01218 c -1.47402,-0.01281 -8.565627,-1.125594 -9.039411,-1.418409 -0.151869,-0.09386 -0.36228,-0.05211 -0.46758,0.09278 -0.226035,0.31101 -2.927772,1.613436 -3.34689,1.613436 -0.159159,0 -0.931797,0.478845 -1.716975,1.064103 -3.340839,2.4902 -5.72265,6.08559 -5.349423,8.07505 0.248334,1.32373 1.282626,2.01162 2.151981,1.431241 z m 25.40691,-13.38268 c 2.170779,-0.715773 4.630224,-1.99179 3.062937,-1.589124 -2.240085,0.575517 -6.243564,0.869586 -9.794187,0.719418 -4.345056,-0.183771 -6.137823,-0.604155 -14.355813,-3.366282 -4.929453,-1.656825 -10.378284,-2.794839 -13.8,-2.882193 -2.307879,-0.05892 -2.558181,-0.01062 -2.636157,0.508599 -0.04739,0.315534 -0.486138,0.803256 -0.975,1.083825 -0.890148,0.510873 -1.109763,1.22469 -0.616449,2.003637 0.404901,0.639339 1.607049,0.176631 2.177745,-0.838215 0.372948,-0.663201 0.901776,-1.008654 2.07945,-1.358385 2.904777,-0.862626 4.321056,-0.520218 4.62858,1.119033 0.180507,0.962187 0.236103,0.99273 2.937909,1.613946 1.514658,0.348261 4.373922,1.039542 6.353922,1.536183 10.489716,2.63112 16.162512,3.023871 20.937063,1.449558 z M 39.411216,77.037885 c -0.114,-0.296643 -0.561225,-0.370008 -1.629693,-0.267342 -2.225337,0.213828 -2.299632,0.676179 -0.108657,0.676179 1.476903,0 1.860774,-0.09028 1.73835,-0.408837 z m 47.783042,-3.001653 c 2.64,-0.518016 5.745,-1.286631 6.9,-1.708035 1.155,-0.421404 2.64,-0.948873 3.3,-1.172154 4.897642,-1.656903 9.958202,-3.917529 12.998772,-5.806749 1.37432,-0.853914 2.56608,-1.552572 2.64836,-1.552572 0.0823,0 1.47047,-1.08 3.08485,-2.4 1.61438,-1.32 3.01523,-2.4 3.113,-2.4 0.0978,0 0.50625,-0.30375 0.90774,-0.675 0.40149,-0.37125 1.29479,-1.1475 1.98511,-1.725 0.69032,-0.5775 1.65512,-1.42125 2.144,-1.875 0.48887,-0.45375 1.16434,-1.028176 1.32365,-1.028176 0.15931,0 -0.14573,0.349818 -0.14573,0.174297 0,-0.323934 0.69742,-1.097813 3.51977,-4.126262 0.86874,-0.932172 2.51354,-2.977359 3.65512,-4.544859 1.14159,-1.5675 2.55705,-3.227004 3.14549,-3.687789 0.9329,-0.73053 1.06987,-1.004163 1.06987,-2.137284 0,-0.71472 -0.20417,-1.890213 -0.45372,-2.612208 -0.61465,-1.778301 -2.24367,-4.987089 -2.74161,-5.400345 -0.22257,-0.184713 -0.40832,-0.488061 -0.41278,-0.674106 -0.0217,-0.902604 -4.59337,-4.912317 -6.67249,-5.852247 -2.43455,-1.100613 -3.67049,-1.566948 -4.86314,-1.834917 -1.01429,-0.227898 -1.29886,-0.177783 -1.83142,0.322539 -0.40662,0.381996 -2.32527,1.010805 -5.40269,1.770651 -2.62468,0.64806 -6.10542,1.657641 -7.73499,2.243514 -2.97996,1.071378 -9.481392,4.303503 -11.728972,5.83095 -4.13148,2.80773 -5.54702,3.831609 -6.92572,5.009469 -0.85094,0.726975 -1.62283,1.321773 -1.71533,1.321773 -0.15024,0 -2.29873,1.908057 -3.06714,2.723889 -0.165,0.175185 -1.58354,1.625226 -3.15232,3.222315 -2.40385,2.447229 -5.969839,6.354447 -7.427833,8.138598 -0.209088,0.255858 -0.785229,0.958245 -1.280319,1.560861 l -0.900162,1.09566 0.755319,0.897645 c 0.415425,0.493704 0.755319,1.035225 0.755319,1.203375 0,0.404445 -3.534879,3.347748 -4.428792,3.687612 -0.739041,0.280986 -1.740603,-0.06932 -3.587382,-1.254717 l -0.966177,-0.62016 -0.755448,0.755451 c -0.592194,0.592191 -0.700872,0.902991 -0.502893,1.438179 0.467367,1.263411 1.627926,1.82775 4.082748,1.985289 1.90893,0.122508 2.708568,0.01347 4.894809,-0.667476 3.014367,-0.938877 5.463135,-1.967937 5.463135,-2.295804 0,-0.124698 0.215544,-0.270372 0.478986,-0.323721 0.56212,-0.113832 4.86574,-3.868164 4.8986,-4.273374 0.0123,-0.152007 0.22908,-0.504744 0.48168,-0.783855 0.7001,-0.773604 0.93627,-3.474957 0.36014,-4.119369 -0.75159,-0.840678 -0.76796,-1.706334 -0.0342,-1.811043 0.98676,-0.14082 2.20688,1.506705 2.25038,3.038664 0.0196,0.68859 0.008,1.454481 -0.0251,1.701981 -0.0487,0.361203 0.0154,0.376005 0.32445,0.075 0.21179,-0.20625 0.93721,-0.375 1.61205,-0.375 1.66258,0 4.4248,-0.743595 6.60303,-1.777551 1.8581,-0.882 4.2384,-2.990793 5.55,-4.916934 0.48879,-0.717825 0.98508,-1.102128 1.425002,-1.103466 0.37125,-0.0012 0.67472,0.0992 0.67439,0.222951 -0.001,0.461556 -2.689902,4.295643 -3.504022,4.996806 l -0.84537,0.728082 1.65,-0.459108 c 1.966762,-0.547245 8.705292,-0.885522 9.440772,-0.473931 0.47769,0.267333 0.47868,0.320844 0.0145,0.785019 -0.36571,0.365706 -1.03607,0.498132 -2.52161,0.498132 -3.82688,0 -7.390772,0.907617 -10.331492,2.631123 -1.65899,0.972306 -4.30775,3.398907 -7.32407,6.709752 l -1.26714,1.390875 0.90059,0.373038 c 1.54141,0.638472 2.38844,1.929033 2.38844,3.639096 0,1.379226 -0.0531,1.490256 -0.67096,1.401981 -0.52243,-0.07464 -0.71277,-0.354516 -0.85983,-1.264275 -0.3647,-2.256159 -2.77473,-3.205935 -6.17345,-2.432913 -1.69306,0.38508 -5.16808,2.040402 -6.35253,3.026019 -0.05872,0.04887 0.11955,0.681471 0.396168,1.405782 0.685464,1.794864 0.526767,3.63867 -0.323631,3.760044 -0.546648,0.07802 -0.655062,-0.09427 -0.785058,-1.247598 -0.188661,-1.673784 -1.134714,-3.029727 -2.655012,-3.805323 -1.808562,-0.922659 -3.493092,-1.024008 -6.85248,-0.412275 l -3.023223,0.550515 0,2.004984 c 0,1.48602 -0.113991,2.048724 -0.440391,2.173977 -0.583293,0.22383 -0.730248,-0.06128 -1.387746,-2.692368 -0.30654,-1.226679 -0.796863,-2.549625 -1.089606,-2.93988 -1.391547,-1.855071 -4.096038,-2.958702 -8.967495,-3.659397 -5.848686,-0.841254 -10.888878,0.115566 -13.479249,2.558868 -1.169208,1.102827 -1.227966,1.294788 -0.564789,1.845174 0.399669,0.331698 0.570333,0.265749 1.130586,-0.436875 0.596193,-0.747696 0.894084,-0.8436 3.08733,-0.993927 2.211768,-0.151599 2.511168,-0.104502 3.369414,0.530028 0.640302,0.473394 0.941946,0.948876 0.941946,1.484787 0,0.669234 0.238026,0.885765 1.575,1.432764 0.86625,0.354414 2.115,0.771489 2.775,0.926835 0.66,0.155346 3.8325,0.958386 7.05,1.784532 5.265408,1.351983 8.590401,1.952088 12.6,2.274084 0.7425,0.05962 4.1175,0.07545 7.5,0.03517 5.495056,-0.06544 6.661176,-0.173544 10.949996,-1.015087 z M 37.947816,72.633867 c -0.226239,-0.589572 -1.5522,-0.800625 -2.683761,-0.427176 -0.560886,0.185109 -1.018725,0.427344 -1.017423,0.538296 0.0012,0.110955 0.867672,0.217515 1.925262,0.236805 1.446966,0.0264 1.886517,-0.05972 1.775922,-0.347925 z m 4.564107,-4.196685 c -0.320286,-0.242253 -1.119036,-0.44046 -1.775001,-0.44046 -1.479216,0 -1.209723,0.341358 0.487911,0.618021 1.87974,0.306342 1.919598,0.300843 1.28709,-0.177561 z M 77.702938,65.44014 c 1.71869,-0.854868 3.55236,-1.520256 4.725,-1.714569 1.05398,-0.174651 1.91632,-0.424104 1.91632,-0.55434 0,-0.130239 0.34275,-0.616533 0.76167,-1.080654 0.41892,-0.464121 1.78152,-2.032356 3.02801,-3.484968 l 2.26633,-2.64111 -2.67184,0.06853 c -1.46952,0.03769 -2.81034,-0.01707 -2.97962,-0.121689 -0.16928,-0.104619 -0.6187,0.378045 -0.99872,1.072584 -0.82892,1.51497 -4.23639,4.880445 -5.53047,5.462307 -0.50894,0.22884 -1.39786,0.675945 -1.975356,0.993567 -1.577493,0.867609 -6.211758,2.257365 -8.25,2.474064 -1.706094,0.181389 -1.657689,0.193758 0.927816,0.237117 2.223678,0.03729 2.972172,0.175284 4.05,0.746658 1.043133,0.552978 1.385499,0.620562 1.622184,0.32022 0.165,-0.209379 1.563903,-1.00935 3.108676,-1.777717 z m -9.623122,-5.448804 c 1.696734,-1.052868 2.154147,-1.619247 1.785045,-2.210274 -0.319803,-0.512085 -0.42792,-0.483789 -1.706019,0.446496 -0.750519,0.546276 -1.693566,1.094922 -2.095662,1.219212 -0.699885,0.216342 -0.70704,0.243564 -0.167661,0.637968 0.737529,0.539295 1.196301,0.519678 2.184297,-0.0934 z M 55.54734,31.543036 c -37.03156,54.971309 -18.51578,27.485655 0,0 z m 35.096918,-1.378012 c 0,-2.868018 -1.93335,-6.88272 -4.15122,-8.620212 -1.39025,-1.089129 -6.77423,-3.685986 -9.40396,-4.53582 -5.414796,-1.635781 -12.965957,0.770312 -16.673023,-3.486774 l -1.183668,-1.384774 -0.166032,1.004639 c -0.09132,0.552551 -0.649047,1.814639 -1.239399,2.804639 -1.801035,3.020274 -2.071386,3.791604 -2.214795,6.318972 -0.116067,2.045478 -0.03926,2.611062 0.497421,3.663051 0.788976,1.546518 0.804774,2.167977 0.05511,2.167977 -0.768366,0 -1.699968,-1.355919 -2.144475,-3.121224 -0.623553,-2.476347 -0.175506,-5.418792 1.409517,-9.256721 0.778491,-1.885017 1.408476,-3.901242 1.428576,-4.572055 0.03223,-1.075554 0.121512,-1.2098451 0.860955,-1.2949271 0.45375,-0.05221 0.825,0.0448 0.825,0.2155851 0,0.170781 0.203877,0.232275 0.453063,0.136655 0.249183,-0.09562 0.890433,0.159137 1.425,0.56613 2.523912,1.921583 5.632707,2.864944 12.071937,3.663219 3.916605,0.485544 8.290486,1.648565 9.173626,2.439281 0.26049,0.233233 0.60081,0.424057 0.75627,0.424057 0.48587,0 5.02756,2.733639 5.9173,3.561612 2.02386,1.883361 4.02834,6.57942 3.69017,8.645232 -0.0759,0.463737 -0.14913,1.011906 -0.1627,1.218156 -0.0136,0.20625 -0.29467,0.375 -0.62467,0.375 -0.4712,0 -0.6,-0.200001 -0.600003,-0.931698 z M 130.12147,16.920102 c -0.49225,-0.365137 0.62307,-0.836351 1.02279,-1.231061 0.2475,-0.244392 3.10836,-1.805144 6.35747,-3.468335 5.92304,-3.0319611 7.91317,-3.6815711 7.68741,-2.5092971 -0.11009,0.5716361 -0.26938,0.6655741 -4.74488,2.7982131 -3.01412,1.436272 -7.03537,3.129432 -7.34918,3.865363 -0.26036,0.610596 -2.44608,0.936422 -2.97361,0.545117 z"
     id="path4204"
     inkscape:connector-curvature="0"
     sodipodi:nodetypes="ccssssssssssssssssssssssssssssssssscscsssssscssssssssssssscsscsssscssssccccssscsscscsscsssscsssssssscsssssssssssssssccssssssssssscsssssssccssssscssssssssscssssssscsssscsssssssscssssssssscsscccssscsscssscssssscsssssssssssssssssssssssssssssscsssssssssssscsssscssssssccsscccsssccscsssssscssssscssssscssssssssssssssssssscssssssssssscssssssssssssssssccsscccssssssssssssssssccsssssssss" />
</svg>
