<?xml version="1.0" encoding="utf-8"?>
<!-- Generator: Adobe Illustrator 21.1.0, SVG Export Plug-In . SVG Version: 6.00 Build 0)  -->
<svg version="1.1" id="Layer_01" xmlns="http://www.w3.org/2000/svg" xmlns:xlink="http://www.w3.org/1999/xlink" x="0px" y="0px"
	 viewBox="0 0 1700.8 1417.3" style="enable-background:new 0 0 1700.8 1417.3;" xml:space="preserve">
<style type="text/css">
	.st0{fill:none;stroke:#0000FF;stroke-width:5.000000e-02;stroke-linecap:round;stroke-linejoin:round;}
</style>
<ellipse transform="matrix(0.7071 -0.7071 0.7071 0.7071 -398.2505 301.8841)" class="st0" cx="165.3" cy="631.7" rx="2.9" ry="2.9"/>
<polyline class="st0" points="556.4,303.3 570.3,324.9 584.2,303.3 "/>
<polyline class="st0" points="482.6,362 508.2,360.8 496.4,338 "/>
<polyline class="st0" points="496.4,455.3 508.2,432.5 482.6,431.3 "/>
<polyline class="st0" points="584.2,490 570.3,468.4 556.4,490 "/>
<polyline class="st0" points="658.1,431.3 632.5,432.5 644.2,455.3 "/>
<polyline class="st0" points="513.5,319.7 499.8,314.2 485.8,311.1 476.3,310.7 "/>
<polyline class="st0" points="448.9,358.2 454,366.2 463.6,376.8 475.3,385.9 "/>
<polygon class="st0" points="691.8,358.2 694.4,354.1 700.2,340.5 682.4,331.9 683.9,312.3 669.2,310.5 664.3,310.7 663.8,303.3 
	651.7,290.7 637.4,280.5 621.4,273.2 604.4,269 597.7,272.2 595.5,267.9 586.6,256.1 570.3,267.2 554,256.1 545.1,267.9 
	542.9,272.2 536.3,269 519.2,273.2 503.3,280.5 489,290.7 476.8,303.3 476.3,310.7 471.4,310.5 456.8,312.3 458.2,331.9 
	440.5,340.5 446.2,354.1 448.9,358.2 442.8,362.3 437.9,379.2 436.3,396.6 437.9,414.1 442.8,430.9 448.9,435.1 446.2,439.2 
	440.5,452.8 458.2,461.4 456.8,481 471.4,482.8 476.3,482.6 476.8,490 489,502.6 503.3,512.7 519.2,520.1 536.3,524.3 542.9,521 
	545.1,525.4 554,537.2 570.3,526.1 586.6,537.2 595.5,525.4 597.7,521 604.4,524.3 621.4,520.1 637.4,512.7 651.7,502.6 663.8,490 
	664.3,482.6 669.2,482.8 683.9,481 682.4,461.4 700.2,452.8 694.4,439.2 691.8,435.1 697.9,430.9 702.7,414.1 704.4,396.6 
	702.7,379.2 697.9,362.3 "/>
<polyline class="st0" points="476.3,482.6 485.8,482.2 499.8,479.1 513.5,473.6 "/>
<polyline class="st0" points="475.3,407.3 463.6,416.5 454,427.1 448.9,435.1 "/>
<polyline class="st0" points="597.7,521 602.1,512.6 606.5,498.9 608.6,484.3 "/>
<polyline class="st0" points="532.1,484.3 534.1,498.9 538.5,512.6 542.9,521 "/>
<polyline class="st0" points="691.8,435.1 686.7,427.1 677,416.5 665.4,407.3 "/>
<polyline class="st0" points="627.1,473.6 640.8,479.1 654.9,482.2 664.3,482.6 "/>
<polyline class="st0" points="664.3,310.7 654.9,311.1 640.8,314.2 627.1,319.7 "/>
<polyline class="st0" points="665.4,385.9 677,376.8 686.7,366.2 691.8,358.2 "/>
<polyline class="st0" points="542.9,272.2 538.5,280.7 534.1,294.3 532.1,309 "/>
<polyline class="st0" points="608.6,309 606.5,294.3 602.1,280.7 597.7,272.2 "/>
<polyline class="st0" points="745.5,544 743.4,529.4 739,515.7 734.6,507.3 "/>
<polyline class="st0" points="679.8,507.3 675.4,515.7 671,529.4 669,544 "/>
<polyline class="st0" points="802.3,621 813.9,611.9 823.6,601.2 828.7,593.2 "/>
<polyline class="st0" points="801.2,545.7 791.8,546.2 777.7,549.2 764,554.7 "/>
<polyline class="st0" points="764,708.7 777.7,714.2 791.8,717.2 801.2,717.6 "/>
<polyline class="st0" points="828.7,670.1 823.6,662.1 813.9,651.5 802.3,642.4 "/>
<polyline class="st0" points="669,719.4 671,734 675.4,747.7 679.8,756.1 "/>
<polyline class="st0" points="734.6,756.1 739,747.7 743.4,734 745.5,719.4 "/>
<polyline class="st0" points="612.2,642.4 600.5,651.5 590.9,662.1 585.8,670.1 "/>
<polyline class="st0" points="613.2,717.6 622.7,717.2 636.7,714.2 650.4,708.7 "/>
<polygon class="st0" points="828.7,593.2 831.3,589.1 837.1,575.5 819.3,567 820.8,547.3 806.1,545.5 801.2,545.7 800.7,538.4 
	788.6,525.7 774.3,515.6 758.3,508.3 741.3,504.1 734.6,507.3 732.4,502.9 723.5,491.2 707.2,502.2 690.9,491.2 682,502.9 
	679.8,507.3 673.2,504.1 656.1,508.3 640.2,515.6 625.9,525.7 613.7,538.4 613.2,545.7 608.3,545.5 593.7,547.3 595.1,567 
	577.4,575.5 583.1,589.1 585.8,593.2 579.7,597.4 574.8,614.2 573.2,631.7 574.8,649.1 579.7,666 585.8,670.1 583.1,674.2 
	577.4,687.8 595.1,696.4 593.7,716 608.3,717.9 613.2,717.6 613.7,725 625.9,737.6 640.2,747.8 656.1,755.1 673.2,759.3 
	679.8,756.1 682,760.4 690.9,772.2 707.2,761.1 723.5,772.2 732.4,760.4 734.6,756.1 741.3,759.3 758.3,755.1 774.3,747.8 
	788.6,737.6 800.7,725 801.2,717.6 806.1,717.9 820.8,716 819.3,696.4 837.1,687.8 831.3,674.2 828.7,670.1 834.8,666 839.6,649.1 
	841.3,631.7 839.6,614.2 834.8,597.4 "/>
<polyline class="st0" points="585.8,593.2 590.9,601.2 600.5,611.9 612.2,621 "/>
<polyline class="st0" points="650.4,554.7 636.7,549.2 622.7,546.2 613.2,545.7 "/>
<polyline class="st0" points="795,666.3 769.4,667.6 781.1,690.4 "/>
<polyline class="st0" points="721.1,725 707.2,703.4 693.3,725 "/>
<polyline class="st0" points="633.3,690.4 645.1,667.6 619.5,666.3 "/>
<polyline class="st0" points="619.5,597 645.1,595.8 633.3,573 "/>
<polyline class="st0" points="693.3,538.3 707.2,559.9 721.1,538.3 "/>
<polyline class="st0" points="781.1,573 769.4,595.8 795,597 "/>
<polyline class="st0" points="507.3,102.9 495.6,125.7 521.2,126.9 "/>
<polyline class="st0" points="419.5,68.3 433.4,89.8 447.3,68.3 "/>
<polyline class="st0" points="345.7,126.9 371.3,125.7 359.5,102.9 "/>
<polyline class="st0" points="359.5,220.3 371.3,197.5 345.7,196.3 "/>
<polyline class="st0" points="447.3,254.9 433.4,233.3 419.5,254.9 "/>
<polyline class="st0" points="521.2,196.3 495.6,197.5 507.3,220.3 "/>
<polyline class="st0" points="376.6,84.6 362.9,79.1 348.9,76.1 339.4,75.6 "/>
<polyline class="st0" points="312,123.1 317.1,131.1 326.7,141.8 338.3,150.9 "/>
<polygon class="st0" points="554.9,123.1 557.5,119 563.3,105.4 545.5,96.9 547,77.2 532.3,75.4 527.4,75.6 526.9,68.3 514.8,55.6 
	500.5,45.5 484.5,38.2 467.5,34 460.8,37.2 458.6,32.9 449.7,21.1 433.4,32.1 417.1,21.1 408.2,32.9 406,37.2 399.4,34 382.3,38.2 
	366.4,45.5 352.1,55.6 339.9,68.3 339.4,75.6 334.5,75.4 319.9,77.2 321.3,96.9 303.6,105.4 309.3,119 312,123.1 305.9,127.3 
	301,144.1 299.4,161.6 301,179.1 305.9,195.9 312,200 309.3,204.2 303.6,217.8 321.3,226.3 319.9,246 334.5,247.8 339.4,247.5 
	339.9,254.9 352.1,267.5 366.4,277.7 382.3,285 399.4,289.2 406,286 408.2,290.3 417.1,302.1 433.4,291.1 449.7,302.1 458.6,290.3 
	460.8,286 467.5,289.2 484.5,285 500.5,277.7 514.8,267.5 526.9,254.9 527.4,247.5 532.3,247.8 547,246 545.5,226.3 563.3,217.8 
	557.5,204.2 554.9,200 561,195.9 565.8,179.1 567.5,161.6 565.8,144.1 561,127.3 "/>
<polyline class="st0" points="339.4,247.5 348.9,247.1 362.9,244.1 376.6,238.6 "/>
<polyline class="st0" points="338.3,172.3 326.7,181.4 317.1,192.1 312,200 "/>
<polyline class="st0" points="460.8,286 465.2,277.6 469.6,263.9 471.7,249.3 "/>
<polyline class="st0" points="395.2,249.3 397.2,263.9 401.6,277.6 406,286 "/>
<polyline class="st0" points="554.9,200 549.8,192.1 540.1,181.4 528.5,172.3 "/>
<polyline class="st0" points="490.2,238.6 503.9,244.1 518,247.1 527.4,247.5 "/>
<polyline class="st0" points="527.4,75.6 518,76.1 503.9,79.1 490.2,84.6 "/>
<polyline class="st0" points="528.5,150.9 540.1,141.8 549.8,131.1 554.9,123.1 "/>
<polyline class="st0" points="406,37.2 401.6,45.6 397.2,59.3 395.2,73.9 "/>
<polyline class="st0" points="471.7,73.9 469.6,59.3 465.2,45.6 460.8,37.2 "/>
<line class="st0" x1="673.2" y1="137.1" x2="664.9" y2="145.3"/>
<line class="st0" x1="664.9" y1="137.1" x2="673.2" y2="145.3"/>
<line class="st0" x1="708.5" y1="198.3" x2="700.3" y2="206.5"/>
<line class="st0" x1="700.3" y1="198.3" x2="708.5" y2="206.5"/>
<line class="st0" x1="673.2" y1="177.9" x2="664.9" y2="186.1"/>
<line class="st0" x1="664.9" y1="177.9" x2="673.2" y2="186.1"/>
<line class="st0" x1="743.8" y1="177.9" x2="735.6" y2="186.1"/>
<line class="st0" x1="735.6" y1="177.9" x2="743.8" y2="186.1"/>
<line class="st0" x1="743.8" y1="137.1" x2="735.6" y2="145.3"/>
<line class="st0" x1="735.6" y1="137.1" x2="743.8" y2="145.3"/>
<line class="st0" x1="700.3" y1="116.7" x2="708.5" y2="124.9"/>
<line class="st0" x1="708.5" y1="116.7" x2="700.3" y2="124.9"/>
<line class="st0" x1="708.5" y1="157.5" x2="700.3" y2="165.7"/>
<line class="st0" x1="700.3" y1="157.5" x2="708.5" y2="165.7"/>
<line class="st0" x1="679" y1="176.2" x2="694.4" y2="167.3"/>
<line class="st0" x1="679" y1="147" x2="694.4" y2="155.8"/>
<line class="st0" x1="704.4" y1="132.3" x2="704.4" y2="150.1"/>
<line class="st0" x1="729.7" y1="147" x2="714.3" y2="155.8"/>
<line class="st0" x1="729.7" y1="176.2" x2="714.3" y2="167.3"/>
<line class="st0" x1="704.4" y1="190.9" x2="704.4" y2="173.1"/>
<polyline class="st0" points="742.6,73.9 740.6,59.3 736.2,45.6 731.8,37.2 "/>
<polyline class="st0" points="677,37.2 672.6,45.6 668.2,59.3 666.1,73.9 "/>
<polyline class="st0" points="799.5,150.9 811.1,141.8 820.7,131.1 825.8,123.1 "/>
<polyline class="st0" points="798.4,75.6 788.9,76.1 774.9,79.1 761.2,84.6 "/>
<polyline class="st0" points="761.2,238.6 774.9,244.1 788.9,247.1 798.4,247.5 "/>
<polyline class="st0" points="825.8,200 820.7,192.1 811.1,181.4 799.5,172.3 "/>
<polyline class="st0" points="666.1,249.3 668.2,263.9 672.6,277.6 677,286 "/>
<polyline class="st0" points="731.8,286 736.2,277.6 740.6,263.9 742.6,249.3 "/>
<polyline class="st0" points="609.3,172.3 597.7,181.4 588.1,192.1 582.9,200 "/>
<polyline class="st0" points="610.4,247.5 619.8,247.1 633.9,244.1 647.6,238.6 "/>
<polygon class="st0" points="825.8,123.1 828.5,119 834.2,105.4 816.5,96.9 817.9,77.2 803.3,75.4 798.4,75.6 797.9,68.3 
	785.7,55.6 771.4,45.5 755.5,38.2 738.5,34 731.8,37.2 729.6,32.9 720.7,21.1 704.4,32.1 688.1,21.1 679.2,32.9 677,37.2 670.3,34 
	653.3,38.2 637.4,45.5 623.1,55.6 610.9,68.3 610.4,75.6 605.5,75.4 590.8,77.2 592.3,96.9 574.5,105.4 580.3,119 582.9,123.1 
	576.8,127.3 572,144.1 570.3,161.6 572,179.1 576.8,195.9 582.9,200 580.3,204.2 574.5,217.8 592.3,226.3 590.8,246 605.5,247.8 
	610.4,247.5 610.9,254.9 623.1,267.5 637.4,277.7 653.3,285 670.3,289.2 677,286 679.2,290.3 688.1,302.1 704.4,291.1 720.7,302.1 
	729.6,290.3 731.8,286 738.5,289.2 755.5,285 771.4,277.7 785.7,267.5 797.9,254.9 798.4,247.5 803.3,247.8 817.9,246 816.5,226.3 
	834.2,217.8 828.5,204.2 825.8,200 831.9,195.9 836.8,179.1 838.5,161.6 836.8,144.1 831.9,127.3 "/>
<polyline class="st0" points="582.9,123.1 588.1,131.1 597.7,141.8 609.3,150.9 "/>
<polyline class="st0" points="647.6,84.6 633.9,79.1 619.8,76.1 610.4,75.6 "/>
<polyline class="st0" points="792.2,196.3 766.5,197.5 778.3,220.3 "/>
<polyline class="st0" points="718.3,254.9 704.4,233.3 690.5,254.9 "/>
<polyline class="st0" points="630.5,220.3 642.2,197.5 616.6,196.3 "/>
<polyline class="st0" points="616.6,126.9 642.2,125.7 630.5,102.9 "/>
<polyline class="st0" points="690.5,68.3 704.4,89.8 718.3,68.3 "/>
<polyline class="st0" points="778.3,102.9 766.5,125.7 792.2,126.9 "/>
<polyline class="st0" points="373.2,338 361.5,360.8 387.1,362 "/>
<polyline class="st0" points="285.5,303.3 299.4,324.9 313.2,303.3 "/>
<polyline class="st0" points="211.6,362 237.2,360.8 225.5,338 "/>
<polyline class="st0" points="225.5,455.3 237.2,432.5 211.6,431.3 "/>
<polyline class="st0" points="313.2,490 299.4,468.4 285.5,490 "/>
<polyline class="st0" points="387.1,431.3 361.5,432.5 373.2,455.3 "/>
<polyline class="st0" points="242.5,319.7 228.8,314.2 214.8,311.1 205.3,310.7 "/>
<polyline class="st0" points="177.9,358.2 183,366.2 192.7,376.8 204.3,385.9 "/>
<polygon class="st0" points="420.8,358.2 423.4,354.1 429.2,340.5 411.5,331.9 412.9,312.3 398.2,310.5 393.4,310.7 392.8,303.3 
	380.7,290.7 366.4,280.5 350.4,273.2 333.4,269 326.8,272.2 324.5,267.9 315.6,256.1 299.4,267.2 283.1,256.1 274.2,267.9 
	271.9,272.2 265.3,269 248.3,273.2 232.3,280.5 218,290.7 205.9,303.3 205.3,310.7 200.5,310.5 185.8,312.3 187.2,331.9 
	169.5,340.5 175.3,354.1 177.9,358.2 171.8,362.3 166.9,379.2 165.3,396.6 166.9,414.1 171.8,430.9 177.9,435.1 175.3,439.2 
	169.5,452.8 187.2,461.4 185.8,481 200.5,482.8 205.3,482.6 205.9,490 218,502.6 232.3,512.7 248.3,520.1 265.3,524.3 271.9,521 
	274.2,525.4 283.1,537.2 299.4,526.1 315.6,537.2 324.5,525.4 326.8,521 333.4,524.3 350.4,520.1 366.4,512.7 380.7,502.6 
	392.8,490 393.4,482.6 398.2,482.8 412.9,481 411.5,461.4 429.2,452.8 423.4,439.2 420.8,435.1 426.9,430.9 431.8,414.1 
	433.4,396.6 431.8,379.2 426.9,362.3 "/>
<polyline class="st0" points="205.3,482.6 214.8,482.2 228.8,479.1 242.5,473.6 "/>
<polyline class="st0" points="204.3,407.3 192.7,416.5 183,427.1 177.9,435.1 "/>
<polyline class="st0" points="326.8,521 331.1,512.6 335.5,498.9 337.6,484.3 "/>
<polyline class="st0" points="261.1,484.3 263.2,498.9 267.6,512.6 271.9,521 "/>
<polyline class="st0" points="420.8,435.1 415.7,427.1 406,416.5 394.4,407.3 "/>
<polyline class="st0" points="356.2,473.6 369.9,479.1 383.9,482.2 393.4,482.6 "/>
<polyline class="st0" points="393.4,310.7 383.9,311.1 369.9,314.2 356.2,319.7 "/>
<polyline class="st0" points="394.4,385.9 406,376.8 415.7,366.2 420.8,358.2 "/>
<polyline class="st0" points="271.9,272.2 267.6,280.7 263.2,294.3 261.1,309 "/>
<polyline class="st0" points="337.6,309 335.5,294.3 331.1,280.7 326.8,272.2 "/>
<polyline class="st0" points="474.5,544 472.4,529.4 468,515.7 463.7,507.3 "/>
<polyline class="st0" points="408.8,507.3 404.5,515.7 400.1,529.4 398,544 "/>
<polyline class="st0" points="531.3,621 542.9,611.9 552.6,601.2 557.7,593.2 "/>
<polyline class="st0" points="530.3,545.7 520.8,546.2 506.8,549.2 493.1,554.7 "/>
<polyline class="st0" points="493.1,708.7 506.8,714.2 520.8,717.2 530.3,717.6 "/>
<polyline class="st0" points="557.7,670.1 552.6,662.1 542.9,651.5 531.3,642.4 "/>
<polyline class="st0" points="398,719.4 400.1,734 404.5,747.7 408.8,756.1 "/>
<polyline class="st0" points="463.7,756.1 468,747.7 472.4,734 474.5,719.4 "/>
<polyline class="st0" points="341.2,642.4 329.6,651.5 319.9,662.1 314.8,670.1 "/>
<polyline class="st0" points="342.2,717.6 351.7,717.2 365.7,714.2 379.4,708.7 "/>
<polygon class="st0" points="557.7,593.2 560.3,589.1 566.1,575.5 548.4,567 549.8,547.3 535.1,545.5 530.3,545.7 529.7,538.4 
	517.6,525.7 503.3,515.6 487.3,508.3 470.3,504.1 463.7,507.3 461.4,502.9 452.5,491.2 436.3,502.2 420,491.2 411.1,502.9 
	408.8,507.3 402.2,504.1 385.2,508.3 369.2,515.6 354.9,525.7 342.8,538.4 342.2,545.7 337.4,545.5 322.7,547.3 324.1,567 
	306.4,575.5 312.2,589.1 314.8,593.2 308.7,597.4 303.8,614.2 302.2,631.7 303.8,649.1 308.7,666 314.8,670.1 312.2,674.2 
	306.4,687.8 324.1,696.4 322.7,716 337.4,717.9 342.2,717.6 342.8,725 354.9,737.6 369.2,747.8 385.2,755.1 402.2,759.3 
	408.8,756.1 411.1,760.4 420,772.2 436.3,761.1 452.5,772.2 461.4,760.4 463.7,756.1 470.3,759.3 487.3,755.1 503.3,747.8 
	517.6,737.6 529.7,725 530.3,717.6 535.1,717.9 549.8,716 548.4,696.4 566.1,687.8 560.3,674.2 557.7,670.1 563.8,666 568.7,649.1 
	570.3,631.7 568.7,614.2 563.8,597.4 "/>
<polyline class="st0" points="314.8,593.2 319.9,601.2 329.6,611.9 341.2,621 "/>
<polyline class="st0" points="379.4,554.7 365.7,549.2 351.7,546.2 342.2,545.7 "/>
<polyline class="st0" points="524,666.3 498.4,667.6 510.1,690.4 "/>
<polyline class="st0" points="450.1,725 436.3,703.4 422.4,725 "/>
<polyline class="st0" points="362.4,690.4 374.1,667.6 348.5,666.3 "/>
<polyline class="st0" points="348.5,597 374.1,595.8 362.4,573 "/>
<polyline class="st0" points="422.4,538.3 436.3,559.9 450.1,538.3 "/>
<polyline class="st0" points="510.1,573 498.4,595.8 524,597 "/>
<polyline class="st0" points="236.3,102.9 224.6,125.7 250.2,126.9 "/>
<polyline class="st0" points="148.6,68.3 162.5,89.8 176.3,68.3 "/>
<polyline class="st0" points="74.7,126.9 100.3,125.7 88.6,102.9 "/>
<polyline class="st0" points="88.6,220.3 100.3,197.5 74.7,196.3 "/>
<polyline class="st0" points="176.3,254.9 162.5,233.3 148.6,254.9 "/>
<polyline class="st0" points="250.2,196.3 224.6,197.5 236.3,220.3 "/>
<polyline class="st0" points="105.6,84.6 91.9,79.1 77.9,76.1 68.4,75.6 "/>
<polyline class="st0" points="41,123.1 46.1,131.1 55.8,141.8 67.4,150.9 "/>
<polygon class="st0" points="283.9,123.1 286.5,119 292.3,105.4 274.6,96.9 276,77.2 261.3,75.4 256.5,75.6 255.9,68.3 243.8,55.6 
	229.5,45.5 213.5,38.2 196.5,34 189.9,37.2 187.6,32.9 178.7,21.1 162.5,32.1 146.2,21.1 137.3,32.9 135,37.2 128.4,34 111.4,38.2 
	95.4,45.5 81.1,55.6 69,68.3 68.4,75.6 63.6,75.4 48.9,77.2 50.3,96.9 32.6,105.4 38.4,119 41,123.1 34.9,127.3 30,144.1 
	28.4,161.6 30,179.1 34.9,195.9 41,200 38.4,204.2 32.6,217.8 50.3,226.3 48.9,246 63.6,247.8 68.4,247.5 69,254.9 81.1,267.5 
	95.4,277.7 111.4,285 128.4,289.2 135,286 137.3,290.3 146.2,302.1 162.5,291.1 178.7,302.1 187.6,290.3 189.9,286 196.5,289.2 
	213.5,285 229.5,277.7 243.8,267.5 255.9,254.9 256.5,247.5 261.3,247.8 276,246 274.6,226.3 292.3,217.8 286.5,204.2 283.9,200 
	290,195.9 294.9,179.1 296.5,161.6 294.9,144.1 290,127.3 "/>
<polyline class="st0" points="68.4,247.5 77.9,247.1 91.9,244.1 105.6,238.6 "/>
<polyline class="st0" points="67.4,172.3 55.8,181.4 46.1,192.1 41,200 "/>
<polyline class="st0" points="189.9,286 194.2,277.6 198.6,263.9 200.7,249.3 "/>
<polyline class="st0" points="124.2,249.3 126.3,263.9 130.7,277.6 135,286 "/>
<polyline class="st0" points="283.9,200 278.8,192.1 269.1,181.4 257.5,172.3 "/>
<polyline class="st0" points="219.3,238.6 233,244.1 247,247.1 256.5,247.5 "/>
<polyline class="st0" points="256.5,75.6 247,76.1 233,79.1 219.3,84.6 "/>
<polyline class="st0" points="257.5,150.9 269.1,141.8 278.8,131.1 283.9,123.1 "/>
<polyline class="st0" points="135,37.2 130.7,45.6 126.3,59.3 124.2,73.9 "/>
<polyline class="st0" points="200.7,73.9 198.6,59.3 194.2,45.6 189.9,37.2 "/>
<polyline class="st0" points="203.6,544 201.5,529.4 197.1,515.7 192.7,507.3 "/>
<polyline class="st0" points="137.9,507.3 133.5,515.7 129.1,529.4 127,544 "/>
<polyline class="st0" points="260.4,621 272,611.9 281.6,601.2 286.7,593.2 "/>
<polyline class="st0" points="259.3,545.7 249.8,546.2 235.8,549.2 222.1,554.7 "/>
<polyline class="st0" points="222.1,708.7 235.8,714.2 249.8,717.2 259.3,717.6 "/>
<polyline class="st0" points="286.7,670.1 281.6,662.1 272,651.5 260.4,642.4 "/>
<polyline class="st0" points="127,719.4 129.1,734 133.5,747.7 137.9,756.1 "/>
<polyline class="st0" points="192.7,756.1 197.1,747.7 201.5,734 203.6,719.4 "/>
<polyline class="st0" points="70.2,642.4 58.6,651.5 49,662.1 43.8,670.1 "/>
<polyline class="st0" points="71.3,717.6 80.7,717.2 94.8,714.2 108.5,708.7 "/>
<polygon class="st0" points="286.7,593.2 289.4,589.1 295.1,575.5 277.4,567 278.8,547.3 264.2,545.5 259.3,545.7 258.8,538.4 
	246.6,525.7 232.3,515.6 216.4,508.3 199.4,504.1 192.7,507.3 190.5,502.9 181.6,491.2 165.3,502.2 149,491.2 140.1,502.9 
	137.9,507.3 131.2,504.1 114.2,508.3 98.3,515.6 84,525.7 71.8,538.4 71.3,545.7 66.4,545.5 51.7,547.3 53.2,567 35.5,575.5 
	41.2,589.1 43.8,593.2 37.7,597.4 32.9,614.2 31.2,631.7 32.9,649.1 37.7,666 43.8,670.1 41.2,674.2 35.5,687.8 53.2,696.4 
	51.7,716 66.4,717.9 71.3,717.6 71.8,725 84,737.6 98.3,747.8 114.2,755.1 131.2,759.3 137.9,756.1 140.1,760.4 149,772.2 
	165.3,761.1 181.6,772.2 190.5,760.4 192.7,756.1 199.4,759.3 216.4,755.1 232.3,747.8 246.6,737.6 258.8,725 259.3,717.6 
	264.2,717.9 278.8,716 277.4,696.4 295.1,687.8 289.4,674.2 286.7,670.1 292.8,666 297.7,649.1 299.4,631.7 297.7,614.2 
	292.8,597.4 "/>
<polyline class="st0" points="43.8,593.2 49,601.2 58.6,611.9 70.2,621 "/>
<polyline class="st0" points="108.5,554.7 94.8,549.2 80.7,546.2 71.3,545.7 "/>
<polyline class="st0" points="253.1,666.3 227.4,667.6 239.2,690.4 "/>
<polyline class="st0" points="179.2,725 165.3,703.4 151.4,725 "/>
<polyline class="st0" points="91.4,690.4 103.1,667.6 77.5,666.3 "/>
<polyline class="st0" points="77.5,597 103.1,595.8 91.4,573 "/>
<polyline class="st0" points="151.4,538.3 165.3,559.9 179.2,538.3 "/>
<polyline class="st0" points="239.2,573 227.4,595.8 253.1,597 "/>
<line class="st0" x1="165.3" y1="661" x2="165.3" y2="643.2"/>
<line class="st0" x1="190.6" y1="646.3" x2="175.2" y2="637.4"/>
<line class="st0" x1="190.6" y1="617" x2="175.2" y2="625.9"/>
<line class="st0" x1="165.3" y1="602.4" x2="165.3" y2="620.2"/>
<line class="st0" x1="139.9" y1="617" x2="155.3" y2="625.9"/>
<line class="st0" x1="139.9" y1="646.3" x2="155.3" y2="637.4"/>
<ellipse transform="matrix(0.7071 -0.7071 0.7071 0.7071 -394.456 273.0389)" class="st0" cx="132.4" cy="612.7" rx="2.9" ry="2.9"/>
<ellipse transform="matrix(0.9659 -0.2588 0.2588 0.9659 -163.8966 56.4264)" class="st0" cx="132.4" cy="650.7" rx="2.9" ry="2.9"/>
<ellipse transform="matrix(0.2588 -0.9659 0.9659 0.2588 -524.3758 656.0209)" class="st0" cx="165.3" cy="669.7" rx="2.9" ry="2.9"/>
<ellipse transform="matrix(0.7071 -0.7071 0.7071 0.7071 -402.049 330.7356)" class="st0" cx="198.2" cy="650.7" rx="2.9" ry="2.9"/>
<ellipse transform="matrix(0.9659 -0.2588 0.2588 0.9659 -151.8121 72.1753)" class="st0" cx="198.2" cy="612.7" rx="2.9" ry="2.9"/>
<ellipse transform="matrix(0.2588 -0.9659 0.9659 0.2588 -450.9227 599.6586)" class="st0" cx="165.3" cy="593.7" rx="2.9" ry="2.9"/>
<polyline class="st0" points="644.2,338 632.5,360.8 658.1,362 "/>
</svg>
