  0
SECTION
  2
HEADER
  9
$ACADVER
  1
AC1014
  9
$HANDSEED
  5
FFFF
  9
$MEASUREMENT
 70
     1
  0
ENDSEC
  0
SECTION
  2
TABLES
  0
TABLE
  2
VPORT
  5
8
330
0
100
AcDbSymbolTable
 70
     4
  0
VPORT
  5
2E
330
8
100
AcDbSymbolTableRecord
100
AcDbViewportTableRecord
  2
*ACTIVE
 70
     0
 10
0.0
 20
0.0
 11
1.0
 21
1.0
 12
210.0
 22
148.5
 13
0.0
 23
0.0
 14
10.0
 24
10.0
 15
10.0
 25
10.0
 16
0.0
 26
0.0
 36
1.0
 17
0.0
 27
0.0
 37
0.0
 40
341.0
 41
1.24
 42
50.0
 43
0.0
 44
0.0
 50
0.0
 51
0.0
 71
     0
 72
   100
 73
     1
 74
     3
 75
     0
 76
     0
 77
     0
 78
     0
  0
ENDTAB
  0
TABLE
  2
LTYPE
  5
5
330
0
100
AcDbSymbolTable
 70
     1
  0
LTYPE
  5
14
330
5
100
AcDbSymbolTableRecord
100
AcDbLinetypeTableRecord
  2
BYBLOCK
 70
     0
  3

 72
    65
 73
     0
 40
0.0
  0
LTYPE
  5
15
330
5
100
AcDbSymbolTableRecord
100
AcDbLinetypeTableRecord
  2
BYLAYER
 70
     0
  3

 72
    65
 73
     0
 40
0.0
  0
LTYPE
  5
16
330
5
100
AcDbSymbolTableRecord
100
AcDbLinetypeTableRecord
  2
CONTINUOUS
 70
     0
  3
Solid line
 72
    65
 73
     0
 40
0.0
  0
ENDTAB
  0
TABLE
  2
LAYER
  5
2
100
AcDbSymbolTable
 70
2
  0
LAYER
  5
50
100
AcDbSymbolTableRecord
100
AcDbLayerTableRecord
  2
0
 70
0
  6
CONTINUOUS
  0
LAYER
  5
51
100
AcDbSymbolTableRecord
100
AcDbLayerTableRecord
  2
Default
 70
0
  6
CONTINUOUS
  0
ENDTAB
  0
TABLE
  2
STYLE
  5
3
330
0
100
AcDbSymbolTable
 70
     1
  0
STYLE
  5
11
330
3
100
AcDbSymbolTableRecord
100
AcDbTextStyleTableRecord
  2
STANDARD
 70
     0
 40
0.0
 41
1.0
 50
0.0
 71
     0
 42
2.5
  3
txt
  4

  0
ENDTAB
  0
TABLE
  2
VIEW
  5
6
330
0
100
AcDbSymbolTable
 70
     0
  0
ENDTAB
  0
TABLE
  2
UCS
  5
7
330
0
100
AcDbSymbolTable
 70
     0
  0
ENDTAB
  0
TABLE
  2
APPID
  5
9
330
0
100
AcDbSymbolTable
 70
     2
  0
APPID
  5
12
330
9
100
AcDbSymbolTableRecord
100
AcDbRegAppTableRecord
  2
ACAD
 70
     0
  0
ENDTAB
  0
TABLE
  2
DIMSTYLE
  5
A
330
0
100
AcDbSymbolTable
 70
     1
  0
DIMSTYLE
105
27
330
A
100
AcDbSymbolTableRecord
100
AcDbDimStyleTableRecord
  2
ISO-25
 70
     0
  3

  4

  5

  6

  7

 40
1.0
 41
2.5
 42
0.625
 43
3.75
 44
1.25
 45
0.0
 46
0.0
 47
0.0
 48
0.0
140
2.5
141
2.5
142
0.0
143
0.03937007874016
144
1.0
145
0.0
146
1.0
147
0.625
 71
     0
 72
     0
 73
     0
 74
     0
 75
     0
 76
     0
 77
     1
 78
     8
170
     0
171
     3
172
     1
173
     0
174
     0
175
     0
176
     0
177
     0
178
     0
270
     2
271
     2
272
     2
273
     2
274
     3
340
11
275
     0
280
     0
281
     0
282
     0
283
     0
284
     8
285
     0
286
     0
287
     3
288
     0
  0
ENDTAB
  0
TABLE
  2
BLOCK_RECORD
  5
1
330
0
100
AcDbSymbolTable
 70
     1
  0
BLOCK_RECORD
  5
1F
330
1
100
AcDbSymbolTableRecord
100
AcDbBlockTableRecord
  2
*MODEL_SPACE
  0
BLOCK_RECORD
  5
1B
330
1
100
AcDbSymbolTableRecord
100
AcDbBlockTableRecord
  2
*PAPER_SPACE
  0
ENDTAB
  0
ENDSEC
  0
SECTION
  2
BLOCKS
  0
BLOCK
  5
20
330
1F
100
AcDbEntity
  8
0
100
AcDbBlockBegin
  2
*MODEL_SPACE
 70
     0
 10
0.0
 20
0.0
 30
0.0
  3
*MODEL_SPACE
  1

  0
ENDBLK
  5
21
330
1F
100
AcDbEntity
  8
0
100
AcDbBlockEnd
  0
BLOCK
  5
1C
330
1B
100
AcDbEntity
 67
     1
  8
0
100
AcDbBlockBegin
  2
*PAPER_SPACE
  1

  0
ENDBLK
  5
1D
330
1B
100
AcDbEntity
 67
     1
  8
0
100
AcDbBlockEnd
  0
ENDSEC
  0
SECTION
  2
ENTITIES
  0
LWPOLYLINE
  5
100
100
AcDbEntity
  8
Default
 62
1
100
AcDbPolyline
 90
2
 70
0
 10
540.119418
 20
357.165354
 30
0.0
 10
540.119418
 20
-0.000000
 30
0.0
  0
LWPOLYLINE
  5
101
100
AcDbEntity
  8
Default
 62
1
100
AcDbPolyline
 90
3
 70
0
 10
540.119418
 20
357.165354
 30
0.0
 10
302.009182
 20
357.165354
 30
0.0
 10
302.009182
 20
178.582677
 30
0.0
  0
LWPOLYLINE
  5
102
100
AcDbEntity
  8
Default
 62
1
100
AcDbPolyline
 90
2
 70
0
 10
540.119418
 20
-0.000000
 30
0.0
 10
302.009182
 20
-0.000000
 30
0.0
  0
LWPOLYLINE
  5
103
100
AcDbEntity
  8
Default
 62
1
100
AcDbPolyline
 90
2
 70
0
 10
391.474875
 20
178.582677
 30
0.0
 10
391.474875
 20
144.056693
 30
0.0
  0
LWPOLYLINE
  5
104
100
AcDbEntity
  8
Default
 62
1
100
AcDbPolyline
 90
2
 70
0
 10
391.474875
 20
178.582677
 30
0.0
 10
302.009182
 20
178.582677
 30
0.0
  0
LWPOLYLINE
  5
105
100
AcDbEntity
  8
Default
 62
1
100
AcDbPolyline
 90
3
 70
0
 10
391.474875
 20
144.056693
 30
0.0
 10
302.009182
 20
144.056693
 30
0.0
 10
302.009182
 20
-0.000000
 30
0.0
  0
LWPOLYLINE
  5
106
100
AcDbEntity
  8
Default
 62
1
100
AcDbPolyline
 90
2
 70
0
 10
28.182410
 20
357.165354
 30
0.0
 10
28.182410
 20
-0.000000
 30
0.0
  0
LWPOLYLINE
  5
107
100
AcDbEntity
  8
Default
 62
1
100
AcDbPolyline
 90
2
 70
0
 10
266.292646
 20
357.165354
 30
0.0
 10
266.292646
 20
178.582677
 30
0.0
  0
LWPOLYLINE
  5
108
100
AcDbEntity
  8
Default
 62
1
100
AcDbPolyline
 90
2
 70
0
 10
266.292646
 20
357.165354
 30
0.0
 10
28.182410
 20
357.165354
 30
0.0
  0
LWPOLYLINE
  5
109
100
AcDbEntity
  8
Default
 62
1
100
AcDbPolyline
 90
2
 70
0
 10
266.292646
 20
-0.000000
 30
0.0
 10
28.182410
 20
-0.000000
 30
0.0
  0
LWPOLYLINE
  5
10a
100
AcDbEntity
  8
Default
 62
1
100
AcDbPolyline
 90
2
 70
0
 10
178.925330
 20
144.056693
 30
0.0
 10
178.925330
 20
178.582677
 30
0.0
  0
LWPOLYLINE
  5
10b
100
AcDbEntity
  8
Default
 62
1
100
AcDbPolyline
 90
2
 70
0
 10
266.292646
 20
178.582677
 30
0.0
 10
178.925330
 20
178.582677
 30
0.0
  0
LWPOLYLINE
  5
10c
100
AcDbEntity
  8
Default
 62
1
100
AcDbPolyline
 90
2
 70
0
 10
266.292646
 20
144.056693
 30
0.0
 10
178.925330
 20
144.056693
 30
0.0
  0
LWPOLYLINE
  5
10d
100
AcDbEntity
  8
Default
 62
1
100
AcDbPolyline
 90
2
 70
0
 10
266.292646
 20
144.056693
 30
0.0
 10
266.292646
 20
-0.000000
 30
0.0
  0
LWPOLYLINE
  5
10e
100
AcDbEntity
  8
Default
 62
1
100
AcDbPolyline
 90
5
 70
0
 10
59.527559
 20
380.497673
 30
0.0
 10
535.748031
 20
380.497673
 30
0.0
 10
537.737809
 20
380.530938
 30
0.0
 10
539.725362
 20
380.630695
 30
0.0
 10
541.708470
 20
380.796832
 30
0.0
  0
LWPOLYLINE
  5
10f
100
AcDbEntity
  8
Default
 62
1
100
AcDbPolyline
 90
122
 70
0
 10
595.275590
 20
440.025233
 30
0.0
 10
595.275590
 20
559.080351
 30
0.0
 10
595.240887
 20
561.112688
 30
0.0
 10
595.136818
 20
563.142655
 30
0.0
 10
594.963504
 20
565.167886
 30
0.0
 10
594.721148
 20
567.186019
 30
0.0
 10
594.410031
 20
569.194701
 30
0.0
 10
594.030518
 20
571.191591
 30
0.0
 10
593.583049
 20
573.174359
 30
0.0
 10
593.068147
 20
575.140694
 30
0.0
 10
592.486413
 20
577.088304
 30
0.0
 10
591.838524
 20
579.014917
 30
0.0
 10
591.125237
 20
580.918287
 30
0.0
 10
590.347382
 20
582.796195
 30
0.0
 10
589.505866
 20
584.646452
 30
0.0
 10
588.601671
 20
586.466900
 30
0.0
 10
587.635852
 20
588.255416
 30
0.0
 10
586.609533
 20
590.009915
 30
0.0
 10
585.523912
 20
591.728352
 30
0.0
 10
584.380255
 20
593.408723
 30
0.0
 10
583.179895
 20
595.049068
 30
0.0
 10
581.924231
 20
596.647476
 30
0.0
 10
580.614728
 20
598.202081
 30
0.0
 10
579.252913
 20
599.711073
 30
0.0
 10
577.840372
 20
601.172692
 30
0.0
 10
576.378754
 20
602.585232
 30
0.0
 10
574.869762
 20
603.947048
 30
0.0
 10
573.315156
 20
605.256550
 30
0.0
 10
571.716749
 20
606.512214
 30
0.0
 10
570.076403
 20
607.712574
 30
0.0
 10
568.396033
 20
608.856232
 30
0.0
 10
566.677596
 20
609.941853
 30
0.0
 10
564.923096
 20
610.968171
 30
0.0
 10
563.134580
 20
611.933990
 30
0.0
 10
561.314133
 20
612.838185
 30
0.0
 10
559.463876
 20
613.679701
 30
0.0
 10
557.585968
 20
614.457556
 30
0.0
 10
555.682598
 20
615.170844
 30
0.0
 10
553.755984
 20
615.818733
 30
0.0
 10
551.808374
 20
616.400466
 30
0.0
 10
549.842039
 20
616.915368
 30
0.0
 10
547.859271
 20
617.362837
 30
0.0
 10
545.862382
 20
617.742350
 30
0.0
 10
543.853700
 20
618.053467
 30
0.0
 10
541.835566
 20
618.295824
 30
0.0
 10
539.810336
 20
618.469137
 30
0.0
 10
537.780369
 20
618.573207
 30
0.0
 10
535.748031
 20
618.607910
 30
0.0
 10
59.527559
 20
618.607910
 30
0.0
 10
57.495222
 20
618.573207
 30
0.0
 10
55.465254
 20
618.469137
 30
0.0
 10
53.440024
 20
618.295824
 30
0.0
 10
51.421891
 20
618.053467
 30
0.0
 10
49.413209
 20
617.742350
 30
0.0
 10
47.416319
 20
617.362837
 30
0.0
 10
45.433551
 20
616.915368
 30
0.0
 10
43.467216
 20
616.400466
 30
0.0
 10
41.519606
 20
615.818733
 30
0.0
 10
39.592993
 20
615.170844
 30
0.0
 10
37.689623
 20
614.457556
 30
0.0
 10
35.811714
 20
613.679701
 30
0.0
 10
33.961458
 20
612.838185
 30
0.0
 10
32.141010
 20
611.933990
 30
0.0
 10
30.352494
 20
610.968171
 30
0.0
 10
28.597994
 20
609.941853
 30
0.0
 10
26.879558
 20
608.856232
 30
0.0
 10
25.199187
 20
607.712574
 30
0.0
 10
23.558842
 20
606.512214
 30
0.0
 10
21.960434
 20
605.256550
 30
0.0
 10
20.405828
 20
603.947048
 30
0.0
 10
18.896837
 20
602.585232
 30
0.0
 10
17.435218
 20
601.172692
 30
0.0
 10
16.022678
 20
599.711073
 30
0.0
 10
14.660862
 20
598.202081
 30
0.0
 10
13.351359
 20
596.647476
 30
0.0
 10
12.095696
 20
595.049068
 30
0.0
 10
10.895335
 20
593.408723
 30
0.0
 10
9.751678
 20
591.728352
 30
0.0
 10
8.666058
 20
590.009915
 30
0.0
 10
7.639739
 20
588.255416
 30
0.0
 10
6.673919
 20
586.466900
 30
0.0
 10
5.769725
 20
584.646452
 30
0.0
 10
4.928209
 20
582.796195
 30
0.0
 10
4.150354
 20
580.918287
 30
0.0
 10
3.437066
 20
579.014917
 30
0.0
 10
2.789178
 20
577.088304
 30
0.0
 10
2.207443
 20
575.140694
 30
0.0
 10
1.692542
 20
573.174359
 30
0.0
 10
1.245074
 20
571.191591
 30
0.0
 10
0.865559
 20
569.194701
 30
0.0
 10
0.554443
 20
567.186019
 30
0.0
 10
0.312086
 20
565.167886
 30
0.0
 10
0.138773
 20
563.142655
 30
0.0
 10
0.034703
 20
561.112688
 30
0.0
 10
0.000000
 20
559.080351
 30
0.0
 10
0.000000
 20
440.025233
 30
0.0
 10
0.034986
 20
437.984628
 30
0.0
 10
0.139904
 20
435.946421
 30
0.0
 10
0.314630
 20
433.913009
 30
0.0
 10
0.558958
 20
431.886783
 30
0.0
 10
0.872602
 20
429.870122
 30
0.0
 10
1.255193
 20
427.865398
 30
0.0
 10
1.706280
 20
425.874968
 30
0.0
 10
2.225334
 20
423.901171
 30
0.0
 10
2.811746
 20
421.946327
 30
0.0
 10
3.464825
 20
420.012734
 30
0.0
 10
4.183803
 20
418.102665
 30
0.0
 10
4.967836
 20
416.218366
 30
0.0
 10
5.816002
 20
414.362051
 30
0.0
 10
6.727304
 20
412.535901
 30
0.0
 10
7.700670
 20
410.742065
 30
0.0
 10
8.734958
 20
408.982649
 30
0.0
 10
9.828950
 20
407.259724
 30
0.0
 10
10.981362
 20
405.575313
 30
0.0
 10
12.190837
 20
403.931396
 30
0.0
 10
13.455955
 20
402.329906
 30
0.0
 10
14.775229
 20
400.772727
 30
0.0
 10
16.147107
 20
399.261686
 30
0.0
 10
17.569978
 20
397.798562
 30
0.0
 10
19.042168
 20
396.385074
 30
0.0
 10
20.561947
 20
395.022884
 30
0.0
 10
22.127530
 20
393.713592
 30
0.0
  0
LWPOLYLINE
  5
110
100
AcDbEntity
  8
Default
 62
1
100
AcDbPolyline
 90
2
 70
0
 10
75.789426
 20
469.784232
 30
0.0
 10
51.993434
 20
380.976378
 30
0.0
  0
LWPOLYLINE
  5
111
100
AcDbEntity
  8
Default
 62
1
100
AcDbPolyline
 90
2
 70
0
 10
44.739855
 20
478.103940
 30
0.0
 10
75.789426
 20
469.784232
 30
0.0
  0
LWPOLYLINE
  5
112
100
AcDbEntity
  8
Default
 62
1
100
AcDbPolyline
 90
2
 70
0
 10
22.127530
 20
393.713592
 30
0.0
 10
44.739855
 20
478.103940
 30
0.0
  0
LWPOLYLINE
  5
113
100
AcDbEntity
  8
Default
 62
1
100
AcDbPolyline
 90
5
 70
0
 10
51.993434
 20
380.976378
 30
0.0
 10
53.870320
 20
380.767103
 30
0.0
 10
55.752900
 20
380.617470
 30
0.0
 10
57.639279
 20
380.527630
 30
0.0
 10
59.527559
 20
380.497673
 30
0.0
  0
LWPOLYLINE
  5
114
100
AcDbEntity
  8
Default
 62
1
100
AcDbPolyline
 90
2
 70
0
 10
548.652450
 20
479.079834
 30
0.0
 10
571.807875
 20
392.662611
 30
0.0
  0
LWPOLYLINE
  5
115
100
AcDbEntity
  8
Default
 62
1
100
AcDbPolyline
 90
2
 70
0
 10
517.602878
 20
470.760127
 30
0.0
 10
548.652450
 20
479.079834
 30
0.0
  0
LWPOLYLINE
  5
116
100
AcDbEntity
  8
Default
 62
1
100
AcDbPolyline
 90
2
 70
0
 10
541.708470
 20
380.796832
 30
0.0
 10
517.602878
 20
470.760127
 30
0.0
  0
LWPOLYLINE
  5
117
100
AcDbEntity
  8
Default
 62
1
100
AcDbPolyline
 90
28
 70
0
 10
571.807875
 20
392.662611
 30
0.0
 10
573.400582
 20
393.918664
 30
0.0
 10
574.949572
 20
395.228252
 30
0.0
 10
576.453044
 20
396.589853
 30
0.0
 10
577.909254
 20
398.001886
 30
0.0
 10
579.316510
 20
399.462713
 30
0.0
 10
580.673179
 20
400.970637
 30
0.0
 10
581.977686
 20
402.523908
 30
0.0
 10
583.228515
 20
404.120721
 30
0.0
 10
584.424215
 20
405.759223
 30
0.0
 10
585.563398
 20
407.437511
 30
0.0
 10
586.644739
 20
409.153637
 30
0.0
 10
587.666984
 20
410.905607
 30
0.0
 10
588.628947
 20
412.691388
 30
0.0
 10
589.529510
 20
414.508906
 30
0.0
 10
590.367626
 20
416.356052
 30
0.0
 10
591.142325
 20
418.230679
 30
0.0
 10
591.852705
 20
420.130613
 30
0.0
 10
592.497942
 20
422.053645
 30
0.0
 10
593.077287
 20
423.997545
 30
0.0
 10
593.590067
 20
425.960054
 30
0.0
 10
594.035686
 20
427.938895
 30
0.0
 10
594.413629
 20
429.931769
 30
0.0
 10
594.723454
 20
431.936362
 30
0.0
 10
594.964803
 20
433.950348
 30
0.0
 10
595.137396
 20
435.971386
 30
0.0
 10
595.241032
 20
437.997132
 30
0.0
 10
595.275590
 20
440.025233
 30
0.0
  0
LWPOLYLINE
  5
118
100
AcDbEntity
  8
Default
 62
7
100
AcDbPolyline
 90
11
 70
0
 10
186.741143
 20
423.534747
 30
0.0
 10
177.386812
 20
423.534747
 30
0.0
 10
177.386812
 20
415.200889
 30
0.0
 10
186.060828
 20
415.200889
 30
0.0
 10
186.060828
 20
412.819787
 30
0.0
 10
177.386812
 20
412.819787
 30
0.0
 10
177.386812
 20
402.274905
 30
0.0
 10
174.835631
 20
402.274905
 30
0.0
 10
174.835631
 20
425.915849
 30
0.0
 10
186.741143
 20
425.915849
 30
0.0
 10
186.741143
 20
423.534747
 30
0.0
  0
LWPOLYLINE
  5
119
100
AcDbEntity
  8
Default
 62
7
100
AcDbPolyline
 90
279
 70
0
 10
191.282778
 20
417.922149
 30
0.0
 10
191.582260
 20
418.098943
 30
0.0
 10
191.887490
 20
418.265617
 30
0.0
 10
192.198126
 20
418.421984
 30
0.0
 10
192.513821
 20
418.567869
 30
0.0
 10
192.834220
 20
418.703107
 30
0.0
 10
193.158966
 20
418.827549
 30
0.0
 10
193.487693
 20
418.941054
 30
0.0
 10
193.820035
 20
419.043497
 30
0.0
 10
194.155618
 20
419.134760
 30
0.0
 10
194.494068
 20
419.214743
 30
0.0
 10
194.835004
 20
419.283356
 30
0.0
 10
195.178046
 20
419.340521
 30
0.0
 10
195.522808
 20
419.386177
 30
0.0
 10
195.868905
 20
419.420269
 30
0.0
 10
196.215949
 20
419.442761
 30
0.0
 10
196.563551
 20
419.453629
 30
0.0
 10
196.911322
 20
419.452857
 30
0.0
 10
197.092975
 20
419.469605
 30
0.0
 10
197.275095
 20
419.480112
 30
0.0
 10
197.457469
 20
419.484365
 30
0.0
 10
197.639881
 20
419.482361
 30
0.0
 10
197.822117
 20
419.474101
 30
0.0
 10
198.003962
 20
419.459594
 30
0.0
 10
198.185202
 20
419.438858
 30
0.0
 10
198.365626
 20
419.411918
 30
0.0
 10
198.545018
 20
419.378805
 30
0.0
 10
198.723170
 20
419.339558
 30
0.0
 10
198.899870
 20
419.294223
 30
0.0
 10
199.074910
 20
419.242854
 30
0.0
 10
199.248086
 20
419.185511
 30
0.0
 10
199.419194
 20
419.122261
 30
0.0
 10
199.588030
 20
419.053180
 30
0.0
 10
199.754398
 20
418.978347
 30
0.0
 10
199.918102
 20
418.897853
 30
0.0
 10
200.078948
 20
418.811789
 30
0.0
 10
200.236746
 20
418.720261
 30
0.0
 10
200.391314
 20
418.623372
 30
0.0
 10
200.542466
 20
418.521239
 30
0.0
 10
200.690026
 20
418.413981
 30
0.0
 10
200.833819
 20
418.301725
 30
0.0
 10
200.973678
 20
418.184602
 30
0.0
 10
201.109438
 20
418.062752
 30
0.0
 10
201.240937
 20
417.936316
 30
0.0
 10
201.368022
 20
417.805443
 30
0.0
 10
201.490543
 20
417.670289
 30
0.0
 10
201.608357
 20
417.531012
 30
0.0
 10
201.721323
 20
417.387775
 30
0.0
 10
201.829310
 20
417.240748
 30
0.0
 10
201.932190
 20
417.090102
 30
0.0
 10
202.029842
 20
416.936017
 30
0.0
 10
202.122151
 20
416.778673
 30
0.0
 10
202.209009
 20
416.618255
 30
0.0
 10
202.290313
 20
416.454953
 30
0.0
 10
202.365968
 20
416.288957
 30
0.0
 10
202.435884
 20
416.120464
 30
0.0
 10
202.499980
 20
415.949672
 30
0.0
 10
202.558179
 20
415.776781
 30
0.0
 10
202.610414
 20
415.601997
 30
0.0
 10
202.656623
 20
415.425524
 30
0.0
 10
202.696751
 20
415.247569
 30
0.0
 10
202.730752
 20
415.068342
 30
0.0
 10
202.758585
 20
414.888055
 30
0.0
 10
202.780217
 20
414.706919
 30
0.0
 10
202.795623
 20
414.525148
 30
0.0
 10
202.804786
 20
414.342955
 30
0.0
 10
202.807693
 20
414.160555
 30
0.0
 10
202.804342
 20
413.978163
 30
0.0
 10
202.794737
 20
413.795993
 30
0.0
 10
202.778888
 20
413.614259
 30
0.0
 10
202.756816
 20
413.433177
 30
0.0
 10
202.728545
 20
413.252957
 30
0.0
 10
202.728545
 20
402.274905
 30
0.0
 10
200.177363
 20
402.274905
 30
0.0
 10
200.177363
 20
405.012110
 30
0.0
 10
200.081695
 20
405.012110
 30
0.0
 10
199.993536
 20
404.842217
 30
0.0
 10
199.899573
 20
404.675465
 30
0.0
 10
199.799916
 20
404.512052
 30
0.0
 10
199.694685
 20
404.352172
 30
0.0
 10
199.584004
 20
404.196014
 30
0.0
 10
199.468006
 20
404.043765
 30
0.0
 10
199.346827
 20
403.895605
 30
0.0
 10
199.220613
 20
403.751712
 30
0.0
 10
199.089514
 20
403.612255
 30
0.0
 10
198.953683
 20
403.477401
 30
0.0
 10
198.813286
 20
403.347309
 30
0.0
 10
198.668486
 20
403.222135
 30
0.0
 10
198.519457
 20
403.102028
 30
0.0
 10
198.366376
 20
402.987129
 30
0.0
 10
198.209425
 20
402.877577
 30
0.0
 10
198.048790
 20
402.773501
 30
0.0
 10
197.884662
 20
402.675025
 30
0.0
 10
197.717238
 20
402.582265
 30
0.0
 10
197.546714
 20
402.495333
 30
0.0
 10
197.373295
 20
402.414331
 30
0.0
 10
197.197187
 20
402.339356
 30
0.0
 10
197.018598
 20
402.270497
 30
0.0
 10
196.837742
 20
402.207836
 30
0.0
 10
196.654834
 20
402.151447
 30
0.0
 10
196.470089
 20
402.101397
 30
0.0
 10
196.283729
 20
402.057746
 30
0.0
 10
196.095975
 20
402.020547
 30
0.0
 10
195.907050
 20
401.989841
 30
0.0
 10
195.717179
 20
401.965669
 30
0.0
 10
195.526587
 20
401.948055
 30
0.0
 10
195.335502
 20
401.937023
 30
0.0
 10
195.144150
 20
401.932585
 30
0.0
 10
194.952758
 20
401.934747
 30
0.0
 10
194.761865
 20
401.927945
 30
0.0
 10
194.570850
 20
401.927760
 30
0.0
 10
194.379945
 20
401.934192
 30
0.0
 10
194.189376
 20
401.947234
 30
0.0
 10
193.999374
 20
401.966870
 30
0.0
 10
193.810166
 20
401.993077
 30
0.0
 10
193.621979
 20
402.025822
 30
0.0
 10
193.435040
 20
402.065067
 30
0.0
 10
193.249573
 20
402.110765
 30
0.0
 10
193.065800
 20
402.162860
 30
0.0
 10
192.883942
 20
402.221291
 30
0.0
 10
192.704218
 20
402.285986
 30
0.0
 10
192.526842
 20
402.356869
 30
0.0
 10
192.352029
 20
402.433854
 30
0.0
 10
192.179987
 20
402.516849
 30
0.0
 10
192.010924
 20
402.605755
 30
0.0
 10
191.845043
 20
402.700464
 30
0.0
 10
191.682542
 20
402.800862
 30
0.0
 10
191.523617
 20
402.906830
 30
0.0
 10
191.368458
 20
403.018240
 30
0.0
 10
191.217251
 20
403.134958
 30
0.0
 10
191.070179
 20
403.256845
 30
0.0
 10
190.957278
 20
403.366505
 30
0.0
 10
190.848222
 20
403.479990
 30
0.0
 10
190.743139
 20
403.597165
 30
0.0
 10
190.642157
 20
403.717890
 30
0.0
 10
190.545393
 20
403.842023
 30
0.0
 10
190.452963
 20
403.969416
 30
0.0
 10
190.364978
 20
404.099917
 30
0.0
 10
190.281540
 20
404.233373
 30
0.0
 10
190.202750
 20
404.369623
 30
0.0
 10
190.128700
 20
404.508507
 30
0.0
 10
190.059479
 20
404.649861
 30
0.0
 10
189.995170
 20
404.793514
 30
0.0
 10
189.935847
 20
404.939298
 30
0.0
 10
189.881582
 20
405.087040
 30
0.0
 10
189.832440
 20
405.236562
 30
0.0
 10
189.788478
 20
405.387690
 30
0.0
 10
189.749748
 20
405.540242
 30
0.0
 10
189.716298
 20
405.694038
 30
0.0
 10
189.688165
 20
405.848895
 30
0.0
 10
189.665385
 20
406.004629
 30
0.0
 10
189.647983
 20
406.161057
 30
0.0
 10
189.635981
 20
406.317990
 30
0.0
 10
189.629392
 20
406.475244
 30
0.0
 10
189.628226
 20
406.632631
 30
0.0
 10
189.632482
 20
406.789965
 30
0.0
 10
189.630832
 20
406.974584
 30
0.0
 10
189.635582
 20
407.159149
 30
0.0
 10
189.646726
 20
407.343438
 30
0.0
 10
189.664249
 20
407.527231
 30
0.0
 10
189.688131
 20
407.710306
 30
0.0
 10
189.718343
 20
407.892444
 30
0.0
 10
189.754850
 20
408.073425
 30
0.0
 10
189.797606
 20
408.253031
 30
0.0
 10
189.846562
 20
408.431049
 30
0.0
 10
189.901657
 20
408.607262
 30
0.0
 10
189.962826
 20
408.781461
 30
0.0
 10
190.029994
 20
408.953435
 30
0.0
 10
190.103083
 20
409.122978
 30
0.0
 10
190.182003
 20
409.289887
 30
0.0
 10
190.266661
 20
409.453960
 30
0.0
 10
190.356954
 20
409.615000
 30
0.0
 10
190.452773
 20
409.772815
 30
0.0
 10
190.554003
 20
409.927214
 30
0.0
 10
190.660524
 20
410.078013
 30
0.0
 10
190.772207
 20
410.225029
 30
0.0
 10
190.888918
 20
410.368085
 30
0.0
 10
191.010516
 20
410.507013
 30
0.0
 10
191.136856
 20
410.641641
 30
0.0
 10
191.267786
 20
410.771812
 30
0.0
 10
191.403148
 20
410.897366
 30
0.0
 10
191.542780
 20
411.018153
 30
0.0
 10
191.686514
 20
411.134030
 30
0.0
 10
191.834178
 20
411.244855
 30
0.0
 10
191.985593
 20
411.350497
 30
0.0
 10
192.140579
 20
411.450827
 30
0.0
 10
192.298949
 20
411.545726
 30
0.0
 10
192.460512
 20
411.635080
 30
0.0
 10
192.625074
 20
411.718781
 30
0.0
 10
192.792439
 20
411.796729
 30
0.0
 10
192.962405
 20
411.868829
 30
0.0
 10
193.134767
 20
411.934997
 30
0.0
 10
193.309318
 20
411.995150
 30
0.0
 10
193.485850
 20
412.049219
 30
0.0
 10
193.664150
 20
412.097137
 30
0.0
 10
193.844002
 20
412.138848
 30
0.0
 10
194.025193
 20
412.174301
 30
0.0
 10
194.207502
 20
412.203453
 30
0.0
 10
194.390714
 20
412.226269
 30
0.0
 10
194.574605
 20
412.242722
 30
0.0
 10
194.758956
 20
412.252793
 30
0.0
 10
194.943546
 20
412.256469
 30
0.0
 10
195.128152
 20
412.253745
 30
0.0
 10
200.161421
 20
412.989865
 30
0.0
 10
200.187146
 20
413.106510
 30
0.0
 10
200.208821
 20
413.223975
 30
0.0
 10
200.226418
 20
413.342120
 30
0.0
 10
200.239917
 20
413.460802
 30
0.0
 10
200.249301
 20
413.579881
 30
0.0
 10
200.254560
 20
413.699213
 30
0.0
 10
200.255686
 20
413.818655
 30
0.0
 10
200.252680
 20
413.938065
 30
0.0
 10
200.245543
 20
414.057300
 30
0.0
 10
200.234286
 20
414.176216
 30
0.0
 10
200.218921
 20
414.294671
 30
0.0
 10
200.199466
 20
414.412524
 30
0.0
 10
200.175946
 20
414.529633
 30
0.0
 10
200.148388
 20
414.645859
 30
0.0
 10
200.116825
 20
414.761061
 30
0.0
 10
200.081294
 20
414.875102
 30
0.0
 10
200.041840
 20
414.987845
 30
0.0
 10
199.998508
 20
415.099157
 30
0.0
 10
199.951351
 20
415.208901
 30
0.0
 10
199.900425
 20
415.316949
 30
0.0
 10
199.845791
 20
415.423170
 30
0.0
 10
199.787514
 20
415.527437
 30
0.0
 10
199.725666
 20
415.629626
 30
0.0
 10
199.660318
 20
415.729613
 30
0.0
 10
199.591550
 20
415.827280
 30
0.0
 10
199.519444
 20
415.922509
 30
0.0
 10
199.444086
 20
416.015185
 30
0.0
 10
199.365566
 20
416.105199
 30
0.0
 10
199.283980
 20
416.192442
 30
0.0
 10
199.199423
 20
416.276810
 30
0.0
 10
199.111998
 20
416.358203
 30
0.0
 10
199.021810
 20
416.436521
 30
0.0
 10
198.928966
 20
416.511673
 30
0.0
 10
198.833577
 20
416.583566
 30
0.0
 10
198.735758
 20
416.652117
 30
0.0
 10
198.635625
 20
416.717241
 30
0.0
 10
198.533299
 20
416.778863
 30
0.0
 10
198.428902
 20
416.836907
 30
0.0
 10
198.322560
 20
416.891304
 30
0.0
 10
198.214398
 20
416.941989
 30
0.0
 10
198.104549
 20
416.988901
 30
0.0
 10
197.993142
 20
417.031985
 30
0.0
 10
197.880310
 20
417.071189
 30
0.0
 10
197.766190
 20
417.106465
 30
0.0
 10
197.650918
 20
417.137771
 30
0.0
 10
197.534632
 20
417.165070
 30
0.0
 10
197.417470
 20
417.188330
 30
0.0
 10
197.299574
 20
417.207522
 30
0.0
 10
197.181085
 20
417.222623
 30
0.0
 10
197.062144
 20
417.233616
 30
0.0
 10
196.942894
 20
417.240486
 30
0.0
 10
196.823478
 20
417.243227
 30
0.0
 10
196.704038
 20
417.241834
 30
0.0
 10
196.421970
 20
417.238601
 30
0.0
 10
196.140186
 20
417.225540
 30
0.0
 10
195.859030
 20
417.202665
 30
0.0
 10
195.578840
 20
417.170005
 30
0.0
 10
195.299960
 20
417.127600
 30
0.0
 10
195.022726
 20
417.075501
 30
0.0
 10
194.747478
 20
417.013770
 30
0.0
 10
194.474547
 20
416.942484
 30
0.0
 10
194.204267
 20
416.861729
 30
0.0
 10
193.936966
 20
416.771603
 30
0.0
 10
193.672968
 20
416.672216
 30
0.0
 10
193.412594
 20
416.563688
 30
0.0
 10
193.156162
 20
416.446151
 30
0.0
 10
192.903982
 20
416.319748
 30
0.0
 10
192.656360
 20
416.184633
 30
0.0
 10
192.413598
 20
416.040969
 30
0.0
 10
192.175990
 20
415.888932
 30
0.0
 10
191.943826
 20
415.728706
 30
0.0
 10
191.717387
 20
415.560485
 30
0.0
 10
191.496949
 20
415.384475
 30
0.0
 10
191.282778
 20
415.200889
 30
0.0
 10
191.282778
 20
417.922149
 30
0.0
  0
LWPOLYLINE
  5
11a
100
AcDbEntity
  8
Default
 62
7
100
AcDbPolyline
 90
82
 70
0
 10
196.044983
 20
410.244690
 30
0.0
 10
193.128397
 20
409.301284
 30
0.0
 10
193.057655
 20
409.238881
 30
0.0
 10
192.989113
 20
409.174072
 30
0.0
 10
192.922852
 20
409.106931
 30
0.0
 10
192.858951
 20
409.037540
 30
0.0
 10
192.797488
 20
408.965981
 30
0.0
 10
192.738535
 20
408.892341
 30
0.0
 10
192.682162
 20
408.816707
 30
0.0
 10
192.628438
 20
408.739169
 30
0.0
 10
192.577427
 20
408.659820
 30
0.0
 10
192.529190
 20
408.578755
 30
0.0
 10
192.483782
 20
408.496072
 30
0.0
 10
192.441261
 20
408.411868
 30
0.0
 10
192.401676
 20
408.326244
 30
0.0
 10
192.365074
 20
408.239303
 30
0.0
 10
192.331499
 20
408.151149
 30
0.0
 10
192.300993
 20
408.061887
 30
0.0
 10
192.273590
 20
407.971624
 30
0.0
 10
192.249323
 20
407.880467
 30
0.0
 10
192.228222
 20
407.788526
 30
0.0
 10
192.210312
 20
407.695911
 30
0.0
 10
192.195614
 20
407.602732
 30
0.0
 10
192.184146
 20
407.509100
 30
0.0
 10
192.175922
 20
407.415128
 30
0.0
 10
192.170952
 20
407.320928
 30
0.0
 10
192.169240
 20
407.226612
 30
0.0
 10
192.170790
 20
407.132293
 30
0.0
 10
192.175599
 20
407.038085
 30
0.0
 10
192.183662
 20
406.944099
 30
0.0
 10
193.088535
 20
404.916441
 30
0.0
 10
195.468309
 20
404.145771
 30
0.0
 10
195.619318
 20
404.144448
 30
0.0
 10
195.770282
 20
404.148336
 30
0.0
 10
195.921022
 20
404.157429
 30
0.0
 10
196.071358
 20
404.171718
 30
0.0
 10
196.221113
 20
404.191185
 30
0.0
 10
196.370106
 20
404.215807
 30
0.0
 10
196.518162
 20
404.245554
 30
0.0
 10
196.665102
 20
404.280392
 30
0.0
 10
196.810754
 20
404.320278
 30
0.0
 10
196.954943
 20
404.365166
 30
0.0
 10
197.097498
 20
404.415001
 30
0.0
 10
197.238247
 20
404.469725
 30
0.0
 10
197.377026
 20
404.529272
 30
0.0
 10
197.513667
 20
404.593571
 30
0.0
 10
197.648009
 20
404.662546
 30
0.0
 10
197.779891
 20
404.736116
 30
0.0
 10
197.909157
 20
404.814190
 30
0.0
 10
198.035652
 20
404.896679
 30
0.0
 10
198.159226
 20
404.983482
 30
0.0
 10
198.279731
 20
405.074497
 30
0.0
 10
198.397026
 20
405.169615
 30
0.0
 10
198.510968
 20
405.268723
 30
0.0
 10
198.621423
 20
405.371703
 30
0.0
 10
198.728260
 20
405.478433
 30
0.0
 10
198.831351
 20
405.588784
 30
0.0
 10
198.944752
 20
405.718069
 30
0.0
 10
199.053764
 20
405.851077
 30
0.0
 10
199.158265
 20
405.987657
 30
0.0
 10
199.258137
 20
406.127658
 30
0.0
 10
199.353269
 20
406.270921
 30
0.0
 10
199.443554
 20
406.417288
 30
0.0
 10
199.528891
 20
406.566593
 30
0.0
 10
199.609185
 20
406.718671
 30
0.0
 10
199.684346
 20
406.873349
 30
0.0
 10
199.754289
 20
407.030457
 30
0.0
 10
199.818936
 20
407.189815
 30
0.0
 10
199.878214
 20
407.351248
 30
0.0
 10
199.932059
 20
407.514574
 30
0.0
 10
199.980408
 20
407.679610
 30
0.0
 10
200.023209
 20
407.846172
 30
0.0
 10
200.060412
 20
408.014072
 30
0.0
 10
200.091977
 20
408.183123
 30
0.0
 10
200.117868
 20
408.353135
 30
0.0
 10
200.138055
 20
408.523919
 30
0.0
 10
200.152518
 20
408.695282
 30
0.0
 10
200.161238
 20
408.867033
 30
0.0
 10
200.164207
 20
409.038981
 30
0.0
 10
200.161421
 20
409.210930
 30
0.0
 10
200.161421
 20
410.778842
 30
0.0
 10
196.044983
 20
410.244690
 30
0.0
  0
LWPOLYLINE
  5
11b
100
AcDbEntity
  8
Default
 62
7
100
AcDbPolyline
 90
167
 70
0
 10
210.382088
 20
404.804829
 30
0.0
 10
210.382088
 20
402.274905
 30
0.0
 10
207.830906
 20
402.274905
 30
0.0
 10
207.830906
 20
427.276480
 30
0.0
 10
210.382088
 20
427.276480
 30
0.0
 10
210.382088
 20
416.085830
 30
0.0
 10
210.445868
 20
416.085830
 30
0.0
 10
210.553135
 20
416.278881
 30
0.0
 10
210.667037
 20
416.468093
 30
0.0
 10
210.787435
 20
416.653239
 30
0.0
 10
210.914186
 20
416.834096
 30
0.0
 10
211.047135
 20
417.010445
 30
0.0
 10
211.186124
 20
417.182075
 30
0.0
 10
211.330985
 20
417.348778
 30
0.0
 10
211.481542
 20
417.510355
 30
0.0
 10
211.637616
 20
417.666610
 30
0.0
 10
211.799018
 20
417.817356
 30
0.0
 10
211.965554
 20
417.962410
 30
0.0
 10
212.137022
 20
418.101597
 30
0.0
 10
212.313217
 20
418.234752
 30
0.0
 10
212.493926
 20
418.361712
 30
0.0
 10
212.678932
 20
418.482325
 30
0.0
 10
212.868012
 20
418.596446
 30
0.0
 10
213.060938
 20
418.703937
 30
0.0
 10
213.257477
 20
418.804669
 30
0.0
 10
213.457394
 20
418.898521
 30
0.0
 10
213.660446
 20
418.985379
 30
0.0
 10
213.866390
 20
419.065139
 30
0.0
 10
214.074978
 20
419.137705
 30
0.0
 10
214.285959
 20
419.202989
 30
0.0
 10
214.499078
 20
419.260913
 30
0.0
 10
214.714078
 20
419.311406
 30
0.0
 10
214.930701
 20
419.354409
 30
0.0
 10
215.148686
 20
419.389869
 30
0.0
 10
215.367770
 20
419.417745
 30
0.0
 10
215.587688
 20
419.438001
 30
0.0
 10
215.808178
 20
419.450613
 30
0.0
 10
216.028972
 20
419.455568
 30
0.0
 10
216.249806
 20
419.452857
 30
0.0
 10
216.461971
 20
419.458701
 30
0.0
 10
216.674213
 20
419.457238
 30
0.0
 10
216.886278
 20
419.448472
 30
0.0
 10
217.097915
 20
419.432412
 30
0.0
 10
217.308874
 20
419.409077
 30
0.0
 10
217.518906
 20
419.378496
 30
0.0
 10
217.727760
 20
419.340703
 30
0.0
 10
217.935190
 20
419.295745
 30
0.0
 10
218.140950
 20
419.243675
 30
0.0
 10
218.344796
 20
419.184553
 30
0.0
 10
218.546486
 20
419.118452
 30
0.0
 10
218.745782
 20
419.045447
 30
0.0
 10
218.942446
 20
418.965626
 30
0.0
 10
219.136248
 20
418.879084
 30
0.0
 10
219.326955
 20
418.785923
 30
0.0
 10
219.514344
 20
418.686254
 30
0.0
 10
219.698191
 20
418.580194
 30
0.0
 10
219.878278
 20
418.467869
 30
0.0
 10
220.054394
 20
418.349413
 30
0.0
 10
220.226328
 20
418.224966
 30
0.0
 10
220.393877
 20
418.094675
 30
0.0
 10
220.556842
 20
417.958694
 30
0.0
 10
220.715031
 20
417.817185
 30
0.0
 10
220.868255
 20
417.670316
 30
0.0
 10
221.016334
 20
417.518260
 30
0.0
 10
221.159092
 20
417.361197
 30
0.0
 10
221.296360
 20
417.199315
 30
0.0
 10
221.484882
 20
416.939776
 30
0.0
 10
221.664251
 20
416.673829
 30
0.0
 10
221.834250
 20
416.401796
 30
0.0
 10
221.994670
 20
416.124008
 30
0.0
 10
222.145319
 20
415.840801
 30
0.0
 10
222.286014
 20
415.552520
 30
0.0
 10
222.416583
 20
415.259513
 30
0.0
 10
222.536869
 20
414.962137
 30
0.0
 10
222.646726
 20
414.660752
 30
0.0
 10
222.746018
 20
414.355724
 30
0.0
 10
222.834628
 20
414.047423
 30
0.0
 10
222.912447
 20
413.736223
 30
0.0
 10
222.979381
 20
413.422502
 30
0.0
 10
223.035348
 20
413.106640
 30
0.0
 10
223.080281
 20
412.789021
 30
0.0
 10
223.114125
 20
412.470029
 30
0.0
 10
223.136839
 20
412.150052
 30
0.0
 10
223.148395
 20
411.829477
 30
0.0
 10
223.148781
 20
411.508696
 30
0.0
 10
223.137994
 20
411.188095
 30
0.0
 10
223.150349
 20
410.845177
 30
0.0
 10
223.151203
 20
410.502038
 30
0.0
 10
223.140554
 20
410.159063
 30
0.0
 10
223.118416
 20
409.816637
 30
0.0
 10
223.084811
 20
409.475147
 30
0.0
 10
223.039779
 20
409.134974
 30
0.0
 10
222.983370
 20
408.796503
 30
0.0
 10
222.915646
 20
408.460112
 30
0.0
 10
222.836685
 20
408.126181
 30
0.0
 10
222.746575
 20
407.795083
 30
0.0
 10
222.645418
 20
407.467193
 30
0.0
 10
222.533326
 20
407.142877
 30
0.0
 10
222.410426
 20
406.822501
 30
0.0
 10
222.276856
 20
406.506424
 30
0.0
 10
222.132766
 20
406.195002
 30
0.0
 10
221.978319
 20
405.888585
 30
0.0
 10
221.813688
 20
405.587518
 30
0.0
 10
221.639057
 20
405.292138
 30
0.0
 10
221.454623
 20
405.002777
 30
0.0
 10
221.260594
 20
404.719762
 30
0.0
 10
221.057187
 20
404.443409
 30
0.0
 10
220.905380
 20
404.264606
 30
0.0
 10
220.747558
 20
404.091090
 30
0.0
 10
220.583905
 20
403.923063
 30
0.0
 10
220.414610
 20
403.760720
 30
0.0
 10
220.239873
 20
403.604252
 30
0.0
 10
220.059895
 20
403.453839
 30
0.0
 10
219.874888
 20
403.309659
 30
0.0
 10
219.685066
 20
403.171878
 30
0.0
 10
219.490652
 20
403.040657
 30
0.0
 10
219.291871
 20
402.916151
 30
0.0
 10
219.088956
 20
402.798502
 30
0.0
 10
218.882142
 20
402.687850
 30
0.0
 10
218.671672
 20
402.584322
 30
0.0
 10
218.457790
 20
402.488040
 30
0.0
 10
218.240746
 20
402.399115
 30
0.0
 10
218.020794
 20
402.317651
 30
0.0
 10
217.798187
 20
402.243744
 30
0.0
 10
217.573188
 20
402.177479
 30
0.0
 10
217.346058
 20
402.118933
 30
0.0
 10
217.117061
 20
402.068177
 30
0.0
 10
216.886466
 20
402.025266
 30
0.0
 10
216.654539
 20
401.990253
 30
0.0
 10
216.421553
 20
401.963177
 30
0.0
 10
216.187778
 20
401.944072
 30
0.0
 10
215.953487
 20
401.932957
 30
0.0
 10
215.718953
 20
401.929849
 30
0.0
 10
215.484450
 20
401.934747
 30
0.0
 10
215.293746
 20
401.931559
 30
0.0
 10
215.103046
 20
401.934947
 30
0.0
 10
214.912575
 20
401.944908
 30
0.0
 10
214.722562
 20
401.961429
 30
0.0
 10
214.533231
 20
401.984493
 30
0.0
 10
214.344807
 20
402.014070
 30
0.0
 10
214.157516
 20
402.050125
 30
0.0
 10
213.971579
 20
402.092617
 30
0.0
 10
213.787218
 20
402.141494
 30
0.0
 10
213.604650
 20
402.196698
 30
0.0
 10
213.424095
 20
402.258164
 30
0.0
 10
213.245767
 20
402.325818
 30
0.0
 10
213.069877
 20
402.399581
 30
0.0
 10
212.896634
 20
402.479363
 30
0.0
 10
212.726246
 20
402.565071
 30
0.0
 10
212.558914
 20
402.656602
 30
0.0
 10
212.394837
 20
402.753849
 30
0.0
 10
212.234210
 20
402.856694
 30
0.0
 10
212.077224
 20
402.965016
 30
0.0
 10
211.924066
 20
403.078686
 30
0.0
 10
211.774919
 20
403.197569
 30
0.0
 10
211.629959
 20
403.321524
 30
0.0
 10
211.489359
 20
403.450402
 30
0.0
 10
211.353286
 20
403.584052
 30
0.0
 10
211.221901
 20
403.722313
 30
0.0
 10
211.095362
 20
403.865022
 30
0.0
 10
210.973817
 20
404.012009
 30
0.0
 10
210.857413
 20
404.163099
 30
0.0
 10
210.746287
 20
404.318113
 30
0.0
 10
210.640571
 20
404.476865
 30
0.0
 10
210.540392
 20
404.639168
 30
0.0
 10
210.445868
 20
404.804829
 30
0.0
 10
210.382088
 20
404.804829
 30
0.0
  0
LWPOLYLINE
  5
11c
100
AcDbEntity
  8
Default
 62
7
100
AcDbPolyline
 90
192
 70
0
 10
210.382088
 20
409.141835
 30
0.0
 10
210.381561
 20
408.971984
 30
0.0
 10
210.386895
 20
408.802215
 30
0.0
 10
210.398085
 20
408.632732
 30
0.0
 10
210.415116
 20
408.463736
 30
0.0
 10
210.437969
 20
408.295428
 30
0.0
 10
210.466615
 20
408.128009
 30
0.0
 10
210.501022
 20
407.961678
 30
0.0
 10
210.541148
 20
407.796633
 30
0.0
 10
210.586946
 20
407.633072
 30
0.0
 10
210.638359
 20
407.471189
 30
0.0
 10
210.695329
 20
407.311175
 30
0.0
 10
210.757786
 20
407.153223
 30
0.0
 10
210.825657
 20
406.997520
 30
0.0
 10
210.898860
 20
406.844252
 30
0.0
 10
210.977308
 20
406.693601
 30
0.0
 10
211.060908
 20
406.545747
 30
0.0
 10
211.149560
 20
406.400866
 30
0.0
 10
211.243159
 20
406.259130
 30
0.0
 10
211.341593
 20
406.120709
 30
0.0
 10
211.444745
 20
405.985766
 30
0.0
 10
211.552491
 20
405.854464
 30
0.0
 10
211.664705
 20
405.726957
 30
0.0
 10
211.781252
 20
405.603399
 30
0.0
 10
211.890181
 20
405.491669
 30
0.0
 10
212.002801
 20
405.383661
 30
0.0
 10
212.118984
 20
405.279495
 30
0.0
 10
212.238600
 20
405.179289
 30
0.0
 10
212.361514
 20
405.083157
 30
0.0
 10
212.487586
 20
404.991207
 30
0.0
 10
212.616676
 20
404.903542
 30
0.0
 10
212.748636
 20
404.820262
 30
0.0
 10
212.883318
 20
404.741461
 30
0.0
 10
213.020571
 20
404.667226
 30
0.0
 10
213.160240
 20
404.597643
 30
0.0
 10
213.302166
 20
404.532789
 30
0.0
 10
213.446190
 20
404.472737
 30
0.0
 10
213.592150
 20
404.417557
 30
0.0
 10
213.739881
 20
404.367309
 30
0.0
 10
213.889215
 20
404.322050
 30
0.0
 10
214.039985
 20
404.281832
 30
0.0
 10
214.192021
 20
404.246700
 30
0.0
 10
214.345150
 20
404.216693
 30
0.0
 10
214.499202
 20
404.191845
 30
0.0
 10
214.654000
 20
404.172185
 30
0.0
 10
214.809371
 20
404.157733
 30
0.0
 10
214.965141
 20
404.148509
 30
0.0
 10
215.121131
 20
404.144519
 30
0.0
 10
215.277169
 20
404.145771
 30
0.0
 10
215.437789
 20
404.142273
 30
0.0
 10
215.598434
 20
404.144373
 30
0.0
 10
215.758908
 20
404.152069
 30
0.0
 10
215.919016
 20
404.165351
 30
0.0
 10
216.078565
 20
404.184203
 30
0.0
 10
216.237359
 20
404.208603
 30
0.0
 10
216.395208
 20
404.238520
 30
0.0
 10
216.551918
 20
404.273918
 30
0.0
 10
216.707300
 20
404.314755
 30
0.0
 10
216.861165
 20
404.360981
 30
0.0
 10
217.013326
 20
404.412538
 30
0.0
 10
217.163598
 20
404.469366
 30
0.0
 10
217.311798
 20
404.531395
 30
0.0
 10
217.457749
 20
404.598549
 30
0.0
 10
217.601270
 20
404.670749
 30
0.0
 10
217.742190
 20
404.747904
 30
0.0
 10
217.880335
 20
404.829921
 30
0.0
 10
218.015539
 20
404.916703
 30
0.0
 10
218.147638
 20
405.008142
 30
0.0
 10
218.276470
 20
405.104128
 30
0.0
 10
218.401881
 20
405.204544
 30
0.0
 10
218.523716
 20
405.309269
 30
0.0
 10
218.641830
 20
405.418174
 30
0.0
 10
218.756077
 20
405.531129
 30
0.0
 10
218.866319
 20
405.647995
 30
0.0
 10
218.972422
 20
405.768631
 30
0.0
 10
219.074259
 20
405.892891
 30
0.0
 10
219.171705
 20
406.020624
 30
0.0
 10
219.328562
 20
406.265001
 30
0.0
 10
219.477006
 20
406.514581
 30
0.0
 10
219.616864
 20
406.769070
 30
0.0
 10
219.747974
 20
407.028175
 30
0.0
 10
219.870183
 20
407.291596
 30
0.0
 10
219.983350
 20
407.559025
 30
0.0
 10
220.087343
 20
407.830153
 30
0.0
 10
220.182042
 20
408.104666
 30
0.0
 10
220.267337
 20
408.382245
 30
0.0
 10
220.343128
 20
408.662568
 30
0.0
 10
220.409329
 20
408.945309
 30
0.0
 10
220.465862
 20
409.230141
 30
0.0
 10
220.512661
 20
409.516733
 30
0.0
 10
220.549673
 20
409.804753
 30
0.0
 10
220.576854
 20
410.093865
 30
0.0
 10
220.594173
 20
410.383737
 30
0.0
 10
220.601609
 20
410.674029
 30
0.0
 10
220.599154
 20
410.964407
 30
0.0
 10
220.586812
 20
411.254533
 30
0.0
 10
220.595470
 20
411.476941
 30
0.0
 10
220.596675
 20
411.699513
 30
0.0
 10
220.590429
 20
411.922001
 30
0.0
 10
220.576737
 20
412.144155
 30
0.0
 10
220.555615
 20
412.365726
 30
0.0
 10
220.527086
 20
412.586466
 30
0.0
 10
220.491184
 20
412.806128
 30
0.0
 10
220.447947
 20
413.024463
 30
0.0
 10
220.397424
 20
413.241229
 30
0.0
 10
220.339673
 20
413.456182
 30
0.0
 10
220.274756
 20
413.669081
 30
0.0
 10
220.202749
 20
413.879687
 30
0.0
 10
220.123730
 20
414.087764
 30
0.0
 10
220.037790
 20
414.293079
 30
0.0
 10
219.945024
 20
414.495401
 30
0.0
 10
219.845535
 20
414.694505
 30
0.0
 10
219.739437
 20
414.890165
 30
0.0
 10
219.626847
 20
415.082164
 30
0.0
 10
219.507893
 20
415.270286
 30
0.0
 10
219.382706
 20
415.454319
 30
0.0
 10
219.251429
 20
415.634058
 30
0.0
 10
219.154518
 20
415.748423
 30
0.0
 10
219.053762
 20
415.859415
 30
0.0
 10
218.949279
 20
415.966905
 30
0.0
 10
218.841189
 20
416.070768
 30
0.0
 10
218.729618
 20
416.170883
 30
0.0
 10
218.614698
 20
416.267133
 30
0.0
 10
218.496560
 20
416.359406
 30
0.0
 10
218.375343
 20
416.447596
 30
0.0
 10
218.251189
 20
416.531599
 30
0.0
 10
218.124240
 20
416.611317
 30
0.0
 10
217.994646
 20
416.686658
 30
0.0
 10
217.862557
 20
416.757534
 30
0.0
 10
217.728126
 20
416.823862
 30
0.0
 10
217.591512
 20
416.885566
 30
0.0
 10
217.452871
 20
416.942573
 30
0.0
 10
217.312367
 20
416.994817
 30
0.0
 10
217.170162
 20
417.042237
 30
0.0
 10
217.026422
 20
417.084778
 30
0.0
 10
216.881314
 20
417.122390
 30
0.0
 10
216.735009
 20
417.155031
 30
0.0
 10
216.587674
 20
417.182661
 30
0.0
 10
216.439482
 20
417.205248
 30
0.0
 10
216.290606
 20
417.222767
 30
0.0
 10
216.141219
 20
417.235196
 30
0.0
 10
215.991496
 20
417.242521
 30
0.0
 10
215.841609
 20
417.244735
 30
0.0
 10
215.691734
 20
417.241834
 30
0.0
 10
215.520016
 20
417.244112
 30
0.0
 10
215.348322
 20
417.240405
 30
0.0
 10
215.176862
 20
417.230720
 30
0.0
 10
215.005844
 20
417.215066
 30
0.0
 10
214.835474
 20
417.193465
 30
0.0
 10
214.665962
 20
417.165940
 30
0.0
 10
214.497510
 20
417.132527
 30
0.0
 10
214.330325
 20
417.093265
 30
0.0
 10
214.164609
 20
417.048202
 30
0.0
 10
214.000563
 20
416.997393
 30
0.0
 10
213.838388
 20
416.940901
 30
0.0
 10
213.678279
 20
416.878792
 30
0.0
 10
213.520431
 20
416.811143
 30
0.0
 10
213.365036
 20
416.738036
 30
0.0
 10
213.212282
 20
416.659559
 30
0.0
 10
213.062355
 20
416.575808
 30
0.0
 10
212.915437
 20
416.486885
 30
0.0
 10
212.771706
 20
416.392897
 30
0.0
 10
212.631336
 20
416.293958
 30
0.0
 10
212.494499
 20
416.190189
 30
0.0
 10
212.361360
 20
416.081717
 30
0.0
 10
212.232081
 20
415.968671
 30
0.0
 10
212.106819
 20
415.851190
 30
0.0
 10
211.985726
 20
415.729417
 30
0.0
 10
211.868949
 20
415.603498
 30
0.0
 10
211.736400
 20
415.449667
 30
0.0
 10
211.609250
 20
415.291342
 30
0.0
 10
211.487654
 20
415.128715
 30
0.0
 10
211.371755
 20
414.961979
 30
0.0
 10
211.261693
 20
414.791333
 30
0.0
 10
211.157599
 20
414.616984
 30
0.0
 10
211.059598
 20
414.439137
 30
0.0
 10
210.967807
 20
414.258009
 30
0.0
 10
210.882336
 20
414.073813
 30
0.0
 10
210.803287
 20
413.886770
 30
0.0
 10
210.730756
 20
413.697106
 30
0.0
 10
210.664827
 20
413.505046
 30
0.0
 10
210.605582
 20
413.310821
 30
0.0
 10
210.553090
 20
413.114663
 30
0.0
 10
210.507414
 20
412.916807
 30
0.0
 10
210.468609
 20
412.717489
 30
0.0
 10
210.436722
 20
412.516948
 30
0.0
 10
210.411789
 20
412.315425
 30
0.0
 10
210.393842
 20
412.113159
 30
0.0
 10
210.382903
 20
411.910393
 30
0.0
 10
210.378983
 20
411.707371
 30
0.0
 10
210.382088
 20
411.504335
 30
0.0
 10
210.382088
 20
409.141835
 30
0.0
  0
LWPOLYLINE
  5
11d
100
AcDbEntity
  8
Default
 62
7
100
AcDbPolyline
 90
9
 70
0
 10
257.663978
 20
402.274905
 30
0.0
 10
254.772639
 20
402.274905
 30
0.0
 10
252.194886
 20
408.907976
 30
0.0
 10
242.035336
 20
408.907976
 30
0.0
 10
239.635631
 20
402.274905
 30
0.0
 10
236.744293
 20
402.274905
 30
0.0
 10
245.928545
 20
425.915849
 30
0.0
 10
248.479726
 20
425.915849
 30
0.0
 10
257.663978
 20
402.274905
 30
0.0
  0
LWPOLYLINE
  5
11e
100
AcDbEntity
  8
Default
 62
7
100
AcDbPolyline
 90
7
 70
0
 10
251.323231
 20
411.289078
 30
0.0
 10
247.557582
 20
421.618706
 30
0.0
 10
247.204136
 20
423.194590
 30
0.0
 10
247.124410
 20
423.194590
 30
0.0
 10
246.739078
 20
421.618706
 30
0.0
 10
243.005318
 20
411.289078
 30
0.0
 10
251.323231
 20
411.289078
 30
0.0
  0
LWPOLYLINE
  5
11f
100
AcDbEntity
  8
Default
 62
7
100
AcDbPolyline
 90
247
 70
0
 10
272.290750
 20
403.125298
 30
0.0
 10
272.029411
 20
402.978876
 30
0.0
 10
271.763220
 20
402.841473
 30
0.0
 10
271.492487
 20
402.713252
 30
0.0
 10
271.217529
 20
402.594361
 30
0.0
 10
270.938666
 20
402.484941
 30
0.0
 10
270.656226
 20
402.385118
 30
0.0
 10
270.370538
 20
402.295010
 30
0.0
 10
270.081936
 20
402.214722
 30
0.0
 10
269.790758
 20
402.144348
 30
0.0
 10
269.497344
 20
402.083970
 30
0.0
 10
269.202038
 20
402.033659
 30
0.0
 10
268.905183
 20
401.993473
 30
0.0
 10
268.607129
 20
401.963460
 30
0.0
 10
268.308222
 20
401.943655
 30
0.0
 10
268.008814
 20
401.934080
 30
0.0
 10
267.709254
 20
401.934747
 30
0.0
 10
267.442998
 20
401.929568
 30
0.0
 10
267.176722
 20
401.933599
 30
0.0
 10
266.910746
 20
401.946834
 30
0.0
 10
266.645386
 20
401.969259
 30
0.0
 10
266.380960
 20
402.000846
 30
0.0
 10
266.117785
 20
402.041557
 30
0.0
 10
265.856174
 20
402.091345
 30
0.0
 10
265.596442
 20
402.150149
 30
0.0
 10
265.338898
 20
402.217898
 30
0.0
 10
265.083851
 20
402.294513
 30
0.0
 10
264.831606
 20
402.379901
 30
0.0
 10
264.582464
 20
402.473960
 30
0.0
 10
264.336724
 20
402.576577
 30
0.0
 10
264.094678
 20
402.687631
 30
0.0
 10
263.856618
 20
402.806988
 30
0.0
 10
263.622828
 20
402.934505
 30
0.0
 10
263.393586
 20
403.070030
 30
0.0
 10
263.169168
 20
403.213401
 30
0.0
 10
262.949841
 20
403.364446
 30
0.0
 10
262.735869
 20
403.522985
 30
0.0
 10
262.527506
 20
403.688828
 30
0.0
 10
262.325002
 20
403.861776
 30
0.0
 10
262.128601
 20
404.041623
 30
0.0
 10
261.938535
 20
404.228154
 30
0.0
 10
261.744880
 20
404.443124
 30
0.0
 10
261.558793
 20
404.664677
 30
0.0
 10
261.380498
 20
404.892548
 30
0.0
 10
261.210208
 20
405.126462
 30
0.0
 10
261.048129
 20
405.366138
 30
0.0
 10
260.894456
 20
405.611289
 30
0.0
 10
260.749373
 20
405.861619
 30
0.0
 10
260.613054
 20
406.116828
 30
0.0
 10
260.485664
 20
406.376609
 30
0.0
 10
260.367355
 20
406.640649
 30
0.0
 10
260.258270
 20
406.908632
 30
0.0
 10
260.158540
 20
407.180235
 30
0.0
 10
260.068285
 20
407.455131
 30
0.0
 10
259.987612
 20
407.732992
 30
0.0
 10
259.916620
 20
408.013481
 30
0.0
 10
259.855394
 20
408.296263
 30
0.0
 10
259.804006
 20
408.580997
 30
0.0
 10
259.762518
 20
408.867341
 30
0.0
 10
259.730982
 20
409.154952
 30
0.0
 10
259.709435
 20
409.443483
 30
0.0
 10
259.697902
 20
409.732587
 30
0.0
 10
259.696397
 20
410.021917
 30
0.0
 10
259.704922
 20
410.311126
 30
0.0
 10
259.694830
 20
410.625789
 30
0.0
 10
259.695443
 20
410.940613
 30
0.0
 10
259.706765
 20
411.255234
 30
0.0
 10
259.728779
 20
411.569289
 30
0.0
 10
259.761462
 20
411.882413
 30
0.0
 10
259.804774
 20
412.194244
 30
0.0
 10
259.858668
 20
412.504421
 30
0.0
 10
259.923078
 20
412.812586
 30
0.0
 10
259.997933
 20
413.118383
 30
0.0
 10
260.083144
 20
413.421457
 30
0.0
 10
260.178613
 20
413.721457
 30
0.0
 10
260.284230
 20
414.018037
 30
0.0
 10
260.399872
 20
414.310854
 30
0.0
 10
260.525406
 20
414.599569
 30
0.0
 10
260.660686
 20
414.883846
 30
0.0
 10
260.805556
 20
415.163359
 30
0.0
 10
260.959848
 20
415.437783
 30
0.0
 10
261.123385
 20
415.706801
 30
0.0
 10
261.295975
 20
415.970101
 30
0.0
 10
261.477421
 20
416.227379
 30
0.0
 10
261.667512
 20
416.478337
 30
0.0
 10
261.866027
 20
416.722686
 30
0.0
 10
262.072738
 20
416.960142
 30
0.0
 10
262.272238
 20
417.157226
 30
0.0
 10
262.478264
 20
417.347478
 30
0.0
 10
262.690582
 20
417.530682
 30
0.0
 10
262.908950
 20
417.706629
 30
0.0
 10
263.133122
 20
417.875121
 30
0.0
 10
263.362842
 20
418.035966
 30
0.0
 10
263.597850
 20
418.188981
 30
0.0
 10
263.837879
 20
418.333993
 30
0.0
 10
264.082658
 20
418.470836
 30
0.0
 10
264.331906
 20
418.599356
 30
0.0
 10
264.585343
 20
418.719407
 30
0.0
 10
264.842680
 20
418.830853
 30
0.0
 10
265.103625
 20
418.933566
 30
0.0
 10
265.367882
 20
419.027431
 30
0.0
 10
265.635150
 20
419.112341
 30
0.0
 10
265.905128
 20
419.188200
 30
0.0
 10
266.177508
 20
419.254921
 30
0.0
 10
266.451981
 20
419.312428
 30
0.0
 10
266.728235
 20
419.360657
 30
0.0
 10
267.005957
 20
419.399552
 30
0.0
 10
267.284831
 20
419.429070
 30
0.0
 10
267.564542
 20
419.449177
 30
0.0
 10
267.844772
 20
419.459850
 30
0.0
 10
268.125202
 20
419.461077
 30
0.0
 10
268.405514
 20
419.452857
 30
0.0
 10
272.290750
 20
418.602464
 30
0.0
 10
272.290750
 20
415.881204
 30
0.0
 10
272.105739
 20
416.014938
 30
0.0
 10
271.916358
 20
416.142408
 30
0.0
 10
271.722819
 20
416.263469
 30
0.0
 10
271.525337
 20
416.377986
 30
0.0
 10
271.324134
 20
416.485833
 30
0.0
 10
271.119434
 20
416.586886
 30
0.0
 10
270.911469
 20
416.681033
 30
0.0
 10
270.700470
 20
416.768170
 30
0.0
 10
270.486673
 20
416.848198
 30
0.0
 10
270.270318
 20
416.921027
 30
0.0
 10
270.051648
 20
416.986577
 30
0.0
 10
269.830907
 20
417.044773
 30
0.0
 10
269.608342
 20
417.095551
 30
0.0
 10
269.384203
 20
417.138853
 30
0.0
 10
269.158740
 20
417.174632
 30
0.0
 10
268.932207
 20
417.202847
 30
0.0
 10
268.704856
 20
417.223466
 30
0.0
 10
268.476943
 20
417.236466
 30
0.0
 10
268.248722
 20
417.241834
 30
0.0
 10
268.056076
 20
417.243528
 30
0.0
 10
267.863485
 20
417.238593
 30
0.0
 10
267.671178
 20
417.227033
 30
0.0
 10
267.479383
 20
417.208864
 30
0.0
 10
267.288326
 20
417.184106
 30
0.0
 10
267.098235
 20
417.152789
 30
0.0
 10
266.909334
 20
417.114950
 30
0.0
 10
266.721846
 20
417.070634
 30
0.0
 10
266.535994
 20
417.019893
 30
0.0
 10
266.351998
 20
416.962788
 30
0.0
 10
266.170076
 20
416.899385
 30
0.0
 10
265.990443
 20
416.829760
 30
0.0
 10
265.813313
 20
416.753996
 30
0.0
 10
265.638894
 20
416.672181
 30
0.0
 10
265.467393
 20
416.584414
 30
0.0
 10
265.299014
 20
416.490798
 30
0.0
 10
265.133955
 20
416.391444
 30
0.0
 10
264.972413
 20
416.286469
 30
0.0
 10
264.814578
 20
416.175998
 30
0.0
 10
264.660638
 20
416.060162
 30
0.0
 10
264.510775
 20
415.939097
 30
0.0
 10
264.365166
 20
415.812949
 30
0.0
 10
264.223984
 20
415.681864
 30
0.0
 10
264.087396
 20
415.546000
 30
0.0
 10
263.955563
 20
415.405516
 30
0.0
 10
263.800251
 20
415.221777
 30
0.0
 10
263.651444
 20
415.032732
 30
0.0
 10
263.509324
 20
414.838610
 30
0.0
 10
263.374062
 20
414.639648
 30
0.0
 10
263.245825
 20
414.436088
 30
0.0
 10
263.124768
 20
414.228177
 30
0.0
 10
263.011038
 20
414.016169
 30
0.0
 10
262.904774
 20
413.800323
 30
0.0
 10
262.806106
 20
413.580901
 30
0.0
 10
262.715154
 20
413.358169
 30
0.0
 10
262.632028
 20
413.132400
 30
0.0
 10
262.556830
 20
412.903868
 30
0.0
 10
262.489650
 20
412.672852
 30
0.0
 10
262.430571
 20
412.439632
 30
0.0
 10
262.379666
 20
412.204493
 30
0.0
 10
262.336995
 20
411.967721
 30
0.0
 10
262.302611
 20
411.729605
 30
0.0
 10
262.276556
 20
411.490434
 30
0.0
 10
262.258861
 20
411.250500
 30
0.0
 10
262.249548
 20
411.010094
 30
0.0
 10
262.248629
 20
410.769510
 30
0.0
 10
262.256103
 20
410.529040
 30
0.0
 10
262.248581
 20
410.301383
 30
0.0
 10
262.248796
 20
410.073601
 30
0.0
 10
262.256750
 20
409.845958
 30
0.0
 10
262.272431
 20
409.618717
 30
0.0
 10
262.295822
 20
409.392140
 30
0.0
 10
262.326898
 20
409.166488
 30
0.0
 10
262.365621
 20
408.942021
 30
0.0
 10
262.411946
 20
408.719001
 30
0.0
 10
262.465822
 20
408.497681
 30
0.0
 10
262.527183
 20
408.278321
 30
0.0
 10
262.595962
 20
408.061171
 30
0.0
 10
262.672078
 20
407.846483
 30
0.0
 10
262.755442
 20
407.634505
 30
0.0
 10
262.845959
 20
407.425480
 30
0.0
 10
262.943525
 20
407.219651
 30
0.0
 10
263.048026
 20
407.017256
 30
0.0
 10
263.159342
 20
406.818527
 30
0.0
 10
263.277346
 20
406.623694
 30
0.0
 10
263.401899
 20
406.432982
 30
0.0
 10
263.532859
 20
406.246612
 30
0.0
 10
263.670074
 20
406.064798
 30
0.0
 10
263.813387
 20
405.887750
 30
0.0
 10
263.939790
 20
405.755294
 30
0.0
 10
264.070582
 20
405.627173
 30
0.0
 10
264.205618
 20
405.503532
 30
0.0
 10
264.344744
 20
405.384510
 30
0.0
 10
264.487801
 20
405.270245
 30
0.0
 10
264.634626
 20
405.160864
 30
0.0
 10
264.785054
 20
405.056492
 30
0.0
 10
264.938913
 20
404.957249
 30
0.0
 10
265.096029
 20
404.863245
 30
0.0
 10
265.256222
 20
404.774589
 30
0.0
 10
265.419313
 20
404.691381
 30
0.0
 10
265.585114
 20
404.613716
 30
0.0
 10
265.753438
 20
404.541681
 30
0.0
 10
265.924093
 20
404.475359
 30
0.0
 10
266.096886
 20
404.414825
 30
0.0
 10
266.271621
 20
404.360147
 30
0.0
 10
266.448099
 20
404.311388
 30
0.0
 10
266.626120
 20
404.268603
 30
0.0
 10
266.805481
 20
404.231841
 30
0.0
 10
266.985979
 20
404.201142
 30
0.0
 10
267.167409
 20
404.176544
 30
0.0
 10
267.349565
 20
404.158072
 30
0.0
 10
267.532239
 20
404.145748
 30
0.0
 10
267.715226
 20
404.139586
 30
0.0
 10
267.898315
 20
404.139594
 30
0.0
 10
268.081301
 20
404.145771
 30
0.0
 10
268.330965
 20
404.150937
 30
0.0
 10
268.580304
 20
404.164673
 30
0.0
 10
268.829025
 20
404.186964
 30
0.0
 10
269.076833
 20
404.217782
 30
0.0
 10
269.323437
 20
404.257092
 30
0.0
 10
269.568546
 20
404.304846
 30
0.0
 10
269.811870
 20
404.360990
 30
0.0
 10
270.053122
 20
404.425456
 30
0.0
 10
270.292018
 20
404.498169
 30
0.0
 10
270.528278
 20
404.579041
 30
0.0
 10
270.761620
 20
404.667980
 30
0.0
 10
270.991770
 20
404.764879
 30
0.0
 10
271.218458
 20
404.869624
 30
0.0
 10
271.441415
 20
404.982092
 30
0.0
 10
271.660378
 20
405.102149
 30
0.0
 10
271.875090
 20
405.229655
 30
0.0
 10
272.085296
 20
405.364458
 30
0.0
 10
272.290750
 20
405.506401
 30
0.0
 10
272.290750
 20
403.125298
 30
0.0
  0
LWPOLYLINE
  5
120
100
AcDbEntity
  8
Default
 62
7
100
AcDbPolyline
 90
279
 70
0
 10
276.662306
 20
417.922149
 30
0.0
 10
276.961788
 20
418.098943
 30
0.0
 10
277.267018
 20
418.265617
 30
0.0
 10
277.577654
 20
418.421984
 30
0.0
 10
277.893348
 20
418.567869
 30
0.0
 10
278.213747
 20
418.703107
 30
0.0
 10
278.538493
 20
418.827549
 30
0.0
 10
278.867221
 20
418.941054
 30
0.0
 10
279.199562
 20
419.043497
 30
0.0
 10
279.535146
 20
419.134760
 30
0.0
 10
279.873595
 20
419.214743
 30
0.0
 10
280.214532
 20
419.283356
 30
0.0
 10
280.557574
 20
419.340521
 30
0.0
 10
280.902336
 20
419.386177
 30
0.0
 10
281.248433
 20
419.420269
 30
0.0
 10
281.595477
 20
419.442761
 30
0.0
 10
281.943078
 20
419.453629
 30
0.0
 10
282.290850
 20
419.452857
 30
0.0
 10
282.472502
 20
419.469605
 30
0.0
 10
282.654622
 20
419.480112
 30
0.0
 10
282.836996
 20
419.484365
 30
0.0
 10
283.019408
 20
419.482361
 30
0.0
 10
283.201644
 20
419.474101
 30
0.0
 10
283.383490
 20
419.459594
 30
0.0
 10
283.564730
 20
419.438858
 30
0.0
 10
283.745153
 20
419.411918
 30
0.0
 10
283.924546
 20
419.378805
 30
0.0
 10
284.102697
 20
419.339558
 30
0.0
 10
284.279397
 20
419.294223
 30
0.0
 10
284.454438
 20
419.242854
 30
0.0
 10
284.627614
 20
419.185511
 30
0.0
 10
284.798722
 20
419.122261
 30
0.0
 10
284.967558
 20
419.053180
 30
0.0
 10
285.133926
 20
418.978347
 30
0.0
 10
285.297630
 20
418.897853
 30
0.0
 10
285.458475
 20
418.811789
 30
0.0
 10
285.616274
 20
418.720261
 30
0.0
 10
285.770841
 20
418.623372
 30
0.0
 10
285.921993
 20
418.521239
 30
0.0
 10
286.069553
 20
418.413981
 30
0.0
 10
286.213347
 20
418.301725
 30
0.0
 10
286.353206
 20
418.184602
 30
0.0
 10
286.488965
 20
418.062752
 30
0.0
 10
286.620465
 20
417.936316
 30
0.0
 10
286.747550
 20
417.805443
 30
0.0
 10
286.870071
 20
417.670289
 30
0.0
 10
286.987884
 20
417.531012
 30
0.0
 10
287.100850
 20
417.387775
 30
0.0
 10
287.208838
 20
417.240748
 30
0.0
 10
287.311718
 20
417.090102
 30
0.0
 10
287.409370
 20
416.936017
 30
0.0
 10
287.501679
 20
416.778673
 30
0.0
 10
287.588537
 20
416.618255
 30
0.0
 10
287.669841
 20
416.454953
 30
0.0
 10
287.745495
 20
416.288957
 30
0.0
 10
287.815412
 20
416.120464
 30
0.0
 10
287.879507
 20
415.949672
 30
0.0
 10
287.937707
 20
415.776781
 30
0.0
 10
287.989942
 20
415.601997
 30
0.0
 10
288.036150
 20
415.425524
 30
0.0
 10
288.076279
 20
415.247569
 30
0.0
 10
288.110279
 20
415.068342
 30
0.0
 10
288.138112
 20
414.888055
 30
0.0
 10
288.159745
 20
414.706919
 30
0.0
 10
288.175151
 20
414.525148
 30
0.0
 10
288.184313
 20
414.342955
 30
0.0
 10
288.187221
 20
414.160555
 30
0.0
 10
288.183870
 20
413.978163
 30
0.0
 10
288.174264
 20
413.795993
 30
0.0
 10
288.158416
 20
413.614259
 30
0.0
 10
288.136343
 20
413.433177
 30
0.0
 10
288.108072
 20
413.252957
 30
0.0
 10
288.108072
 20
402.274905
 30
0.0
 10
285.556891
 20
402.274905
 30
0.0
 10
285.556891
 20
405.012110
 30
0.0
 10
285.461223
 20
405.012110
 30
0.0
 10
285.373064
 20
404.842217
 30
0.0
 10
285.279100
 20
404.675465
 30
0.0
 10
285.179443
 20
404.512052
 30
0.0
 10
285.074212
 20
404.352172
 30
0.0
 10
284.963531
 20
404.196014
 30
0.0
 10
284.847533
 20
404.043765
 30
0.0
 10
284.726354
 20
403.895605
 30
0.0
 10
284.600141
 20
403.751712
 30
0.0
 10
284.469041
 20
403.612255
 30
0.0
 10
284.333211
 20
403.477401
 30
0.0
 10
284.192813
 20
403.347309
 30
0.0
 10
284.048014
 20
403.222135
 30
0.0
 10
283.898984
 20
403.102028
 30
0.0
 10
283.745903
 20
402.987129
 30
0.0
 10
283.588952
 20
402.877577
 30
0.0
 10
283.428317
 20
402.773501
 30
0.0
 10
283.264190
 20
402.675025
 30
0.0
 10
283.096765
 20
402.582265
 30
0.0
 10
282.926242
 20
402.495333
 30
0.0
 10
282.752823
 20
402.414331
 30
0.0
 10
282.576714
 20
402.339356
 30
0.0
 10
282.398126
 20
402.270497
 30
0.0
 10
282.217270
 20
402.207836
 30
0.0
 10
282.034361
 20
402.151447
 30
0.0
 10
281.849617
 20
402.101397
 30
0.0
 10
281.663257
 20
402.057746
 30
0.0
 10
281.475502
 20
402.020547
 30
0.0
 10
281.286578
 20
401.989841
 30
0.0
 10
281.096706
 20
401.965669
 30
0.0
 10
280.906115
 20
401.948055
 30
0.0
 10
280.715030
 20
401.937023
 30
0.0
 10
280.523677
 20
401.932585
 30
0.0
 10
280.332286
 20
401.934747
 30
0.0
 10
280.141392
 20
401.927945
 30
0.0
 10
279.950378
 20
401.927760
 30
0.0
 10
279.759472
 20
401.934192
 30
0.0
 10
279.568904
 20
401.947234
 30
0.0
 10
279.378902
 20
401.966870
 30
0.0
 10
279.189694
 20
401.993077
 30
0.0
 10
279.001507
 20
402.025822
 30
0.0
 10
278.814568
 20
402.065067
 30
0.0
 10
278.629101
 20
402.110765
 30
0.0
 10
278.445327
 20
402.162860
 30
0.0
 10
278.263470
 20
402.221291
 30
0.0
 10
278.083745
 20
402.285986
 30
0.0
 10
277.906370
 20
402.356869
 30
0.0
 10
277.731556
 20
402.433854
 30
0.0
 10
277.559515
 20
402.516849
 30
0.0
 10
277.390452
 20
402.605755
 30
0.0
 10
277.224570
 20
402.700464
 30
0.0
 10
277.062070
 20
402.800862
 30
0.0
 10
276.903144
 20
402.906830
 30
0.0
 10
276.747986
 20
403.018240
 30
0.0
 10
276.596779
 20
403.134958
 30
0.0
 10
276.449707
 20
403.256845
 30
0.0
 10
276.336806
 20
403.366505
 30
0.0
 10
276.227749
 20
403.479990
 30
0.0
 10
276.122667
 20
403.597165
 30
0.0
 10
276.021684
 20
403.717890
 30
0.0
 10
275.924921
 20
403.842023
 30
0.0
 10
275.832491
 20
403.969416
 30
0.0
 10
275.744505
 20
404.099917
 30
0.0
 10
275.661067
 20
404.233373
 30
0.0
 10
275.582277
 20
404.369623
 30
0.0
 10
275.508227
 20
404.508507
 30
0.0
 10
275.439006
 20
404.649861
 30
0.0
 10
275.374697
 20
404.793514
 30
0.0
 10
275.315374
 20
404.939298
 30
0.0
 10
275.261110
 20
405.087040
 30
0.0
 10
275.211967
 20
405.236562
 30
0.0
 10
275.168005
 20
405.387690
 30
0.0
 10
275.129276
 20
405.540242
 30
0.0
 10
275.095825
 20
405.694038
 30
0.0
 10
275.067693
 20
405.848895
 30
0.0
 10
275.044912
 20
406.004629
 30
0.0
 10
275.027510
 20
406.161057
 30
0.0
 10
275.015508
 20
406.317990
 30
0.0
 10
275.008920
 20
406.475244
 30
0.0
 10
275.007753
 20
406.632631
 30
0.0
 10
275.012009
 20
406.789965
 30
0.0
 10
275.010360
 20
406.974584
 30
0.0
 10
275.015110
 20
407.159149
 30
0.0
 10
275.026253
 20
407.343438
 30
0.0
 10
275.043777
 20
407.527231
 30
0.0
 10
275.067658
 20
407.710306
 30
0.0
 10
275.097871
 20
407.892444
 30
0.0
 10
275.134378
 20
408.073425
 30
0.0
 10
275.177134
 20
408.253031
 30
0.0
 10
275.226089
 20
408.431049
 30
0.0
 10
275.281184
 20
408.607262
 30
0.0
 10
275.342353
 20
408.781461
 30
0.0
 10
275.409522
 20
408.953435
 30
0.0
 10
275.482611
 20
409.122978
 30
0.0
 10
275.561531
 20
409.289887
 30
0.0
 10
275.646188
 20
409.453960
 30
0.0
 10
275.736481
 20
409.615000
 30
0.0
 10
275.832300
 20
409.772815
 30
0.0
 10
275.933531
 20
409.927214
 30
0.0
 10
276.040052
 20
410.078013
 30
0.0
 10
276.151734
 20
410.225029
 30
0.0
 10
276.268446
 20
410.368085
 30
0.0
 10
276.390043
 20
410.507013
 30
0.0
 10
276.516383
 20
410.641641
 30
0.0
 10
276.647313
 20
410.771812
 30
0.0
 10
276.782675
 20
410.897366
 30
0.0
 10
276.922307
 20
411.018153
 30
0.0
 10
277.066042
 20
411.134030
 30
0.0
 10
277.213705
 20
411.244855
 30
0.0
 10
277.365121
 20
411.350497
 30
0.0
 10
277.520106
 20
411.450827
 30
0.0
 10
277.678476
 20
411.545726
 30
0.0
 10
277.840039
 20
411.635080
 30
0.0
 10
278.004602
 20
411.718781
 30
0.0
 10
278.171967
 20
411.796729
 30
0.0
 10
278.341933
 20
411.868829
 30
0.0
 10
278.514294
 20
411.934997
 30
0.0
 10
278.688846
 20
411.995150
 30
0.0
 10
278.865378
 20
412.049219
 30
0.0
 10
279.043677
 20
412.097137
 30
0.0
 10
279.223530
 20
412.138848
 30
0.0
 10
279.404720
 20
412.174301
 30
0.0
 10
279.587030
 20
412.203453
 30
0.0
 10
279.770241
 20
412.226269
 30
0.0
 10
279.954133
 20
412.242722
 30
0.0
 10
280.138484
 20
412.252793
 30
0.0
 10
280.323073
 20
412.256469
 30
0.0
 10
280.507679
 20
412.253745
 30
0.0
 10
285.540949
 20
412.989865
 30
0.0
 10
285.566674
 20
413.106510
 30
0.0
 10
285.588348
 20
413.223975
 30
0.0
 10
285.605946
 20
413.342120
 30
0.0
 10
285.619444
 20
413.460802
 30
0.0
 10
285.628829
 20
413.579881
 30
0.0
 10
285.634087
 20
413.699213
 30
0.0
 10
285.635214
 20
413.818655
 30
0.0
 10
285.632207
 20
413.938065
 30
0.0
 10
285.625071
 20
414.057300
 30
0.0
 10
285.613814
 20
414.176216
 30
0.0
 10
285.598449
 20
414.294671
 30
0.0
 10
285.578994
 20
414.412524
 30
0.0
 10
285.555474
 20
414.529633
 30
0.0
 10
285.527915
 20
414.645859
 30
0.0
 10
285.496352
 20
414.761061
 30
0.0
 10
285.460822
 20
414.875102
 30
0.0
 10
285.421368
 20
414.987845
 30
0.0
 10
285.378036
 20
415.099157
 30
0.0
 10
285.330878
 20
415.208901
 30
0.0
 10
285.279953
 20
415.316949
 30
0.0
 10
285.225318
 20
415.423170
 30
0.0
 10
285.167042
 20
415.527437
 30
0.0
 10
285.105193
 20
415.629626
 30
0.0
 10
285.039846
 20
415.729613
 30
0.0
 10
284.971078
 20
415.827280
 30
0.0
 10
284.898971
 20
415.922509
 30
0.0
 10
284.823614
 20
416.015185
 30
0.0
 10
284.745094
 20
416.105199
 30
0.0
 10
284.663507
 20
416.192442
 30
0.0
 10
284.578951
 20
416.276810
 30
0.0
 10
284.491526
 20
416.358203
 30
0.0
 10
284.401338
 20
416.436521
 30
0.0
 10
284.308494
 20
416.511673
 30
0.0
 10
284.213104
 20
416.583566
 30
0.0
 10
284.115285
 20
416.652117
 30
0.0
 10
284.015152
 20
416.717241
 30
0.0
 10
283.912826
 20
416.778863
 30
0.0
 10
283.808430
 20
416.836907
 30
0.0
 10
283.702087
 20
416.891304
 30
0.0
 10
283.593926
 20
416.941989
 30
0.0
 10
283.484077
 20
416.988901
 30
0.0
 10
283.372670
 20
417.031985
 30
0.0
 10
283.259838
 20
417.071189
 30
0.0
 10
283.145718
 20
417.106465
 30
0.0
 10
283.030446
 20
417.137771
 30
0.0
 10
282.914159
 20
417.165070
 30
0.0
 10
282.796998
 20
417.188330
 30
0.0
 10
282.679102
 20
417.207522
 30
0.0
 10
282.560613
 20
417.222623
 30
0.0
 10
282.441672
 20
417.233616
 30
0.0
 10
282.322422
 20
417.240486
 30
0.0
 10
282.203006
 20
417.243227
 30
0.0
 10
282.083566
 20
417.241834
 30
0.0
 10
281.801498
 20
417.238601
 30
0.0
 10
281.519714
 20
417.225540
 30
0.0
 10
281.238557
 20
417.202665
 30
0.0
 10
280.958368
 20
417.170005
 30
0.0
 10
280.679487
 20
417.127600
 30
0.0
 10
280.402254
 20
417.075501
 30
0.0
 10
280.127005
 20
417.013770
 30
0.0
 10
279.854074
 20
416.942484
 30
0.0
 10
279.583794
 20
416.861729
 30
0.0
 10
279.316493
 20
416.771603
 30
0.0
 10
279.052495
 20
416.672216
 30
0.0
 10
278.792122
 20
416.563688
 30
0.0
 10
278.535690
 20
416.446151
 30
0.0
 10
278.283509
 20
416.319748
 30
0.0
 10
278.035887
 20
416.184633
 30
0.0
 10
277.793125
 20
416.040969
 30
0.0
 10
277.555518
 20
415.888932
 30
0.0
 10
277.323354
 20
415.728706
 30
0.0
 10
277.096914
 20
415.560485
 30
0.0
 10
276.876476
 20
415.384475
 30
0.0
 10
276.662306
 20
415.200889
 30
0.0
 10
276.662306
 20
417.922149
 30
0.0
  0
LWPOLYLINE
  5
121
100
AcDbEntity
  8
Default
 62
7
100
AcDbPolyline
 90
82
 70
0
 10
281.424511
 20
410.244690
 30
0.0
 10
278.507925
 20
409.301284
 30
0.0
 10
278.437183
 20
409.238881
 30
0.0
 10
278.368641
 20
409.174072
 30
0.0
 10
278.302379
 20
409.106931
 30
0.0
 10
278.238479
 20
409.037540
 30
0.0
 10
278.177015
 20
408.965981
 30
0.0
 10
278.118062
 20
408.892341
 30
0.0
 10
278.061690
 20
408.816707
 30
0.0
 10
278.007966
 20
408.739169
 30
0.0
 10
277.956955
 20
408.659820
 30
0.0
 10
277.908717
 20
408.578755
 30
0.0
 10
277.863310
 20
408.496072
 30
0.0
 10
277.820789
 20
408.411868
 30
0.0
 10
277.781203
 20
408.326244
 30
0.0
 10
277.744602
 20
408.239303
 30
0.0
 10
277.711027
 20
408.151149
 30
0.0
 10
277.680520
 20
408.061887
 30
0.0
 10
277.653117
 20
407.971624
 30
0.0
 10
277.628850
 20
407.880467
 30
0.0
 10
277.607750
 20
407.788526
 30
0.0
 10
277.589840
 20
407.695911
 30
0.0
 10
277.575142
 20
407.602732
 30
0.0
 10
277.563674
 20
407.509100
 30
0.0
 10
277.555450
 20
407.415128
 30
0.0
 10
277.550479
 20
407.320928
 30
0.0
 10
277.548768
 20
407.226612
 30
0.0
 10
277.550318
 20
407.132293
 30
0.0
 10
277.555127
 20
407.038085
 30
0.0
 10
277.563190
 20
406.944099
 30
0.0
 10
278.468063
 20
404.916441
 30
0.0
 10
280.847837
 20
404.145771
 30
0.0
 10
280.998845
 20
404.144448
 30
0.0
 10
281.149810
 20
404.148336
 30
0.0
 10
281.300550
 20
404.157429
 30
0.0
 10
281.450886
 20
404.171718
 30
0.0
 10
281.600641
 20
404.191185
 30
0.0
 10
281.749634
 20
404.215807
 30
0.0
 10
281.897690
 20
404.245554
 30
0.0
 10
282.044630
 20
404.280392
 30
0.0
 10
282.190282
 20
404.320278
 30
0.0
 10
282.334470
 20
404.365166
 30
0.0
 10
282.477025
 20
404.415001
 30
0.0
 10
282.617775
 20
404.469725
 30
0.0
 10
282.756554
 20
404.529272
 30
0.0
 10
282.893195
 20
404.593571
 30
0.0
 10
283.027537
 20
404.662546
 30
0.0
 10
283.159419
 20
404.736116
 30
0.0
 10
283.288685
 20
404.814190
 30
0.0
 10
283.415179
 20
404.896679
 30
0.0
 10
283.538754
 20
404.983482
 30
0.0
 10
283.659259
 20
405.074497
 30
0.0
 10
283.776553
 20
405.169615
 30
0.0
 10
283.890495
 20
405.268723
 30
0.0
 10
284.000950
 20
405.371703
 30
0.0
 10
284.107787
 20
405.478433
 30
0.0
 10
284.210878
 20
405.588784
 30
0.0
 10
284.324280
 20
405.718069
 30
0.0
 10
284.433292
 20
405.851077
 30
0.0
 10
284.537792
 20
405.987657
 30
0.0
 10
284.637664
 20
406.127658
 30
0.0
 10
284.732796
 20
406.270921
 30
0.0
 10
284.823082
 20
406.417288
 30
0.0
 10
284.908418
 20
406.566593
 30
0.0
 10
284.988713
 20
406.718671
 30
0.0
 10
285.063873
 20
406.873349
 30
0.0
 10
285.133816
 20
407.030457
 30
0.0
 10
285.198463
 20
407.189815
 30
0.0
 10
285.257742
 20
407.351248
 30
0.0
 10
285.311586
 20
407.514574
 30
0.0
 10
285.359936
 20
407.679610
 30
0.0
 10
285.402736
 20
407.846172
 30
0.0
 10
285.439940
 20
408.014072
 30
0.0
 10
285.471505
 20
408.183123
 30
0.0
 10
285.497395
 20
408.353135
 30
0.0
 10
285.517583
 20
408.523919
 30
0.0
 10
285.532045
 20
408.695282
 30
0.0
 10
285.540766
 20
408.867033
 30
0.0
 10
285.543734
 20
409.038981
 30
0.0
 10
285.540949
 20
409.210930
 30
0.0
 10
285.540949
 20
410.778842
 30
0.0
 10
281.424511
 20
410.244690
 30
0.0
  0
LWPOLYLINE
  5
122
100
AcDbEntity
  8
Default
 62
7
100
AcDbPolyline
 90
170
 70
0
 10
307.497049
 20
402.274905
 30
0.0
 10
304.945867
 20
402.274905
 30
0.0
 10
304.945867
 20
405.237997
 30
0.0
 10
304.882090
 20
405.237997
 30
0.0
 10
304.780054
 20
405.051172
 30
0.0
 10
304.671645
 20
404.867973
 30
0.0
 10
304.556987
 20
404.688618
 30
0.0
 10
304.436219
 20
404.513320
 30
0.0
 10
304.309483
 20
404.342286
 30
0.0
 10
304.176930
 20
404.175720
 30
0.0
 10
304.038718
 20
404.013819
 30
0.0
 10
303.895010
 20
403.856776
 30
0.0
 10
303.745978
 20
403.704777
 30
0.0
 10
303.591798
 20
403.558002
 30
0.0
 10
303.432652
 20
403.416626
 30
0.0
 10
303.268730
 20
403.280817
 30
0.0
 10
303.100226
 20
403.150735
 30
0.0
 10
302.927342
 20
403.026536
 30
0.0
 10
302.750282
 20
402.908367
 30
0.0
 10
302.569255
 20
402.796367
 30
0.0
 10
302.384478
 20
402.690671
 30
0.0
 10
302.196168
 20
402.591402
 30
0.0
 10
302.004551
 20
402.498681
 30
0.0
 10
301.809854
 20
402.412615
 30
0.0
 10
301.612306
 20
402.333309
 30
0.0
 10
301.412144
 20
402.260854
 30
0.0
 10
301.209605
 20
402.195339
 30
0.0
 10
301.004928
 20
402.136840
 30
0.0
 10
300.798358
 20
402.085427
 30
0.0
 10
300.590139
 20
402.041161
 30
0.0
 10
300.380519
 20
402.004095
 30
0.0
 10
300.169746
 20
401.974272
 30
0.0
 10
299.958072
 20
401.951728
 30
0.0
 10
299.745746
 20
401.936490
 30
0.0
 10
299.533021
 20
401.928576
 30
0.0
 10
299.320150
 20
401.927994
 30
0.0
 10
299.107385
 20
401.934747
 30
0.0
 10
298.895850
 20
401.930361
 30
0.0
 10
298.684287
 20
401.933165
 30
0.0
 10
298.472942
 20
401.943153
 30
0.0
 10
298.262058
 20
401.960313
 30
0.0
 10
298.051879
 20
401.984629
 30
0.0
 10
297.842647
 20
402.016070
 30
0.0
 10
297.634605
 20
402.054601
 30
0.0
 10
297.427990
 20
402.100176
 30
0.0
 10
297.223044
 20
402.152744
 30
0.0
 10
297.020002
 20
402.212243
 30
0.0
 10
296.819098
 20
402.278605
 30
0.0
 10
296.620563
 20
402.351754
 30
0.0
 10
296.424629
 20
402.431605
 30
0.0
 10
296.231520
 20
402.518065
 30
0.0
 10
296.041459
 20
402.611037
 30
0.0
 10
295.854667
 20
402.710409
 30
0.0
 10
295.671358
 20
402.816071
 30
0.0
 10
295.491744
 20
402.927898
 30
0.0
 10
295.316033
 20
403.045762
 30
0.0
 10
295.144426
 20
403.169527
 30
0.0
 10
294.977124
 20
403.299050
 30
0.0
 10
294.814318
 20
403.434181
 30
0.0
 10
294.656195
 20
403.574765
 30
0.0
 10
294.502940
 20
403.720640
 30
0.0
 10
294.354729
 20
403.871636
 30
0.0
 10
294.211732
 20
404.027580
 30
0.0
 10
294.074115
 20
404.188291
 30
0.0
 10
293.889266
 20
404.439008
 30
0.0
 10
293.712963
 20
404.695806
 30
0.0
 10
293.545408
 20
404.958396
 30
0.0
 10
293.386789
 20
405.226478
 30
0.0
 10
293.237287
 20
405.499749
 30
0.0
 10
293.097071
 20
405.777900
 30
0.0
 10
292.966302
 20
406.060614
 30
0.0
 10
292.845125
 20
406.347571
 30
0.0
 10
292.733680
 20
406.638446
 30
0.0
 10
292.632092
 20
406.932908
 30
0.0
 10
292.540478
 20
407.230624
 30
0.0
 10
292.458939
 20
407.531256
 30
0.0
 10
292.387570
 20
407.834463
 30
0.0
 10
292.326451
 20
408.139901
 30
0.0
 10
292.275652
 20
408.447225
 30
0.0
 10
292.235229
 20
408.756084
 30
0.0
 10
292.205230
 20
409.066129
 30
0.0
 10
292.185686
 20
409.377009
 30
0.0
 10
292.176623
 20
409.688370
 30
0.0
 10
292.178049
 20
409.999861
 30
0.0
 10
292.189962
 20
410.311126
 30
0.0
 10
292.179138
 20
410.649321
 30
0.0
 10
292.179766
 20
410.987689
 30
0.0
 10
292.191846
 20
411.325842
 30
0.0
 10
292.215365
 20
411.663392
 30
0.0
 10
292.250294
 20
411.999953
 30
0.0
 10
292.296596
 20
412.335138
 30
0.0
 10
292.354215
 20
412.668565
 30
0.0
 10
292.423087
 20
412.999850
 30
0.0
 10
292.503132
 20
413.328614
 30
0.0
 10
292.594258
 20
413.654481
 30
0.0
 10
292.696362
 20
413.977077
 30
0.0
 10
292.809326
 20
414.296033
 30
0.0
 10
292.933021
 20
414.610981
 30
0.0
 10
293.067304
 20
414.921563
 30
0.0
 10
293.212022
 20
415.227422
 30
0.0
 10
293.367010
 20
415.528208
 30
0.0
 10
293.532090
 20
415.823576
 30
0.0
 10
293.707072
 20
416.113186
 30
0.0
 10
293.891756
 20
416.396709
 30
0.0
 10
294.085930
 20
416.673818
 30
0.0
 10
294.289372
 20
416.944197
 30
0.0
 10
294.440230
 20
417.121989
 30
0.0
 10
294.597040
 20
417.294553
 30
0.0
 10
294.759622
 20
417.461693
 30
0.0
 10
294.927786
 20
417.623212
 30
0.0
 10
295.101341
 20
417.778927
 30
0.0
 10
295.280084
 20
417.928657
 30
0.0
 10
295.463810
 20
418.072228
 30
0.0
 10
295.652306
 20
418.209476
 30
0.0
 10
295.845356
 20
418.340242
 30
0.0
 10
296.042737
 20
418.464375
 30
0.0
 10
296.244219
 20
418.581733
 30
0.0
 10
296.449573
 20
418.692178
 30
0.0
 10
296.658558
 20
418.795585
 30
0.0
 10
296.870937
 20
418.891833
 30
0.0
 10
297.086461
 20
418.980811
 30
0.0
 10
297.304884
 20
419.062417
 30
0.0
 10
297.525952
 20
419.136557
 30
0.0
 10
297.749412
 20
419.203145
 30
0.0
 10
297.975004
 20
419.262105
 30
0.0
 10
298.202469
 20
419.313367
 30
0.0
 10
298.431543
 20
419.356873
 30
0.0
 10
298.661964
 20
419.392573
 30
0.0
 10
298.893464
 20
419.420427
 30
0.0
 10
299.125777
 20
419.440400
 30
0.0
 10
299.358634
 20
419.452471
 30
0.0
 10
299.591766
 20
419.456625
 30
0.0
 10
299.824905
 20
419.452857
 30
0.0
 10
300.008731
 20
419.460755
 30
0.0
 10
300.192720
 20
419.462418
 30
0.0
 10
300.376659
 20
419.457846
 30
0.0
 10
300.560338
 20
419.447044
 30
0.0
 10
300.743545
 20
419.430024
 30
0.0
 10
300.926070
 20
419.406805
 30
0.0
 10
301.107704
 20
419.377415
 30
0.0
 10
301.288237
 20
419.341886
 30
0.0
 10
301.467462
 20
419.300261
 30
0.0
 10
301.645175
 20
419.252586
 30
0.0
 10
301.821170
 20
419.198917
 30
0.0
 10
301.995245
 20
419.139314
 30
0.0
 10
302.167200
 20
419.073847
 30
0.0
 10
302.336838
 20
419.002591
 30
0.0
 10
302.503964
 20
418.925628
 30
0.0
 10
302.668386
 20
418.843045
 30
0.0
 10
302.829915
 20
418.754938
 30
0.0
 10
302.988366
 20
418.661409
 30
0.0
 10
303.143557
 20
418.562563
 30
0.0
 10
303.295309
 20
418.458516
 30
0.0
 10
303.443448
 20
418.349385
 30
0.0
 10
303.587804
 20
418.235298
 30
0.0
 10
303.728211
 20
418.116385
 30
0.0
 10
303.864508
 20
417.992782
 30
0.0
 10
303.996538
 20
417.864632
 30
0.0
 10
304.124150
 20
417.732081
 30
0.0
 10
304.247198
 20
417.595282
 30
0.0
 10
304.365538
 20
417.454393
 30
0.0
 10
304.479037
 20
417.309573
 30
0.0
 10
304.587563
 20
417.160991
 30
0.0
 10
304.690992
 20
417.008817
 30
0.0
 10
304.789206
 20
416.853225
 30
0.0
 10
304.882090
 20
416.694395
 30
0.0
 10
304.945867
 20
416.694395
 30
0.0
 10
304.945867
 20
427.276480
 30
0.0
 10
307.497049
 20
427.276480
 30
0.0
 10
307.497049
 20
402.274905
 30
0.0
  0
LWPOLYLINE
  5
123
100
AcDbEntity
  8
Default
 62
7
100
AcDbPolyline
 90
194
 70
0
 10
304.945867
 20
412.386619
 30
0.0
 10
304.946204
 20
412.545253
 30
0.0
 10
304.941230
 20
412.703810
 30
0.0
 10
304.930950
 20
412.862112
 30
0.0
 10
304.915378
 20
413.019981
 30
0.0
 10
304.894531
 20
413.177239
 30
0.0
 10
304.868430
 20
413.333713
 30
0.0
 10
304.837107
 20
413.489224
 30
0.0
 10
304.800596
 20
413.643600
 30
0.0
 10
304.758938
 20
413.796667
 30
0.0
 10
304.712178
 20
413.948254
 30
0.0
 10
304.660372
 20
414.098191
 30
0.0
 10
304.603574
 20
414.246310
 30
0.0
 10
304.541851
 20
414.392445
 30
0.0
 10
304.475271
 20
414.536431
 30
0.0
 10
304.403908
 20
414.678108
 30
0.0
 10
304.327843
 20
414.817317
 30
0.0
 10
304.247161
 20
414.953901
 30
0.0
 10
304.161951
 20
415.087709
 30
0.0
 10
304.072310
 20
415.218589
 30
0.0
 10
303.978339
 20
415.346394
 30
0.0
 10
303.880142
 20
415.470983
 30
0.0
 10
303.777830
 20
415.592215
 30
0.0
 10
303.671516
 20
415.709954
 30
0.0
 10
303.561321
 20
415.824069
 30
0.0
 10
303.448272
 20
415.937499
 30
0.0
 10
303.331370
 20
416.046953
 30
0.0
 10
303.210753
 20
416.152301
 30
0.0
 10
303.086566
 20
416.253416
 30
0.0
 10
302.958957
 20
416.350176
 30
0.0
 10
302.828080
 20
416.442467
 30
0.0
 10
302.694090
 20
416.530178
 30
0.0
 10
302.557148
 20
416.613205
 30
0.0
 10
302.417418
 20
416.691448
 30
0.0
 10
302.275066
 20
416.764813
 30
0.0
 10
302.130262
 20
416.833212
 30
0.0
 10
301.983181
 20
416.896565
 30
0.0
 10
301.833997
 20
416.954795
 30
0.0
 10
301.682889
 20
417.007833
 30
0.0
 10
301.530038
 20
417.055614
 30
0.0
 10
301.375626
 20
417.098083
 30
0.0
 10
301.219839
 20
417.135188
 30
0.0
 10
301.062862
 20
417.166885
 30
0.0
 10
300.904882
 20
417.193137
 30
0.0
 10
300.746090
 20
417.213910
 30
0.0
 10
300.586675
 20
417.229182
 30
0.0
 10
300.426826
 20
417.238933
 30
0.0
 10
300.266737
 20
417.243152
 30
0.0
 10
300.106597
 20
417.241834
 30
0.0
 10
299.945854
 20
417.245413
 30
0.0
 10
299.785083
 20
417.243515
 30
0.0
 10
299.624470
 20
417.236144
 30
0.0
 10
299.464201
 20
417.223306
 30
0.0
 10
299.304462
 20
417.205018
 30
0.0
 10
299.145438
 20
417.181301
 30
0.0
 10
298.987314
 20
417.152181
 30
0.0
 10
298.830274
 20
417.117693
 30
0.0
 10
298.674500
 20
417.077877
 30
0.0
 10
298.520172
 20
417.032779
 30
0.0
 10
298.367470
 20
416.982451
 30
0.0
 10
298.216570
 20
416.926952
 30
0.0
 10
298.067647
 20
416.866345
 30
0.0
 10
297.920875
 20
416.800703
 30
0.0
 10
297.776424
 20
416.730100
 30
0.0
 10
297.634461
 20
416.654617
 30
0.0
 10
297.495150
 20
416.574345
 30
0.0
 10
297.358655
 20
416.489374
 30
0.0
 10
297.225133
 20
416.399805
 30
0.0
 10
297.094738
 20
416.305740
 30
0.0
 10
296.967623
 20
416.207288
 30
0.0
 10
296.843934
 20
416.104565
 30
0.0
 10
296.723815
 20
415.997689
 30
0.0
 10
296.607406
 20
415.886784
 30
0.0
 10
296.494842
 20
415.771978
 30
0.0
 10
296.386253
 20
415.653406
 30
0.0
 10
296.281764
 20
415.531205
 30
0.0
 10
296.181498
 20
415.405516
 30
0.0
 10
296.032294
 20
415.188020
 30
0.0
 10
295.890482
 20
414.965633
 30
0.0
 10
295.756224
 20
414.738607
 30
0.0
 10
295.629670
 20
414.507197
 30
0.0
 10
295.510966
 20
414.271664
 30
0.0
 10
295.400243
 20
414.032276
 30
0.0
 10
295.297627
 20
413.789301
 30
0.0
 10
295.203235
 20
413.543016
 30
0.0
 10
295.117173
 20
413.293698
 30
0.0
 10
295.039537
 20
413.041628
 30
0.0
 10
294.970417
 20
412.787092
 30
0.0
 10
294.909889
 20
412.530377
 30
0.0
 10
294.858022
 20
412.271772
 30
0.0
 10
294.814875
 20
412.011571
 30
0.0
 10
294.780497
 20
411.750066
 30
0.0
 10
294.754926
 20
411.487555
 30
0.0
 10
294.738190
 20
411.224332
 30
0.0
 10
294.730311
 20
410.960695
 30
0.0
 10
294.731295
 20
410.696942
 30
0.0
 10
294.741143
 20
410.433372
 30
0.0
 10
294.733018
 20
410.190478
 30
0.0
 10
294.733151
 20
409.947449
 30
0.0
 10
294.741541
 20
409.704564
 30
0.0
 10
294.758178
 20
409.462104
 30
0.0
 10
294.783044
 20
409.220349
 30
0.0
 10
294.816110
 20
408.979580
 30
0.0
 10
294.857336
 20
408.740073
 30
0.0
 10
294.906677
 20
408.502104
 30
0.0
 10
294.964074
 20
408.265949
 30
0.0
 10
295.029462
 20
408.031881
 30
0.0
 10
295.102765
 20
407.800170
 30
0.0
 10
295.183898
 20
407.571083
 30
0.0
 10
295.272769
 20
407.344885
 30
0.0
 10
295.369273
 20
407.121837
 30
0.0
 10
295.473299
 20
406.902197
 30
0.0
 10
295.584729
 20
406.686217
 30
0.0
 10
295.703432
 20
406.474149
 30
0.0
 10
295.829272
 20
406.266236
 30
0.0
 10
295.962103
 20
406.062719
 30
0.0
 10
296.101773
 20
405.863833
 30
0.0
 10
296.196837
 20
405.746057
 30
0.0
 10
296.295834
 20
405.631568
 30
0.0
 10
296.398651
 20
405.520497
 30
0.0
 10
296.505170
 20
405.412970
 30
0.0
 10
296.615268
 20
405.309112
 30
0.0
 10
296.728819
 20
405.209041
 30
0.0
 10
296.845694
 20
405.112872
 30
0.0
 10
296.965758
 20
405.020715
 30
0.0
 10
297.088874
 20
404.932677
 30
0.0
 10
297.214899
 20
404.848857
 30
0.0
 10
297.343690
 20
404.769353
 30
0.0
 10
297.475100
 20
404.694255
 30
0.0
 10
297.608977
 20
404.623649
 30
0.0
 10
297.745168
 20
404.557617
 30
0.0
 10
297.883516
 20
404.496234
 30
0.0
 10
298.023864
 20
404.439571
 30
0.0
 10
298.166050
 20
404.387692
 30
0.0
 10
298.309910
 20
404.340657
 30
0.0
 10
298.455281
 20
404.298519
 30
0.0
 10
298.601994
 20
404.261328
 30
0.0
 10
298.749884
 20
404.229126
 30
0.0
 10
298.898778
 20
404.201949
 30
0.0
 10
299.048508
 20
404.179830
 30
0.0
 10
299.198901
 20
404.162793
 30
0.0
 10
299.349783
 20
404.150858
 30
0.0
 10
299.500984
 20
404.144038
 30
0.0
 10
299.652330
 20
404.142342
 30
0.0
 10
299.803645
 20
404.145771
 30
0.0
 10
299.963639
 20
404.144600
 30
0.0
 10
300.123581
 20
404.148833
 30
0.0
 10
300.283289
 20
404.158466
 30
0.0
 10
300.442581
 20
404.173488
 30
0.0
 10
300.601274
 20
404.193881
 30
0.0
 10
300.759188
 20
404.219621
 30
0.0
 10
300.916142
 20
404.250681
 30
0.0
 10
301.071958
 20
404.287025
 30
0.0
 10
301.226458
 20
404.328609
 30
0.0
 10
301.379465
 20
404.375389
 30
0.0
 10
301.530804
 20
404.427309
 30
0.0
 10
301.680304
 20
404.484311
 30
0.0
 10
301.827793
 20
404.546330
 30
0.0
 10
301.973103
 20
404.613295
 30
0.0
 10
302.116070
 20
404.685129
 30
0.0
 10
302.256527
 20
404.761752
 30
0.0
 10
302.394318
 20
404.843074
 30
0.0
 10
302.529282
 20
404.929004
 30
0.0
 10
302.661268
 20
405.019443
 30
0.0
 10
302.790124
 20
405.114288
 30
0.0
 10
302.915702
 20
405.213431
 30
0.0
 10
303.037862
 20
405.316759
 30
0.0
 10
303.156461
 20
405.424153
 30
0.0
 10
303.271365
 20
405.535493
 30
0.0
 10
303.382443
 20
405.650649
 30
0.0
 10
303.489570
 20
405.769492
 30
0.0
 10
303.620177
 20
405.924149
 30
0.0
 10
303.745409
 20
406.083191
 30
0.0
 10
303.865118
 20
406.246430
 30
0.0
 10
303.979164
 20
406.413675
 30
0.0
 10
304.087413
 20
406.584729
 30
0.0
 10
304.189737
 20
406.759392
 30
0.0
 10
304.286017
 20
406.937458
 30
0.0
 10
304.376139
 20
407.118718
 30
0.0
 10
304.459998
 20
407.302960
 30
0.0
 10
304.537495
 20
407.489967
 30
0.0
 10
304.608539
 20
407.679519
 30
0.0
 10
304.673048
 20
407.871393
 30
0.0
 10
304.730944
 20
408.065366
 30
0.0
 10
304.782160
 20
408.261209
 30
0.0
 10
304.826636
 20
408.458691
 30
0.0
 10
304.864319
 20
408.657581
 30
0.0
 10
304.895166
 20
408.857645
 30
0.0
 10
304.919141
 20
409.058649
 30
0.0
 10
304.936214
 20
409.260357
 30
0.0
 10
304.946366
 20
409.462530
 30
0.0
 10
304.949585
 20
409.664933
 30
0.0
 10
304.945867
 20
409.867328
 30
0.0
 10
304.945867
 20
412.386619
 30
0.0
  0
LWPOLYLINE
  5
124
100
AcDbEntity
  8
Default
 62
7
100
AcDbPolyline
 90
232
 70
0
 10
326.375789
 20
410.098527
 30
0.0
 10
314.470277
 20
410.098527
 30
0.0
 10
314.465958
 20
409.880075
 30
0.0
 10
314.469170
 20
409.661604
 30
0.0
 10
314.479909
 20
409.443373
 30
0.0
 10
314.498162
 20
409.225642
 30
0.0
 10
314.523909
 20
409.008670
 30
0.0
 10
314.557118
 20
408.792713
 30
0.0
 10
314.597750
 20
408.578030
 30
0.0
 10
314.645756
 20
408.364875
 30
0.0
 10
314.701080
 20
408.153500
 30
0.0
 10
314.763656
 20
407.944158
 30
0.0
 10
314.833409
 20
407.737097
 30
0.0
 10
314.910257
 20
407.532562
 30
0.0
 10
314.994108
 20
407.330797
 30
0.0
 10
315.084862
 20
407.132042
 30
0.0
 10
315.182413
 20
406.936533
 30
0.0
 10
315.286644
 20
406.744502
 30
0.0
 10
315.397430
 20
406.556177
 30
0.0
 10
315.514642
 20
406.371782
 30
0.0
 10
315.638138
 20
406.191537
 30
0.0
 10
315.767773
 20
406.015654
 30
0.0
 10
315.903392
 20
405.844343
 30
0.0
 10
316.044834
 20
405.677809
 30
0.0
 10
316.178294
 20
405.550839
 30
0.0
 10
316.316045
 20
405.428537
 30
0.0
 10
316.457924
 20
405.311050
 30
0.0
 10
316.603762
 20
405.198515
 30
0.0
 10
316.753387
 20
405.091066
 30
0.0
 10
316.906622
 20
404.988831
 30
0.0
 10
317.063284
 20
404.891930
 30
0.0
 10
317.223189
 20
404.800479
 30
0.0
 10
317.386146
 20
404.714585
 30
0.0
 10
317.551963
 20
404.634352
 30
0.0
 10
317.720444
 20
404.559873
 30
0.0
 10
317.891388
 20
404.491236
 30
0.0
 10
318.064594
 20
404.428524
 30
0.0
 10
318.239854
 20
404.371810
 30
0.0
 10
318.416963
 20
404.321162
 30
0.0
 10
318.595711
 20
404.276640
 30
0.0
 10
318.775885
 20
404.238297
 30
0.0
 10
318.957272
 20
404.206177
 30
0.0
 10
319.139657
 20
404.180319
 30
0.0
 10
319.322823
 20
404.160753
 30
0.0
 10
319.506555
 20
404.147505
 30
0.0
 10
319.690634
 20
404.140587
 30
0.0
 10
319.874842
 20
404.140009
 30
0.0
 10
320.058960
 20
404.145771
 30
0.0
 10
320.345300
 20
404.150112
 30
0.0
 10
320.631325
 20
404.164226
 30
0.0
 10
320.916702
 20
404.188097
 30
0.0
 10
321.201097
 20
404.221697
 30
0.0
 10
321.484178
 20
404.264987
 30
0.0
 10
321.765618
 20
404.317916
 30
0.0
 10
322.045086
 20
404.380423
 30
0.0
 10
322.322257
 20
404.452434
 30
0.0
 10
322.596808
 20
404.533866
 30
0.0
 10
322.868419
 20
404.624624
 30
0.0
 10
323.136773
 20
404.724601
 30
0.0
 10
323.401558
 20
404.833682
 30
0.0
 10
323.662464
 20
404.951740
 30
0.0
 10
323.919187
 20
405.078636
 30
0.0
 10
324.171429
 20
405.214222
 30
0.0
 10
324.418894
 20
405.358341
 30
0.0
 10
324.661295
 20
405.510825
 30
0.0
 10
324.898349
 20
405.671495
 30
0.0
 10
325.129779
 20
405.840165
 30
0.0
 10
325.355316
 20
406.016637
 30
0.0
 10
325.355316
 20
403.635535
 30
0.0
 10
325.084534
 20
403.453082
 30
0.0
 10
324.807626
 20
403.280065
 30
0.0
 10
324.524925
 20
403.116689
 30
0.0
 10
324.236762
 20
402.963147
 30
0.0
 10
323.943483
 20
402.819623
 30
0.0
 10
323.645434
 20
402.686285
 30
0.0
 10
323.342968
 20
402.563294
 30
0.0
 10
323.036446
 20
402.450794
 30
0.0
 10
322.726230
 20
402.348919
 30
0.0
 10
322.412690
 20
402.257790
 30
0.0
 10
322.096196
 20
402.177515
 30
0.0
 10
321.777125
 20
402.108189
 30
0.0
 10
321.455856
 20
402.049896
 30
0.0
 10
321.132769
 20
402.002703
 30
0.0
 10
320.808248
 20
401.966667
 30
0.0
 10
320.482679
 20
401.941830
 30
0.0
 10
320.156447
 20
401.928223
 30
0.0
 10
319.829941
 20
401.925861
 30
0.0
 10
319.503546
 20
401.934747
 30
0.0
 10
319.263685
 20
401.926313
 30
0.0
 10
319.023676
 20
401.926119
 30
0.0
 10
318.783802
 20
401.934165
 30
0.0
 10
318.544345
 20
401.950441
 30
0.0
 10
318.305588
 20
401.974929
 30
0.0
 10
318.067813
 20
402.007599
 30
0.0
 10
317.831299
 20
402.048413
 30
0.0
 10
317.596326
 20
402.097322
 30
0.0
 10
317.363170
 20
402.154270
 30
0.0
 10
317.132108
 20
402.219189
 30
0.0
 10
316.903410
 20
402.292002
 30
0.0
 10
316.677347
 20
402.372625
 30
0.0
 10
316.454185
 20
402.460960
 30
0.0
 10
316.234187
 20
402.556905
 30
0.0
 10
316.017613
 20
402.660345
 30
0.0
 10
315.804718
 20
402.771161
 30
0.0
 10
315.595752
 20
402.889220
 30
0.0
 10
315.390963
 20
403.014383
 30
0.0
 10
315.190592
 20
403.146504
 30
0.0
 10
314.994874
 20
403.285425
 30
0.0
 10
314.804042
 20
403.430985
 30
0.0
 10
314.618319
 20
403.583009
 30
0.0
 10
314.437926
 20
403.741320
 30
0.0
 10
314.263073
 20
403.905731
 30
0.0
 10
314.093967
 20
404.076049
 30
0.0
 10
313.930809
 20
404.252070
 30
0.0
 10
313.732905
 20
404.512427
 30
0.0
 10
313.544122
 20
404.779471
 30
0.0
 10
313.364685
 20
405.052882
 30
0.0
 10
313.194809
 20
405.332335
 30
0.0
 10
313.034697
 20
405.617494
 30
0.0
 10
312.884541
 20
405.908019
 30
0.0
 10
312.744520
 20
406.203562
 30
0.0
 10
312.614802
 20
406.503770
 30
0.0
 10
312.495542
 20
406.808284
 30
0.0
 10
312.386882
 20
407.116739
 30
0.0
 10
312.288953
 20
407.428767
 30
0.0
 10
312.201871
 20
407.743994
 30
0.0
 10
312.125742
 20
408.062044
 30
0.0
 10
312.060654
 20
408.382536
 30
0.0
 10
312.006688
 20
408.705087
 30
0.0
 10
311.963906
 20
409.029311
 30
0.0
 10
311.932362
 20
409.354821
 30
0.0
 10
311.912090
 20
409.681226
 30
0.0
 10
311.903118
 20
410.008137
 30
0.0
 10
311.905454
 20
410.335164
 30
0.0
 10
311.919096
 20
410.661913
 30
0.0
 10
311.913046
 20
410.972109
 30
0.0
 10
311.917482
 20
411.282333
 30
0.0
 10
311.932397
 20
411.592229
 30
0.0
 10
311.957774
 20
411.901444
 30
0.0
 10
311.993586
 20
412.209625
 30
0.0
 10
312.039791
 20
412.516420
 30
0.0
 10
312.096336
 20
412.821478
 30
0.0
 10
312.163156
 20
413.124453
 30
0.0
 10
312.240175
 20
413.424995
 30
0.0
 10
312.327306
 20
413.722764
 30
0.0
 10
312.424448
 20
414.017419
 30
0.0
 10
312.531491
 20
414.308623
 30
0.0
 10
312.648313
 20
414.596044
 30
0.0
 10
312.774780
 20
414.879353
 30
0.0
 10
312.910747
 20
415.158228
 30
0.0
 10
313.056060
 20
415.432349
 30
0.0
 10
313.210553
 20
415.701402
 30
0.0
 10
313.374048
 20
415.965083
 30
0.0
 10
313.546360
 20
416.223089
 30
0.0
 10
313.727291
 20
416.475124
 30
0.0
 10
313.916635
 20
416.720902
 30
0.0
 10
314.114175
 20
416.960142
 30
0.0
 10
314.269932
 20
417.139946
 30
0.0
 10
314.431743
 20
417.314322
 30
0.0
 10
314.599418
 20
417.483067
 30
0.0
 10
314.772762
 20
417.645983
 30
0.0
 10
314.951572
 20
417.802881
 30
0.0
 10
315.135640
 20
417.953575
 30
0.0
 10
315.324750
 20
418.097891
 30
0.0
 10
315.518682
 20
418.235661
 30
0.0
 10
315.717208
 20
418.366721
 30
0.0
 10
315.920097
 20
418.490922
 30
0.0
 10
316.127112
 20
418.608116
 30
0.0
 10
316.338011
 20
418.718167
 30
0.0
 10
316.552549
 20
418.820946
 30
0.0
 10
316.770473
 20
418.916334
 30
0.0
 10
316.991530
 20
419.004219
 30
0.0
 10
317.215460
 20
419.084498
 30
0.0
 10
317.442004
 20
419.157077
 30
0.0
 10
317.670895
 20
419.221872
 30
0.0
 10
317.901868
 20
419.278807
 30
0.0
 10
318.134650
 20
419.327816
 30
0.0
 10
318.368973
 20
419.368840
 30
0.0
 10
318.604559
 20
419.401833
 30
0.0
 10
318.841137
 20
419.426756
 30
0.0
 10
319.078427
 20
419.443578
 30
0.0
 10
319.316154
 20
419.452283
 30
0.0
 10
319.554039
 20
419.452857
 30
0.0
 10
319.763241
 20
419.460915
 30
0.0
 10
319.972594
 20
419.461932
 30
0.0
 10
320.181865
 20
419.455906
 30
0.0
 10
320.390814
 20
419.442845
 30
0.0
 10
320.599205
 20
419.422762
 30
0.0
 10
320.806802
 20
419.395681
 30
0.0
 10
321.013372
 20
419.361633
 30
0.0
 10
321.218680
 20
419.320657
 30
0.0
 10
321.422493
 20
419.272797
 30
0.0
 10
321.624580
 20
419.218110
 30
0.0
 10
321.824714
 20
419.156656
 30
0.0
 10
322.022668
 20
419.088505
 30
0.0
 10
322.218218
 20
419.013733
 30
0.0
 10
322.411141
 20
418.932428
 30
0.0
 10
322.601221
 20
418.844678
 30
0.0
 10
322.788242
 20
418.750585
 30
0.0
 10
322.971991
 20
418.650254
 30
0.0
 10
323.152262
 20
418.543800
 30
0.0
 10
323.328850
 20
418.431342
 30
0.0
 10
323.501557
 20
418.313009
 30
0.0
 10
323.670185
 20
418.188933
 30
0.0
 10
323.834544
 20
418.059255
 30
0.0
 10
323.994448
 20
417.924122
 30
0.0
 10
324.149716
 20
417.783687
 30
0.0
 10
324.300173
 20
417.638109
 30
0.0
 10
324.445648
 20
417.487553
 30
0.0
 10
324.585977
 20
417.332189
 30
0.0
 10
324.762766
 20
417.091870
 30
0.0
 10
324.931330
 20
416.845712
 30
0.0
 10
325.091473
 20
416.593994
 30
0.0
 10
325.243013
 20
416.337006
 30
0.0
 10
325.385778
 20
416.075041
 30
0.0
 10
325.519602
 20
415.808397
 30
0.0
 10
325.644334
 20
415.537382
 30
0.0
 10
325.759832
 20
415.262305
 30
0.0
 10
325.865962
 20
414.983479
 30
0.0
 10
325.962605
 20
414.701224
 30
0.0
 10
326.049647
 20
414.415863
 30
0.0
 10
326.126992
 20
414.127721
 30
0.0
 10
326.194549
 20
413.837130
 30
0.0
 10
326.252242
 20
413.544421
 30
0.0
 10
326.300005
 20
413.249927
 30
0.0
 10
326.337782
 20
412.953988
 30
0.0
 10
326.365532
 20
412.656940
 30
0.0
 10
326.383222
 20
412.359124
 30
0.0
 10
326.390832
 20
412.060879
 30
0.0
 10
326.388354
 20
411.762549
 30
0.0
 10
326.375789
 20
411.464472
 30
0.0
 10
326.375789
 20
410.098527
 30
0.0
  0
LWPOLYLINE
  5
125
100
AcDbEntity
  8
Default
 62
7
100
AcDbPolyline
 90
92
 70
0
 10
323.824607
 20
412.309550
 30
0.0
 10
323.832414
 20
412.494278
 30
0.0
 10
323.833834
 20
412.679165
 30
0.0
 10
323.828862
 20
412.863991
 30
0.0
 10
323.817508
 20
413.048535
 30
0.0
 10
323.799784
 20
413.232576
 30
0.0
 10
323.775710
 20
413.415895
 30
0.0
 10
323.745316
 20
413.598273
 30
0.0
 10
323.708638
 20
413.779490
 30
0.0
 10
323.665720
 20
413.959333
 30
0.0
 10
323.616613
 20
414.137585
 30
0.0
 10
323.561376
 20
414.314033
 30
0.0
 10
323.500074
 20
414.488469
 30
0.0
 10
323.432782
 20
414.660681
 30
0.0
 10
323.359579
 20
414.830465
 30
0.0
 10
323.280553
 20
414.997617
 30
0.0
 10
323.195798
 20
415.161940
 30
0.0
 10
323.105414
 20
415.323235
 30
0.0
 10
323.009512
 20
415.481311
 30
0.0
 10
322.908204
 20
415.635979
 30
0.0
 10
322.801613
 20
415.787053
 30
0.0
 10
322.689864
 20
415.934354
 30
0.0
 10
322.597036
 20
416.033990
 30
0.0
 10
322.500844
 20
416.130382
 30
0.0
 10
322.401401
 20
416.223417
 30
0.0
 10
322.298823
 20
416.312985
 30
0.0
 10
322.193234
 20
416.398980
 30
0.0
 10
322.084754
 20
416.481301
 30
0.0
 10
321.973514
 20
416.559851
 30
0.0
 10
321.859646
 20
416.634537
 30
0.0
 10
321.743280
 20
416.705273
 30
0.0
 10
321.624556
 20
416.771974
 30
0.0
 10
321.503613
 20
416.834562
 30
0.0
 10
321.380594
 20
416.892963
 30
0.0
 10
321.255643
 20
416.947108
 30
0.0
 10
321.128908
 20
416.996933
 30
0.0
 10
321.000538
 20
417.042381
 30
0.0
 10
320.870684
 20
417.083397
 30
0.0
 10
320.739498
 20
417.119933
 30
0.0
 10
320.607137
 20
417.151946
 30
0.0
 10
320.473755
 20
417.179398
 30
0.0
 10
320.339510
 20
417.202258
 30
0.0
 10
320.204558
 20
417.220497
 30
0.0
 10
320.069062
 20
417.234095
 30
0.0
 10
319.933178
 20
417.243035
 30
0.0
 10
319.797066
 20
417.247308
 30
0.0
 10
319.660890
 20
417.246907
 30
0.0
 10
319.524806
 20
417.241834
 30
0.0
 10
319.365586
 20
417.241166
 30
0.0
 10
319.206487
 20
417.234952
 30
0.0
 10
319.047701
 20
417.223197
 30
0.0
 10
318.889420
 20
417.205915
 30
0.0
 10
318.731838
 20
417.183129
 30
0.0
 10
318.575146
 20
417.154867
 30
0.0
 10
318.419533
 20
417.121161
 30
0.0
 10
318.265190
 20
417.082053
 30
0.0
 10
318.112302
 20
417.037592
 30
0.0
 10
317.961058
 20
416.987829
 30
0.0
 10
317.811638
 20
416.932827
 30
0.0
 10
317.664226
 20
416.872652
 30
0.0
 10
317.519001
 20
416.807377
 30
0.0
 10
317.376138
 20
416.737080
 30
0.0
 10
317.235811
 20
416.661849
 30
0.0
 10
317.098191
 20
416.581773
 30
0.0
 10
316.963446
 20
416.496951
 30
0.0
 10
316.831737
 20
416.407485
 30
0.0
 10
316.703226
 20
416.313484
 30
0.0
 10
316.578068
 20
416.215061
 30
0.0
 10
316.456416
 20
416.112338
 30
0.0
 10
316.338417
 20
416.005438
 30
0.0
 10
316.224214
 20
415.894492
 30
0.0
 10
316.084239
 20
415.748102
 30
0.0
 10
315.949197
 20
415.597151
 30
0.0
 10
315.819237
 20
415.441802
 30
0.0
 10
315.694501
 20
415.282228
 30
0.0
 10
315.575128
 20
415.118604
 30
0.0
 10
315.461248
 20
414.951110
 30
0.0
 10
315.352986
 20
414.779931
 30
0.0
 10
315.250463
 20
414.605254
 30
0.0
 10
315.153791
 20
414.427273
 30
0.0
 10
315.063076
 20
414.246183
 30
0.0
 10
314.978418
 20
414.062184
 30
0.0
 10
314.899910
 20
413.875477
 30
0.0
 10
314.827639
 20
413.686269
 30
0.0
 10
314.761685
 20
413.494767
 30
0.0
 10
314.702118
 20
413.301183
 30
0.0
 10
314.649007
 20
413.105729
 30
0.0
 10
314.602409
 20
412.908622
 30
0.0
 10
314.562374
 20
412.710077
 30
0.0
 10
314.528948
 20
412.510313
 30
0.0
 10
314.502167
 20
412.309550
 30
0.0
 10
323.824607
 20
412.309550
 30
0.0
  0
LWPOLYLINE
  5
126
100
AcDbEntity
  8
Default
 62
7
100
AcDbPolyline
 90
330
 70
0
 10
354.268702
 20
402.274905
 30
0.0
 10
351.717521
 20
402.274905
 30
0.0
 10
351.717521
 20
411.865753
 30
0.0
 10
351.734723
 20
412.118913
 30
0.0
 10
351.743145
 20
412.372519
 30
0.0
 10
351.742776
 20
412.626264
 30
0.0
 10
351.733618
 20
412.879843
 30
0.0
 10
351.715680
 20
413.132953
 30
0.0
 10
351.688985
 20
413.385290
 30
0.0
 10
351.653564
 20
413.636551
 30
0.0
 10
351.609461
 20
413.886433
 30
0.0
 10
351.556727
 20
414.134639
 30
0.0
 10
351.495426
 20
414.380868
 30
0.0
 10
351.425634
 20
414.624825
 30
0.0
 10
351.347430
 20
414.866219
 30
0.0
 10
351.260912
 20
415.104759
 30
0.0
 10
351.166182
 20
415.340158
 30
0.0
 10
351.063355
 20
415.572134
 30
0.0
 10
350.952553
 20
415.800409
 30
0.0
 10
350.833910
 20
416.024709
 30
0.0
 10
350.760402
 20
416.111353
 30
0.0
 10
350.684013
 20
416.195465
 30
0.0
 10
350.604829
 20
416.276953
 30
0.0
 10
350.522939
 20
416.355722
 30
0.0
 10
350.438438
 20
416.431683
 30
0.0
 10
350.351422
 20
416.504749
 30
0.0
 10
350.261990
 20
416.574836
 30
0.0
 10
350.170244
 20
416.641865
 30
0.0
 10
350.076288
 20
416.705761
 30
0.0
 10
349.980229
 20
416.766449
 30
0.0
 10
349.882176
 20
416.823861
 30
0.0
 10
349.782242
 20
416.877931
 30
0.0
 10
349.680541
 20
416.928598
 30
0.0
 10
349.577187
 20
416.975805
 30
0.0
 10
349.472299
 20
417.019496
 30
0.0
 10
349.365997
 20
417.059622
 30
0.0
 10
349.258401
 20
417.096139
 30
0.0
 10
349.149634
 20
417.129004
 30
0.0
 10
349.039819
 20
417.158179
 30
0.0
 10
348.929082
 20
417.183633
 30
0.0
 10
348.817550
 20
417.205334
 30
0.0
 10
348.705350
 20
417.223259
 30
0.0
 10
348.592607
 20
417.237388
 30
0.0
 10
348.479453
 20
417.247704
 30
0.0
 10
348.366014
 20
417.254195
 30
0.0
 10
348.252422
 20
417.256855
 30
0.0
 10
348.138804
 20
417.255680
 30
0.0
 10
348.025290
 20
417.250671
 30
0.0
 10
347.912010
 20
417.241834
 30
0.0
 10
347.787098
 20
417.237367
 30
0.0
 10
347.662414
 20
417.228605
 30
0.0
 10
347.538104
 20
417.215561
 30
0.0
 10
347.414317
 20
417.198248
 30
0.0
 10
347.291198
 20
417.176687
 30
0.0
 10
347.168894
 20
417.150905
 30
0.0
 10
347.047550
 20
417.120930
 30
0.0
 10
346.927307
 20
417.086800
 30
0.0
 10
346.808310
 20
417.048553
 30
0.0
 10
346.690699
 20
417.006237
 30
0.0
 10
346.574614
 20
416.959900
 30
0.0
 10
346.460190
 20
416.909597
 30
0.0
 10
346.347566
 20
416.855389
 30
0.0
 10
346.236871
 20
416.797338
 30
0.0
 10
346.128240
 20
416.735514
 30
0.0
 10
346.021798
 20
416.669990
 30
0.0
 10
345.917674
 20
416.600844
 30
0.0
 10
345.815990
 20
416.528157
 30
0.0
 10
345.716867
 20
416.452016
 30
0.0
 10
345.620421
 20
416.372510
 30
0.0
 10
345.526766
 20
416.289733
 30
0.0
 10
345.436015
 20
416.203785
 30
0.0
 10
345.348274
 20
416.114765
 30
0.0
 10
345.263646
 20
416.022781
 30
0.0
 10
345.182233
 20
415.927939
 30
0.0
 10
345.104130
 20
415.830353
 30
0.0
 10
345.029430
 20
415.730139
 30
0.0
 10
344.958220
 20
415.627415
 30
0.0
 10
344.837777
 20
415.462755
 30
0.0
 10
344.722915
 20
415.294154
 30
0.0
 10
344.613763
 20
415.121802
 30
0.0
 10
344.510444
 20
414.945892
 30
0.0
 10
344.413074
 20
414.766620
 30
0.0
 10
344.321761
 20
414.584188
 30
0.0
 10
344.236608
 20
414.398801
 30
0.0
 10
344.157711
 20
414.210666
 30
0.0
 10
344.085158
 20
414.019995
 30
0.0
 10
344.019030
 20
413.827001
 30
0.0
 10
343.959403
 20
413.631901
 30
0.0
 10
343.906342
 20
413.434913
 30
0.0
 10
343.859907
 20
413.236261
 30
0.0
 10
343.820150
 20
413.036163
 30
0.0
 10
343.787117
 20
412.834847
 30
0.0
 10
343.760842
 20
412.632537
 30
0.0
 10
343.741358
 20
412.429462
 30
0.0
 10
343.728685
 20
412.225848
 30
0.0
 10
343.722836
 20
412.021923
 30
0.0
 10
343.723820
 20
411.817917
 30
0.0
 10
343.723820
 20
402.274905
 30
0.0
 10
341.172639
 20
402.274905
 30
0.0
 10
341.172639
 20
412.216540
 30
0.0
 10
341.204281
 20
412.352197
 30
0.0
 10
341.231227
 20
412.488865
 30
0.0
 10
341.253446
 20
412.626379
 30
0.0
 10
341.270912
 20
412.764579
 30
0.0
 10
341.283602
 20
412.903298
 30
0.0
 10
341.291503
 20
413.042372
 30
0.0
 10
341.294605
 20
413.181636
 30
0.0
 10
341.292904
 20
413.320924
 30
0.0
 10
341.286402
 20
413.460071
 30
0.0
 10
341.275106
 20
413.598911
 30
0.0
 10
341.259032
 20
413.737278
 30
0.0
 10
341.238197
 20
413.875010
 30
0.0
 10
341.212626
 20
414.011941
 30
0.0
 10
341.182350
 20
414.147910
 30
0.0
 10
341.147404
 20
414.282753
 30
0.0
 10
341.107831
 20
414.416313
 30
0.0
 10
341.063677
 20
414.548429
 30
0.0
 10
341.014994
 20
414.678943
 30
0.0
 10
340.961842
 20
414.807701
 30
0.0
 10
340.904282
 20
414.934552
 30
0.0
 10
340.842382
 20
415.059342
 30
0.0
 10
340.776218
 20
415.181924
 30
0.0
 10
340.705868
 20
415.302153
 30
0.0
 10
340.631414
 20
415.419884
 30
0.0
 10
340.552946
 20
415.534979
 30
0.0
 10
340.470557
 20
415.647301
 30
0.0
 10
340.384345
 20
415.756715
 30
0.0
 10
340.294412
 20
415.863092
 30
0.0
 10
340.200865
 20
415.966306
 30
0.0
 10
340.103816
 20
416.066233
 30
0.0
 10
340.003379
 20
416.162756
 30
0.0
 10
339.899675
 20
416.255758
 30
0.0
 10
339.792826
 20
416.345130
 30
0.0
 10
339.682960
 20
416.430766
 30
0.0
 10
339.570206
 20
416.512563
 30
0.0
 10
339.454700
 20
416.590425
 30
0.0
 10
339.336578
 20
416.664258
 30
0.0
 10
339.215982
 20
416.733976
 30
0.0
 10
339.093054
 20
416.799494
 30
0.0
 10
338.967939
 20
416.860736
 30
0.0
 10
338.840789
 20
416.917628
 30
0.0
 10
338.711752
 20
416.970103
 30
0.0
 10
338.580983
 20
417.018098
 30
0.0
 10
338.448638
 20
417.061557
 30
0.0
 10
338.314872
 20
417.100427
 30
0.0
 10
338.179846
 20
417.134663
 30
0.0
 10
338.043720
 20
417.164224
 30
0.0
 10
337.906656
 20
417.189074
 30
0.0
 10
337.768817
 20
417.209185
 30
0.0
 10
337.630366
 20
417.224531
 30
0.0
 10
337.491470
 20
417.235096
 30
0.0
 10
337.352290
 20
417.240865
 30
0.0
 10
337.212995
 20
417.241834
 30
0.0
 10
337.088194
 20
417.240489
 30
0.0
 10
336.963511
 20
417.234917
 30
0.0
 10
336.839088
 20
417.225125
 30
0.0
 10
336.715068
 20
417.211121
 30
0.0
 10
336.591594
 20
417.192925
 30
0.0
 10
336.468807
 20
417.170555
 30
0.0
 10
336.346848
 20
417.144038
 30
0.0
 10
336.225858
 20
417.113405
 30
0.0
 10
336.105975
 20
417.078690
 30
0.0
 10
335.987338
 20
417.039933
 30
0.0
 10
335.870081
 20
416.997180
 30
0.0
 10
335.754340
 20
416.950478
 30
0.0
 10
335.640247
 20
416.899882
 30
0.0
 10
335.527935
 20
416.845449
 30
0.0
 10
335.417531
 20
416.787243
 30
0.0
 10
335.309162
 20
416.725329
 30
0.0
 10
335.202954
 20
416.659780
 30
0.0
 10
335.099027
 20
416.590669
 30
0.0
 10
334.997502
 20
416.518077
 30
0.0
 10
334.898494
 20
416.442088
 30
0.0
 10
334.802117
 20
416.362788
 30
0.0
 10
334.708482
 20
416.280268
 30
0.0
 10
334.617697
 20
416.194623
 30
0.0
 10
334.529866
 20
416.105951
 30
0.0
 10
334.445089
 20
416.014354
 30
0.0
 10
334.363463
 20
415.919938
 30
0.0
 10
334.285084
 20
415.822811
 30
0.0
 10
334.210041
 20
415.723084
 30
0.0
 10
334.088579
 20
415.553869
 30
0.0
 10
333.972962
 20
415.380607
 30
0.0
 10
333.863322
 20
415.203503
 30
0.0
 10
333.759789
 20
415.022761
 30
0.0
 10
333.662482
 20
414.838592
 30
0.0
 10
333.571514
 20
414.651210
 30
0.0
 10
333.486993
 20
414.460835
 30
0.0
 10
333.409015
 20
414.267686
 30
0.0
 10
333.337672
 20
414.071990
 30
0.0
 10
333.273046
 20
413.873974
 30
0.0
 10
333.215214
 20
413.673869
 30
0.0
 10
333.164242
 20
413.471906
 30
0.0
 10
333.120190
 20
413.268323
 30
0.0
 10
333.083110
 20
413.063355
 30
0.0
 10
333.053043
 20
412.857241
 30
0.0
 10
333.030026
 20
412.650222
 30
0.0
 10
333.014084
 20
412.442537
 30
0.0
 10
333.005237
 20
412.234431
 30
0.0
 10
333.003494
 20
412.026143
 30
0.0
 10
333.008859
 20
411.817917
 30
0.0
 10
333.008859
 20
402.274905
 30
0.0
 10
330.457678
 20
402.274905
 30
0.0
 10
330.457678
 20
419.112700
 30
0.0
 10
333.008859
 20
419.112700
 30
0.0
 10
333.008859
 20
416.391441
 30
0.0
 10
333.072640
 20
416.391441
 30
0.0
 10
333.166279
 20
416.562120
 30
0.0
 10
333.265653
 20
416.729525
 30
0.0
 10
333.370646
 20
416.893465
 30
0.0
 10
333.481139
 20
417.053749
 30
0.0
 10
333.597005
 20
417.210194
 30
0.0
 10
333.718109
 20
417.362619
 30
0.0
 10
333.844313
 20
417.510849
 30
0.0
 10
333.975471
 20
417.654715
 30
0.0
 10
334.111434
 20
417.794049
 30
0.0
 10
334.252042
 20
417.928693
 30
0.0
 10
334.397138
 20
418.058490
 30
0.0
 10
334.546550
 20
418.183292
 30
0.0
 10
334.700110
 20
418.302955
 30
0.0
 10
334.857639
 20
418.417341
 30
0.0
 10
335.018958
 20
418.526319
 30
0.0
 10
335.183878
 20
418.629764
 30
0.0
 10
335.352213
 20
418.727556
 30
0.0
 10
335.523767
 20
418.819582
 30
0.0
 10
335.698344
 20
418.905738
 30
0.0
 10
335.875742
 20
418.985924
 30
0.0
 10
336.055757
 20
419.060047
 30
0.0
 10
336.238182
 20
419.128023
 30
0.0
 10
336.422808
 20
419.189773
 30
0.0
 10
336.609422
 20
419.245226
 30
0.0
 10
336.797809
 20
419.294318
 30
0.0
 10
336.987753
 20
419.336993
 30
0.0
 10
337.179034
 20
419.373202
 30
0.0
 10
337.371434
 20
419.402903
 30
0.0
 10
337.564730
 20
419.426062
 30
0.0
 10
337.758701
 20
419.442653
 30
0.0
 10
337.953122
 20
419.452655
 30
0.0
 10
338.147771
 20
419.456057
 30
0.0
 10
338.342423
 20
419.452857
 30
0.0
 10
341.317473
 20
418.514769
 30
0.0
 10
343.157778
 20
415.942327
 30
0.0
 10
343.245697
 20
416.127653
 30
0.0
 10
343.339916
 20
416.309855
 30
0.0
 10
343.440326
 20
416.488721
 30
0.0
 10
343.546807
 20
416.664041
 30
0.0
 10
343.659235
 20
416.835607
 30
0.0
 10
343.777478
 20
417.003219
 30
0.0
 10
343.901398
 20
417.166679
 30
0.0
 10
344.030846
 20
417.325796
 30
0.0
 10
344.165674
 20
417.480381
 30
0.0
 10
344.305721
 20
417.630255
 30
0.0
 10
344.450822
 20
417.775240
 30
0.0
 10
344.600808
 20
417.915166
 30
0.0
 10
344.755502
 20
418.049869
 30
0.0
 10
344.914723
 20
418.179190
 30
0.0
 10
345.078283
 20
418.302977
 30
0.0
 10
345.245990
 20
418.421085
 30
0.0
 10
345.417646
 20
418.533376
 30
0.0
 10
345.593052
 20
418.639716
 30
0.0
 10
345.771998
 20
418.739981
 30
0.0
 10
345.954277
 20
418.834054
 30
0.0
 10
346.139673
 20
418.921824
 30
0.0
 10
346.327969
 20
419.003186
 30
0.0
 10
346.518942
 20
419.078047
 30
0.0
 10
346.712370
 20
419.146318
 30
0.0
 10
346.908024
 20
419.207918
 30
0.0
 10
347.105675
 20
419.262776
 30
0.0
 10
347.305090
 20
419.310826
 30
0.0
 10
347.506034
 20
419.352013
 30
0.0
 10
347.708273
 20
419.386288
 30
0.0
 10
347.911567
 20
419.413610
 30
0.0
 10
348.115679
 20
419.433949
 30
0.0
 10
348.320368
 20
419.447278
 30
0.0
 10
348.525393
 20
419.453584
 30
0.0
 10
348.730514
 20
419.452857
 30
0.0
 10
348.922314
 20
419.454610
 30
0.0
 10
349.114058
 20
419.449729
 30
0.0
 10
349.305520
 20
419.438218
 30
0.0
 10
349.496469
 20
419.420093
 30
0.0
 10
349.686677
 20
419.395377
 30
0.0
 10
349.875916
 20
419.364096
 30
0.0
 10
350.063960
 20
419.326289
 30
0.0
 10
350.250585
 20
419.282003
 30
0.0
 10
350.435566
 20
419.231289
 30
0.0
 10
350.618682
 20
419.174207
 30
0.0
 10
350.799715
 20
419.110827
 30
0.0
 10
350.978448
 20
419.041225
 30
0.0
 10
351.154667
 20
418.965482
 30
0.0
 10
351.328161
 20
418.883691
 30
0.0
 10
351.498722
 20
418.795949
 30
0.0
 10
351.666148
 20
418.702360
 30
0.0
 10
351.830236
 20
418.603037
 30
0.0
 10
351.990791
 20
418.498100
 30
0.0
 10
352.147622
 20
418.387673
 30
0.0
 10
352.300539
 20
418.271887
 30
0.0
 10
352.449361
 20
418.150883
 30
0.0
 10
352.593909
 20
418.024804
 30
0.0
 10
352.734010
 20
417.893802
 30
0.0
 10
352.869498
 20
417.758033
 30
0.0
 10
353.000208
 20
417.617660
 30
0.0
 10
353.125986
 20
417.472849
 30
0.0
 10
353.246681
 20
417.323777
 30
0.0
 10
353.362148
 20
417.170619
 30
0.0
 10
353.472249
 20
417.013559
 30
0.0
 10
353.576853
 20
416.852786
 30
0.0
 10
353.675834
 20
416.688492
 30
0.0
 10
353.769074
 20
416.520873
 30
0.0
 10
353.856462
 20
416.350129
 30
0.0
 10
353.937892
 20
416.176465
 30
0.0
 10
354.013268
 20
416.000089
 30
0.0
 10
354.082499
 20
415.821212
 30
0.0
 10
354.145502
 20
415.640048
 30
0.0
 10
354.202203
 20
415.456813
 30
0.0
 10
354.252533
 20
415.271726
 30
0.0
 10
354.296432
 20
415.085010
 30
0.0
 10
354.333847
 20
414.896888
 30
0.0
 10
354.364734
 20
414.707584
 30
0.0
 10
354.389056
 20
414.517325
 30
0.0
 10
354.406783
 20
414.326339
 30
0.0
 10
354.417895
 20
414.134854
 30
0.0
 10
354.422378
 20
413.943100
 30
0.0
 10
354.420228
 20
413.751305
 30
0.0
 10
354.411445
 20
413.559698
 30
0.0
 10
354.396042
 20
413.368511
 30
0.0
 10
354.374034
 20
413.177970
 30
0.0
 10
354.345452
 20
412.988305
 30
0.0
 10
354.310327
 20
412.799741
 30
0.0
 10
354.268702
 20
412.612505
 30
0.0
 10
354.268702
 20
402.274905
 30
0.0
  0
LWPOLYLINE
  5
127
100
AcDbEntity
  8
Default
 62
7
100
AcDbPolyline
 90
87
 70
0
 10
372.637206
 20
419.112700
 30
0.0
 10
364.789669
 20
399.436717
 30
0.0
 10
364.736895
 20
399.212960
 30
0.0
 10
364.676349
 20
398.991180
 30
0.0
 10
364.608102
 20
398.771647
 30
0.0
 10
364.532239
 20
398.554629
 30
0.0
 10
364.448852
 20
398.340389
 30
0.0
 10
364.358042
 20
398.129188
 30
0.0
 10
364.259918
 20
397.921283
 30
0.0
 10
364.154603
 20
397.716929
 30
0.0
 10
364.042223
 20
397.516372
 30
0.0
 10
363.922915
 20
397.319858
 30
0.0
 10
363.796824
 20
397.127625
 30
0.0
 10
363.664104
 20
396.939908
 30
0.0
 10
363.524917
 20
396.756935
 30
0.0
 10
363.379431
 20
396.578929
 30
0.0
 10
363.227825
 20
396.406106
 30
0.0
 10
363.070282
 20
396.238677
 30
0.0
 10
362.906994
 20
396.076846
 30
0.0
 10
362.738160
 20
395.920810
 30
0.0
 10
362.563986
 20
395.770758
 30
0.0
 10
362.384683
 20
395.626873
 30
0.0
 10
362.200470
 20
395.489331
 30
0.0
 10
362.011571
 20
395.358299
 30
0.0
 10
361.818216
 20
395.233936
 30
0.0
 10
361.620641
 20
395.116393
 30
0.0
 10
361.419085
 20
395.005815
 30
0.0
 10
361.213794
 20
394.902335
 30
0.0
 10
361.005019
 20
394.806080
 30
0.0
 10
360.793014
 20
394.717165
 30
0.0
 10
360.578035
 20
394.635701
 30
0.0
 10
360.360346
 20
394.561786
 30
0.0
 10
360.140210
 20
394.495509
 30
0.0
 10
359.917896
 20
394.436953
 30
0.0
 10
359.693675
 20
394.386186
 30
0.0
 10
359.467820
 20
394.343273
 30
0.0
 10
359.240605
 20
394.308265
 30
0.0
 10
359.012306
 20
394.281204
 30
0.0
 10
357.330119
 20
394.451283
 30
0.0
 10
357.330119
 20
396.832385
 30
0.0
 10
358.908663
 20
396.492228
 30
0.0
 10
359.023778
 20
396.498597
 30
0.0
 10
359.138610
 20
396.508893
 30
0.0
 10
359.253022
 20
396.523105
 30
0.0
 10
359.366881
 20
396.541217
 30
0.0
 10
359.480056
 20
396.563208
 30
0.0
 10
359.592414
 20
396.589050
 30
0.0
 10
359.703823
 20
396.618716
 30
0.0
 10
359.814154
 20
396.652169
 30
0.0
 10
359.923279
 20
396.689370
 30
0.0
 10
360.031069
 20
396.730277
 30
0.0
 10
360.137399
 20
396.774841
 30
0.0
 10
360.242146
 20
396.823012
 30
0.0
 10
360.345185
 20
396.874731
 30
0.0
 10
360.446398
 20
396.929940
 30
0.0
 10
360.545666
 20
396.988573
 30
0.0
 10
360.642874
 20
397.050563
 30
0.0
 10
360.737909
 20
397.115836
 30
0.0
 10
360.830658
 20
397.184317
 30
0.0
 10
360.921014
 20
397.255926
 30
0.0
 10
361.008873
 20
397.330579
 30
0.0
 10
361.094130
 20
397.408189
 30
0.0
 10
361.176686
 20
397.488667
 30
0.0
 10
361.256446
 20
397.571917
 30
0.0
 10
361.333315
 20
397.657841
 30
0.0
 10
361.407206
 20
397.746342
 30
0.0
 10
361.478030
 20
397.837314
 30
0.0
 10
361.545706
 20
397.930653
 30
0.0
 10
361.610154
 20
398.026248
 30
0.0
 10
361.671301
 20
398.123989
 30
0.0
 10
361.729073
 20
398.223761
 30
0.0
 10
361.783404
 20
398.325448
 30
0.0
 10
361.834230
 20
398.428931
 30
0.0
 10
361.881492
 20
398.534090
 30
0.0
 10
361.925135
 20
398.640802
 30
0.0
 10
361.965108
 20
398.748942
 30
0.0
 10
362.001364
 20
398.858384
 30
0.0
 10
362.033861
 20
398.969001
 30
0.0
 10
363.455611
 20
402.235045
 30
0.0
 10
356.819883
 20
419.112700
 30
0.0
 10
359.711222
 20
419.112700
 30
0.0
 10
364.353841
 20
405.910339
 30
0.0
 10
364.707286
 20
404.703842
 30
0.0
 10
364.789669
 20
404.703842
 30
0.0
 10
365.113881
 20
405.878449
 30
0.0
 10
370.086025
 20
419.112700
 30
0.0
 10
372.637206
 20
419.112700
 30
0.0
  0
LWPOLYLINE
  5
128
100
AcDbEntity
  8
Default
 62
7
100
AcDbPolyline
 90
153
 70
0
 10
397.298623
 20
419.540556
 30
0.0
 10
397.304383
 20
419.692119
 30
0.0
 10
397.304866
 20
419.843790
 30
0.0
 10
397.300069
 20
419.995387
 30
0.0
 10
397.290000
 20
420.146725
 30
0.0
 10
397.274670
 20
420.297621
 30
0.0
 10
397.254100
 20
420.447892
 30
0.0
 10
397.228312
 20
420.597356
 30
0.0
 10
397.197338
 20
420.745832
 30
0.0
 10
397.161217
 20
420.893140
 30
0.0
 10
397.119990
 20
421.039102
 30
0.0
 10
397.073710
 20
421.183541
 30
0.0
 10
397.022431
 20
421.326282
 30
0.0
 10
396.966216
 20
421.467152
 30
0.0
 10
396.905133
 20
421.605981
 30
0.0
 10
396.839255
 20
421.742600
 30
0.0
 10
396.768663
 20
421.876843
 30
0.0
 10
396.693442
 20
422.008549
 30
0.0
 10
396.613684
 20
422.137557
 30
0.0
 10
396.529485
 20
422.263711
 30
0.0
 10
396.440946
 20
422.386859
 30
0.0
 10
396.348175
 20
422.506852
 30
0.0
 10
396.251286
 20
422.623543
 30
0.0
 10
396.150394
 20
422.736792
 30
0.0
 10
396.045622
 20
422.846461
 30
0.0
 10
395.927266
 20
422.950731
 30
0.0
 10
395.805413
 20
423.050892
 30
0.0
 10
395.680205
 20
423.146825
 30
0.0
 10
395.551789
 20
423.238420
 30
0.0
 10
395.420315
 20
423.325569
 30
0.0
 10
395.285938
 20
423.408170
 30
0.0
 10
395.148813
 20
423.486126
 30
0.0
 10
395.009102
 20
423.559346
 30
0.0
 10
394.866969
 20
423.627745
 30
0.0
 10
394.722578
 20
423.691241
 30
0.0
 10
394.576102
 20
423.749761
 30
0.0
 10
394.427708
 20
423.803237
 30
0.0
 10
394.277572
 20
423.851607
 30
0.0
 10
394.125870
 20
423.894812
 30
0.0
 10
393.972778
 20
423.932803
 30
0.0
 10
393.818477
 20
423.965535
 30
0.0
 10
393.663146
 20
423.992970
 30
0.0
 10
393.506969
 20
424.015077
 30
0.0
 10
393.350126
 20
424.031828
 30
0.0
 10
393.192802
 20
424.043204
 30
0.0
 10
393.035180
 20
424.049193
 30
0.0
 10
392.877446
 20
424.049785
 30
0.0
 10
392.719785
 20
424.044984
 30
0.0
 10
389.760682
 20
423.272987
 30
0.0
 10
387.093899
 20
421.153645
 30
0.0
 10
387.093899
 20
423.909453
 30
0.0
 10
387.291598
 20
424.100801
 30
0.0
 10
387.495749
 20
424.285250
 30
0.0
 10
387.706110
 20
424.462584
 30
0.0
 10
387.922433
 20
424.632593
 30
0.0
 10
388.144465
 20
424.795077
 30
0.0
 10
388.371942
 20
424.949844
 30
0.0
 10
388.604598
 20
425.096712
 30
0.0
 10
388.842158
 20
425.235508
 30
0.0
 10
389.084342
 20
425.366069
 30
0.0
 10
389.330864
 20
425.488240
 30
0.0
 10
389.581434
 20
425.601877
 30
0.0
 10
389.835758
 20
425.706847
 30
0.0
 10
390.093534
 20
425.803026
 30
0.0
 10
390.354459
 20
425.890301
 30
0.0
 10
390.618226
 20
425.968569
 30
0.0
 10
390.884525
 20
426.037737
 30
0.0
 10
391.153041
 20
426.097724
 30
0.0
 10
391.423457
 20
426.148459
 30
0.0
 10
391.695455
 20
426.189882
 30
0.0
 10
391.968715
 20
426.221946
 30
0.0
 10
392.242914
 20
426.244611
 30
0.0
 10
392.517730
 20
426.257852
 30
0.0
 10
392.792838
 20
426.261652
 30
0.0
 10
393.067915
 20
426.256007
 30
0.0
 10
393.300600
 20
426.262793
 30
0.0
 10
393.533382
 20
426.261705
 30
0.0
 10
393.765994
 20
426.252745
 30
0.0
 10
393.998169
 20
426.235925
 30
0.0
 10
394.229643
 20
426.211262
 30
0.0
 10
394.460150
 20
426.178785
 30
0.0
 10
394.689428
 20
426.138532
 30
0.0
 10
394.917213
 20
426.090547
 30
0.0
 10
395.143245
 20
426.034887
 30
0.0
 10
395.367265
 20
425.971614
 30
0.0
 10
395.589017
 20
425.900801
 30
0.0
 10
395.808247
 20
425.822530
 30
0.0
 10
396.024706
 20
425.736890
 30
0.0
 10
396.238144
 20
425.643978
 30
0.0
 10
396.448318
 20
425.543901
 30
0.0
 10
396.654987
 20
425.436774
 30
0.0
 10
396.857915
 20
425.322719
 30
0.0
 10
397.056870
 20
425.201866
 30
0.0
 10
397.251624
 20
425.074354
 30
0.0
 10
397.441954
 20
424.940329
 30
0.0
 10
397.627644
 20
424.799943
 30
0.0
 10
397.808479
 20
424.653358
 30
0.0
 10
397.984254
 20
424.500742
 30
0.0
 10
398.132072
 20
424.351929
 30
0.0
 10
398.274764
 20
424.198192
 30
0.0
 10
398.412165
 20
424.039709
 30
0.0
 10
398.544117
 20
423.876661
 30
0.0
 10
398.670468
 20
423.709237
 30
0.0
 10
398.791074
 20
423.537626
 30
0.0
 10
398.905796
 20
423.362028
 30
0.0
 10
399.014502
 20
423.182644
 30
0.0
 10
399.117068
 20
422.999678
 30
0.0
 10
399.213375
 20
422.813344
 30
0.0
 10
399.303314
 20
422.623852
 30
0.0
 10
399.386780
 20
422.431422
 30
0.0
 10
399.463678
 20
422.236275
 30
0.0
 10
399.533919
 20
422.038633
 30
0.0
 10
399.597424
 20
421.838726
 30
0.0
 10
399.654118
 20
421.636781
 30
0.0
 10
399.703937
 20
421.433032
 30
0.0
 10
399.746824
 20
421.227711
 30
0.0
 10
399.782730
 20
421.021055
 30
0.0
 10
399.811612
 20
420.813301
 30
0.0
 10
399.833438
 20
420.604688
 30
0.0
 10
399.848183
 20
420.395455
 30
0.0
 10
399.855830
 20
420.185843
 30
0.0
 10
399.856371
 20
419.976092
 30
0.0
 10
399.849804
 20
419.766442
 30
0.0
 10
399.851339
 20
419.490017
 30
0.0
 10
399.843734
 20
419.213691
 30
0.0
 10
399.826995
 20
418.937769
 30
0.0
 10
399.801143
 20
418.662550
 30
0.0
 10
399.766204
 20
418.388337
 30
0.0
 10
399.722218
 20
418.115429
 30
0.0
 10
399.669232
 20
417.844124
 30
0.0
 10
399.607304
 20
417.574720
 30
0.0
 10
399.536502
 20
417.307511
 30
0.0
 10
399.456904
 20
417.042789
 30
0.0
 10
399.368597
 20
416.780844
 30
0.0
 10
399.271676
 20
416.521961
 30
0.0
 10
399.166248
 20
416.266425
 30
0.0
 10
399.052429
 20
416.014516
 30
0.0
 10
398.930342
 20
415.766506
 30
0.0
 10
398.800122
 20
415.522670
 30
0.0
 10
398.661910
 20
415.283273
 30
0.0
 10
394.617226
 20
411.312996
 30
0.0
 10
390.867522
 20
408.430960
 30
0.0
 10
389.389962
 20
406.570722
 30
0.0
 10
388.964765
 20
404.485929
 30
0.0
 10
400.360041
 20
404.485929
 30
0.0
 10
400.360041
 20
402.274905
 30
0.0
 10
386.243505
 20
402.274905
 30
0.0
 10
386.243505
 20
403.422938
 30
0.0
 10
386.778988
 20
406.712897
 30
0.0
 10
388.568801
 20
409.374364
 30
0.0
 10
392.586911
 20
412.585930
 30
0.0
 10
396.203742
 20
415.926383
 30
0.0
 10
397.298623
 20
419.540556
 30
0.0
  0
LWPOLYLINE
  5
129
100
AcDbEntity
  8
Default
 62
7
100
AcDbPolyline
 90
203
 70
0
 10
403.761615
 20
413.622348
 30
0.0
 10
403.733596
 20
414.232788
 30
0.0
 10
403.726672
 20
414.843831
 30
0.0
 10
403.740852
 20
415.454749
 30
0.0
 10
403.776118
 20
416.064813
 30
0.0
 10
403.832429
 20
416.673296
 30
0.0
 10
403.909717
 20
417.279471
 30
0.0
 10
404.007891
 20
417.882617
 30
0.0
 10
404.126833
 20
418.482012
 30
0.0
 10
404.266401
 20
419.076942
 30
0.0
 10
404.426429
 20
419.666699
 30
0.0
 10
404.606726
 20
420.250578
 30
0.0
 10
404.807077
 20
420.827884
 30
0.0
 10
405.027243
 20
421.397927
 30
0.0
 10
405.266962
 20
421.960027
 30
0.0
 10
405.525946
 20
422.513515
 30
0.0
 10
405.803889
 20
423.057730
 30
0.0
 10
405.923435
 20
423.250353
 30
0.0
 10
406.049554
 20
423.438737
 30
0.0
 10
406.182097
 20
423.622658
 30
0.0
 10
406.320906
 20
423.801898
 30
0.0
 10
406.465814
 20
423.976243
 30
0.0
 10
406.616651
 20
424.145485
 30
0.0
 10
406.773237
 20
424.309424
 30
0.0
 10
406.935384
 20
424.467863
 30
0.0
 10
407.102900
 20
424.620614
 30
0.0
 10
407.275586
 20
424.767496
 30
0.0
 10
407.453235
 20
424.908333
 30
0.0
 10
407.635638
 20
425.042959
 30
0.0
 10
407.822576
 20
425.171213
 30
0.0
 10
408.013826
 20
425.292941
 30
0.0
 10
408.209163
 20
425.408000
 30
0.0
 10
408.408352
 20
425.516252
 30
0.0
 10
408.611156
 20
425.617568
 30
0.0
 10
408.817335
 20
425.711828
 30
0.0
 10
409.026643
 20
425.798920
 30
0.0
 10
409.238830
 20
425.878739
 30
0.0
 10
409.453645
 20
425.951192
 30
0.0
 10
409.670831
 20
426.016190
 30
0.0
 10
409.890130
 20
426.073659
 30
0.0
 10
410.111282
 20
426.123529
 30
0.0
 10
410.334021
 20
426.165739
 30
0.0
 10
410.558084
 20
426.200241
 30
0.0
 10
410.783204
 20
426.226993
 30
0.0
 10
411.009113
 20
426.245965
 30
0.0
 10
411.235542
 20
426.257131
 30
0.0
 10
411.462221
 20
426.260480
 30
0.0
 10
411.688881
 20
426.256007
 30
0.0
 10
411.917698
 20
426.253064
 30
0.0
 10
412.142913
 20
426.244233
 30
0.0
 10
412.364523
 20
426.229515
 30
0.0
 10
412.582531
 20
426.208909
 30
0.0
 10
412.796935
 20
426.182417
 30
0.0
 10
413.007735
 20
426.150037
 30
0.0
 10
413.214933
 20
426.111771
 30
0.0
 10
413.418526
 20
426.067617
 30
0.0
 10
413.618517
 20
426.017576
 30
0.0
 10
413.814903
 20
425.961647
 30
0.0
 10
414.007687
 20
425.899832
 30
0.0
 10
414.196867
 20
425.832129
 30
0.0
 10
414.382443
 20
425.758539
 30
0.0
 10
414.564417
 20
425.679061
 30
0.0
 10
414.742786
 20
425.593697
 30
0.0
 10
414.830620
 20
425.548807
 30
0.0
 10
414.917553
 20
425.502445
 30
0.0
 10
415.003585
 20
425.454612
 30
0.0
 10
415.088715
 20
425.405307
 30
0.0
 10
415.172946
 20
425.354529
 30
0.0
 10
415.256275
 20
425.302281
 30
0.0
 10
415.338703
 20
425.248560
 30
0.0
 10
415.420231
 20
425.193368
 30
0.0
 10
415.580583
 20
425.078567
 30
0.0
 10
415.737333
 20
424.957879
 30
0.0
 10
415.890478
 20
424.831305
 30
0.0
 10
416.040021
 20
424.698842
 30
0.0
 10
416.185959
 20
424.560493
 30
0.0
 10
416.328294
 20
424.416257
 30
0.0
 10
416.467026
 20
424.266133
 30
0.0
 10
416.602155
 20
424.110122
 30
0.0
 10
416.733681
 20
423.948225
 30
0.0
 10
416.861602
 20
423.780439
 30
0.0
 10
416.985921
 20
423.606767
 30
0.0
 10
417.106635
 20
423.427207
 30
0.0
 10
417.223746
 20
423.241761
 30
0.0
 10
417.337254
 20
423.050426
 30
0.0
 10
417.447159
 20
422.853205
 30
0.0
 10
417.553460
 20
422.650097
 30
0.0
 10
417.656158
 20
422.441101
 30
0.0
 10
417.755252
 20
422.226218
 30
0.0
 10
417.850743
 20
422.005448
 30
0.0
 10
417.942630
 20
421.778791
 30
0.0
 10
418.030914
 20
421.546246
 30
0.0
 10
418.115595
 20
421.307815
 30
0.0
 10
418.196672
 20
421.063496
 30
0.0
 10
418.274146
 20
420.813289
 30
0.0
 10
418.348016
 20
420.557197
 30
0.0
 10
418.418283
 20
420.295216
 30
0.0
 10
418.484946
 20
420.027349
 30
0.0
 10
418.607463
 20
419.473952
 30
0.0
 10
418.715566
 20
418.897006
 30
0.0
 10
418.809255
 20
418.296511
 30
0.0
 10
418.888530
 20
417.672468
 30
0.0
 10
418.953392
 20
417.024876
 30
0.0
 10
419.003840
 20
416.353735
 30
0.0
 10
419.039874
 20
415.659045
 30
0.0
 10
419.061495
 20
414.940807
 30
0.0
 10
419.068702
 20
414.199019
 30
0.0
 10
419.093230
 20
413.643184
 30
0.0
 10
419.099298
 20
413.086841
 30
0.0
 10
419.086897
 20
412.530603
 30
0.0
 10
419.056042
 20
411.975083
 30
0.0
 10
419.006766
 20
411.420893
 30
0.0
 10
418.939124
 20
410.868645
 30
0.0
 10
418.853191
 20
410.318945
 30
0.0
 10
418.749061
 20
409.772400
 30
0.0
 10
418.626849
 20
409.229612
 30
0.0
 10
418.486689
 20
408.691179
 30
0.0
 10
418.328736
 20
408.157695
 30
0.0
 10
418.153164
 20
407.629747
 30
0.0
 10
417.960166
 20
407.107917
 30
0.0
 10
417.749956
 20
406.592781
 30
0.0
 10
417.522765
 20
406.084904
 30
0.0
 10
417.278842
 20
405.584848
 30
0.0
 10
417.018457
 20
405.093163
 30
0.0
 10
416.898212
 20
404.902793
 30
0.0
 10
416.771525
 20
404.716647
 30
0.0
 10
416.638546
 20
404.534944
 30
0.0
 10
416.499429
 20
404.357895
 30
0.0
 10
416.354338
 20
404.185709
 30
0.0
 10
416.203442
 20
404.018585
 30
0.0
 10
416.046918
 20
403.856722
 30
0.0
 10
415.884948
 20
403.700306
 30
0.0
 10
415.717724
 20
403.549523
 30
0.0
 10
415.545440
 20
403.404547
 30
0.0
 10
415.368298
 20
403.265549
 30
0.0
 10
415.186506
 20
403.132692
 30
0.0
 10
415.000274
 20
403.006130
 30
0.0
 10
414.809824
 20
402.886013
 30
0.0
 10
414.615376
 20
402.772480
 30
0.0
 10
414.417158
 20
402.665665
 30
0.0
 10
414.215403
 20
402.565692
 30
0.0
 10
414.010347
 20
402.472678
 30
0.0
 10
413.802229
 20
402.386733
 30
0.0
 10
413.591293
 20
402.307957
 30
0.0
 10
413.377786
 20
402.236441
 30
0.0
 10
413.161958
 20
402.172271
 30
0.0
 10
412.944061
 20
402.115521
 30
0.0
 10
412.724350
 20
402.066257
 30
0.0
 10
412.503083
 20
402.024536
 30
0.0
 10
412.280518
 20
401.990409
 30
0.0
 10
412.056917
 20
401.963914
 30
0.0
 10
411.832539
 20
401.945083
 30
0.0
 10
411.607650
 20
401.933937
 30
0.0
 10
411.382510
 20
401.930491
 30
0.0
 10
411.157384
 20
401.934747
 30
0.0
 10
410.950734
 20
401.931052
 30
0.0
 10
410.744078
 20
401.934372
 30
0.0
 10
410.537654
 20
401.944702
 30
0.0
 10
410.331698
 20
401.962033
 30
0.0
 10
410.126450
 20
401.986341
 30
0.0
 10
409.922145
 20
402.017602
 30
0.0
 10
409.719018
 20
402.055778
 30
0.0
 10
409.517305
 20
402.100825
 30
0.0
 10
409.317235
 20
402.152692
 30
0.0
 10
409.119042
 20
402.211318
 30
0.0
 10
408.922951
 20
402.276636
 30
0.0
 10
408.729190
 20
402.348571
 30
0.0
 10
408.537983
 20
402.427041
 30
0.0
 10
408.349548
 20
402.511953
 30
0.0
 10
408.164103
 20
402.603212
 30
0.0
 10
407.981862
 20
402.700710
 30
0.0
 10
407.803035
 20
402.804338
 30
0.0
 10
407.627828
 20
402.913974
 30
0.0
 10
407.456442
 20
403.029493
 30
0.0
 10
407.289074
 20
403.150762
 30
0.0
 10
407.125919
 20
403.277641
 30
0.0
 10
406.967164
 20
403.409983
 30
0.0
 10
406.812991
 20
403.547637
 30
0.0
 10
406.663578
 20
403.690443
 30
0.0
 10
406.519098
 20
403.838237
 30
0.0
 10
406.379716
 20
403.990850
 30
0.0
 10
406.245594
 20
404.148105
 30
0.0
 10
406.116885
 20
404.309820
 30
0.0
 10
405.993738
 20
404.475810
 30
0.0
 10
405.876296
 20
404.645884
 30
0.0
 10
405.764692
 20
404.819845
 30
0.0
 10
405.659057
 20
404.997493
 30
0.0
 10
405.404967
 20
405.495193
 30
0.0
 10
405.167976
 20
406.001259
 30
0.0
 10
404.948358
 20
406.515102
 30
0.0
 10
404.746368
 20
407.036127
 30
0.0
 10
404.562241
 20
407.563729
 30
0.0
 10
404.396190
 20
408.097296
 30
0.0
 10
404.248406
 20
408.636209
 30
0.0
 10
404.119064
 20
409.179842
 30
0.0
 10
404.008311
 20
409.727565
 30
0.0
 10
403.916278
 20
410.278743
 30
0.0
 10
403.843070
 20
410.832736
 30
0.0
 10
403.788772
 20
411.388900
 30
0.0
 10
403.753447
 20
411.946591
 30
0.0
 10
403.737138
 20
412.505161
 30
0.0
 10
403.739862
 20
413.063963
 30
0.0
 10
403.761615
 20
413.622348
 30
0.0
  0
LWPOLYLINE
  5
12a
100
AcDbEntity
  8
Default
 62
7
100
AcDbPolyline
 90
236
 70
0
 10
406.312797
 20
413.760536
 30
0.0
 10
406.230162
 20
413.518612
 30
0.0
 10
406.156001
 20
413.273957
 30
0.0
 10
406.090402
 20
413.026869
 30
0.0
 10
406.033446
 20
412.777646
 30
0.0
 10
405.985200
 20
412.526592
 30
0.0
 10
405.945725
 20
412.274010
 30
0.0
 10
405.915067
 20
412.020208
 30
0.0
 10
405.893264
 20
411.765491
 30
0.0
 10
405.880342
 20
411.510170
 30
0.0
 10
405.876318
 20
411.254553
 30
0.0
 10
405.881195
 20
410.998953
 30
0.0
 10
405.894969
 20
410.743676
 30
0.0
 10
405.917621
 20
410.489033
 30
0.0
 10
405.949125
 20
410.235334
 30
0.0
 10
405.989442
 20
409.982885
 30
0.0
 10
406.038525
 20
409.731993
 30
0.0
 10
406.096312
 20
409.482962
 30
0.0
 10
406.162734
 20
409.236094
 30
0.0
 10
406.237712
 20
408.991689
 30
0.0
 10
406.321153
 20
408.750041
 30
0.0
 10
406.412956
 20
408.511445
 30
0.0
 10
406.513010
 20
408.276190
 30
0.0
 10
406.621194
 20
408.044561
 30
0.0
 10
406.737378
 20
407.816839
 30
0.0
 10
406.861418
 20
407.593300
 30
0.0
 10
406.993166
 20
407.374215
 30
0.0
 10
407.132462
 20
407.159849
 30
0.0
 10
407.279137
 20
406.950464
 30
0.0
 10
407.433012
 20
406.746311
 30
0.0
 10
407.593902
 20
406.547640
 30
0.0
 10
407.761611
 20
406.354690
 30
0.0
 10
407.935936
 20
406.167697
 30
0.0
 10
408.116666
 20
405.986886
 30
0.0
 10
408.303581
 20
405.812477
 30
0.0
 10
408.496455
 20
405.644681
 30
0.0
 10
408.695054
 20
405.483701
 30
0.0
 10
408.899137
 20
405.329734
 30
0.0
 10
409.108457
 20
405.182965
 30
0.0
 10
409.322759
 20
405.043573
 30
0.0
 10
409.541786
 20
404.911727
 30
0.0
 10
409.765269
 20
404.787585
 30
0.0
 10
409.992938
 20
404.671300
 30
0.0
 10
410.224519
 20
404.563012
 30
0.0
 10
410.459729
 20
404.462852
 30
0.0
 10
410.698283
 20
404.370941
 30
0.0
 10
410.939894
 20
404.287392
 30
0.0
 10
411.184266
 20
404.212305
 30
0.0
 10
411.431104
 20
404.145771
 30
0.0
 10
411.679054
 20
404.216474
 30
0.0
 10
411.924411
 20
404.295706
 30
0.0
 10
412.166883
 20
404.383373
 30
0.0
 10
412.406180
 20
404.479369
 30
0.0
 10
412.642014
 20
404.583579
 30
0.0
 10
412.874106
 20
404.695880
 30
0.0
 10
413.102178
 20
404.816137
 30
0.0
 10
413.325955
 20
404.944205
 30
0.0
 10
413.545171
 20
405.079933
 30
0.0
 10
413.759566
 20
405.223158
 30
0.0
 10
413.968880
 20
405.373709
 30
0.0
 10
414.172865
 20
405.531405
 30
0.0
 10
414.371277
 20
405.696059
 30
0.0
 10
414.563878
 20
405.867473
 30
0.0
 10
414.750439
 20
406.045442
 30
0.0
 10
414.930736
 20
406.229754
 30
0.0
 10
415.104554
 20
406.420189
 30
0.0
 10
415.271686
 20
406.616518
 30
0.0
 10
415.431930
 20
406.818508
 30
0.0
 10
415.585096
 20
407.025916
 30
0.0
 10
415.731001
 20
407.238495
 30
0.0
 10
415.869470
 20
407.455990
 30
0.0
 10
416.000338
 20
407.678143
 30
0.0
 10
416.123448
 20
407.904686
 30
0.0
 10
416.238653
 20
408.135350
 30
0.0
 10
416.345816
 20
408.369858
 30
0.0
 10
416.444808
 20
408.607931
 30
0.0
 10
416.535511
 20
408.849284
 30
0.0
 10
416.617817
 20
409.093627
 30
0.0
 10
416.691627
 20
409.340669
 30
0.0
 10
416.756853
 20
409.590117
 30
0.0
 10
416.813417
 20
409.841669
 30
0.0
 10
416.861251
 20
410.095026
 30
0.0
 10
416.900298
 20
410.349885
 30
0.0
 10
416.930513
 20
410.605942
 30
0.0
 10
416.951858
 20
410.862891
 30
0.0
 10
416.964307
 20
411.120423
 30
0.0
 10
416.967846
 20
411.378233
 30
0.0
 10
416.962472
 20
411.636009
 30
0.0
 10
416.948190
 20
411.893447
 30
0.0
 10
416.925017
 20
412.150237
 30
0.0
 10
416.892981
 20
412.406073
 30
0.0
 10
416.852120
 20
412.660647
 30
0.0
 10
416.802483
 20
412.913657
 30
0.0
 10
416.744130
 20
413.164801
 30
0.0
 10
416.677130
 20
413.413777
 30
0.0
 10
416.601564
 20
413.660288
 30
0.0
 10
416.517521
 20
413.904040
 30
0.0
 10
416.498161
 20
415.132045
 30
0.0
 10
416.473961
 20
415.716337
 30
0.0
 10
416.440080
 20
416.280824
 30
0.0
 10
416.396520
 20
416.825503
 30
0.0
 10
416.343279
 20
417.350376
 30
0.0
 10
416.280359
 20
417.855443
 30
0.0
 10
416.207758
 20
418.340703
 30
0.0
 10
416.125478
 20
418.806156
 30
0.0
 10
416.033517
 20
419.251803
 30
0.0
 10
415.931876
 20
419.677644
 30
0.0
 10
415.820555
 20
420.083677
 30
0.0
 10
415.761265
 20
420.279267
 30
0.0
 10
415.699554
 20
420.469905
 30
0.0
 10
415.635424
 20
420.655591
 30
0.0
 10
415.568874
 20
420.836325
 30
0.0
 10
415.499903
 20
421.012109
 30
0.0
 10
415.428513
 20
421.182940
 30
0.0
 10
415.354702
 20
421.348820
 30
0.0
 10
415.278471
 20
421.509748
 30
0.0
 10
415.199821
 20
421.665724
 30
0.0
 10
415.118750
 20
421.816749
 30
0.0
 10
415.035259
 20
421.962822
 30
0.0
 10
414.949349
 20
422.103944
 30
0.0
 10
414.861018
 20
422.240113
 30
0.0
 10
414.770267
 20
422.371332
 30
0.0
 10
414.677097
 20
422.497598
 30
0.0
 10
414.581506
 20
422.618913
 30
0.0
 10
414.483495
 20
422.735277
 30
0.0
 10
414.383064
 20
422.846689
 30
0.0
 10
414.331942
 20
422.900537
 30
0.0
 10
414.280214
 20
422.953149
 30
0.0
 10
414.227881
 20
423.004521
 30
0.0
 10
414.174942
 20
423.054657
 30
0.0
 10
414.121400
 20
423.103554
 30
0.0
 10
414.067252
 20
423.151214
 30
0.0
 10
414.012499
 20
423.197636
 30
0.0
 10
413.957141
 20
423.242819
 30
0.0
 10
413.901178
 20
423.286765
 30
0.0
 10
413.844610
 20
423.329473
 30
0.0
 10
413.787437
 20
423.370942
 30
0.0
 10
413.729659
 20
423.411175
 30
0.0
 10
413.671276
 20
423.450169
 30
0.0
 10
413.612288
 20
423.487925
 30
0.0
 10
413.552695
 20
423.524443
 30
0.0
 10
413.492498
 20
423.559724
 30
0.0
 10
413.431694
 20
423.593766
 30
0.0
 10
413.370286
 20
423.626571
 30
0.0
 10
413.308274
 20
423.658137
 30
0.0
 10
413.245655
 20
423.688466
 30
0.0
 10
413.182433
 20
423.717557
 30
0.0
 10
413.118605
 20
423.745410
 30
0.0
 10
413.054171
 20
423.772025
 30
0.0
 10
412.989134
 20
423.797402
 30
0.0
 10
412.923490
 20
423.821541
 30
0.0
 10
412.857242
 20
423.844442
 30
0.0
 10
412.790390
 20
423.866106
 30
0.0
 10
412.722931
 20
423.886531
 30
0.0
 10
412.654868
 20
423.905719
 30
0.0
 10
412.586200
 20
423.923669
 30
0.0
 10
412.516927
 20
423.940381
 30
0.0
 10
412.447050
 20
423.955854
 30
0.0
 10
412.376566
 20
423.970090
 30
0.0
 10
412.305478
 20
423.983088
 30
0.0
 10
412.233785
 20
423.994849
 30
0.0
 10
412.161487
 20
424.005370
 30
0.0
 10
412.088584
 20
424.014655
 30
0.0
 10
412.015076
 20
424.022701
 30
0.0
 10
411.866245
 20
424.035081
 30
0.0
 10
411.714994
 20
424.042508
 30
0.0
 10
411.561322
 20
424.044984
 30
0.0
 10
411.398587
 20
424.042473
 30
0.0
 10
411.238415
 20
424.034940
 30
0.0
 10
411.080806
 20
424.022386
 30
0.0
 10
410.925758
 20
424.004810
 30
0.0
 10
410.773274
 20
423.982213
 30
0.0
 10
410.697994
 20
423.969030
 30
0.0
 10
410.623354
 20
423.954593
 30
0.0
 10
410.549354
 20
423.938900
 30
0.0
 10
410.475995
 20
423.921952
 30
0.0
 10
410.403277
 20
423.903749
 30
0.0
 10
410.331199
 20
423.884289
 30
0.0
 10
410.259762
 20
423.863574
 30
0.0
 10
410.188966
 20
423.841605
 30
0.0
 10
410.118810
 20
423.818379
 30
0.0
 10
410.049296
 20
423.793898
 30
0.0
 10
409.980422
 20
423.768162
 30
0.0
 10
409.912188
 20
423.741170
 30
0.0
 10
409.844596
 20
423.712924
 30
0.0
 10
409.777644
 20
423.683421
 30
0.0
 10
409.711332
 20
423.652663
 30
0.0
 10
409.645662
 20
423.620649
 30
0.0
 10
409.580632
 20
423.587381
 30
0.0
 10
409.516242
 20
423.552857
 30
0.0
 10
409.452494
 20
423.517077
 30
0.0
 10
409.389386
 20
423.480042
 30
0.0
 10
409.326918
 20
423.441752
 30
0.0
 10
409.265092
 20
423.402205
 30
0.0
 10
409.203906
 20
423.361405
 30
0.0
 10
409.143362
 20
423.319348
 30
0.0
 10
409.083457
 20
423.276035
 30
0.0
 10
409.024193
 20
423.231468
 30
0.0
 10
408.965570
 20
423.185645
 30
0.0
 10
408.907588
 20
423.138566
 30
0.0
 10
408.850246
 20
423.090233
 30
0.0
 10
408.793545
 20
423.040643
 30
0.0
 10
408.737485
 20
422.989798
 30
0.0
 10
408.682065
 20
422.937698
 30
0.0
 10
408.627286
 20
422.884342
 30
0.0
 10
408.573148
 20
422.829732
 30
0.0
 10
408.466794
 20
422.716743
 30
0.0
 10
408.363002
 20
422.598733
 30
0.0
 10
408.261773
 20
422.475701
 30
0.0
 10
408.163107
 20
422.347648
 30
0.0
 10
408.067003
 20
422.214573
 30
0.0
 10
407.973463
 20
422.076476
 30
0.0
 10
407.882485
 20
421.933357
 30
0.0
 10
407.794070
 20
421.785217
 30
0.0
 10
407.708218
 20
421.632055
 30
0.0
 10
407.624928
 20
421.473872
 30
0.0
 10
407.544201
 20
421.310666
 30
0.0
 10
407.466037
 20
421.142439
 30
0.0
 10
407.390436
 20
420.969190
 30
0.0
 10
407.317397
 20
420.790920
 30
0.0
 10
407.246922
 20
420.607628
 30
0.0
 10
407.179008
 20
420.419314
 30
0.0
 10
407.113658
 20
420.225978
 30
0.0
 10
407.050870
 20
420.027621
 30
0.0
 10
406.990646
 20
419.824242
 30
0.0
 10
406.932984
 20
419.615841
 30
0.0
 10
406.825348
 20
419.183975
 30
0.0
 10
406.727963
 20
418.732022
 30
0.0
 10
406.640830
 20
418.259982
 30
0.0
 10
406.563946
 20
417.767855
 30
0.0
 10
406.497315
 20
417.255641
 30
0.0
 10
406.440934
 20
416.723341
 30
0.0
 10
406.394805
 20
416.170953
 30
0.0
 10
406.358926
 20
415.598479
 30
0.0
 10
406.333298
 20
415.005918
 30
0.0
 10
406.312797
 20
413.760536
 30
0.0
  0
LWPOLYLINE
  5
12b
100
AcDbEntity
  8
Default
 62
7
100
AcDbPolyline
 90
10
 70
0
 10
431.824607
 20
402.274905
 30
0.0
 10
429.273426
 20
402.274905
 30
0.0
 10
429.273426
 20
422.556795
 30
0.0
 10
426.872394
 20
420.976925
 30
0.0
 10
423.830906
 20
419.793015
 30
0.0
 10
423.830906
 20
422.493017
 30
0.0
 10
427.609844
 20
424.096806
 30
0.0
 10
430.796165
 20
426.256007
 30
0.0
 10
431.824607
 20
426.256007
 30
0.0
 10
431.824607
 20
402.274905
 30
0.0
  0
LWPOLYLINE
  5
12c
100
AcDbEntity
  8
Default
 62
7
100
AcDbPolyline
 90
18
 70
0
 10
454.955316
 20
424.475497
 30
0.0
 10
448.845769
 20
412.188636
 30
0.0
 10
448.371490
 20
410.990386
 30
0.0
 10
447.934317
 20
409.778105
 30
0.0
 10
447.534666
 20
408.552943
 30
0.0
 10
447.172915
 20
407.316060
 30
0.0
 10
446.849406
 20
406.068628
 30
0.0
 10
446.564448
 20
404.811829
 30
0.0
 10
446.318308
 20
403.546856
 30
0.0
 10
446.111222
 20
402.274905
 30
0.0
 10
443.560041
 20
402.274905
 30
0.0
 10
445.005711
 20
408.355221
 30
0.0
 10
447.703054
 20
415.388243
 30
0.0
 10
451.893899
 20
423.704826
 30
0.0
 10
439.818308
 20
423.704826
 30
0.0
 10
439.818308
 20
425.915849
 30
0.0
 10
454.955316
 20
425.915849
 30
0.0
 10
454.955316
 20
424.475497
 30
0.0
  0
LWPOLYLINE
  5
12d
100
AcDbEntity
  8
Default
 62
7
100
AcDbPolyline
 90
352
 70
0
 10
191.075036
 20
591.061824
 30
0.0
 10
191.075036
 20
593.863121
 30
0.0
 10
251.769802
 20
593.863121
 30
0.0
 10
251.769802
 20
591.061824
 30
0.0
 10
246.575737
 20
591.061824
 30
0.0
 10
246.060261
 20
591.096889
 30
0.0
 10
245.543879
 20
591.114079
 30
0.0
 10
245.027213
 20
591.113372
 30
0.0
 10
244.510881
 20
591.094768
 30
0.0
 10
243.995502
 20
591.058290
 30
0.0
 10
243.481698
 20
591.003982
 30
0.0
 10
242.970082
 20
590.931909
 30
0.0
 10
242.461270
 20
590.842158
 30
0.0
 10
241.955872
 20
590.734836
 30
0.0
 10
241.454495
 20
590.610072
 30
0.0
 10
240.957740
 20
590.468016
 30
0.0
 10
240.466205
 20
590.308837
 30
0.0
 10
239.980478
 20
590.132729
 30
0.0
 10
239.501142
 20
589.939901
 30
0.0
 10
239.028774
 20
589.730585
 30
0.0
 10
238.563939
 20
589.505033
 30
0.0
 10
238.107196
 20
589.263515
 30
0.0
 10
237.659094
 20
589.006321
 30
0.0
 10
237.220168
 20
588.733759
 30
0.0
 10
236.790948
 20
588.446157
 30
0.0
 10
236.371947
 20
588.143860
 30
0.0
 10
235.963669
 20
587.827230
 30
0.0
 10
235.566604
 20
587.496649
 30
0.0
 10
235.181227
 20
587.152512
 30
0.0
 10
234.808003
 20
586.795233
 30
0.0
 10
234.447378
 20
586.425240
 30
0.0
 10
234.099786
 20
586.042977
 30
0.0
 10
233.765643
 20
585.648904
 30
0.0
 10
233.335707
 20
584.574115
 30
0.0
 10
232.941662
 20
583.485654
 30
0.0
 10
232.583943
 20
582.384721
 30
0.0
 10
232.262944
 20
581.272525
 30
0.0
 10
231.979018
 20
580.150294
 30
0.0
 10
231.732477
 20
579.019261
 30
0.0
 10
231.523593
 20
577.880673
 30
0.0
 10
231.352595
 20
576.735781
 30
0.0
 10
231.219673
 20
575.585846
 30
0.0
 10
231.124972
 20
574.432135
 30
0.0
 10
231.068596
 20
573.275917
 30
0.0
 10
231.050609
 20
572.118466
 30
0.0
 10
231.071028
 20
570.961055
 30
0.0
 10
231.129833
 20
569.804958
 30
0.0
 10
231.226958
 20
568.651449
 30
0.0
 10
231.226958
 20
499.567382
 30
0.0
 10
231.264126
 20
496.949141
 30
0.0
 10
231.216455
 20
494.331071
 30
0.0
 10
231.083998
 20
491.715919
 30
0.0
 10
230.866892
 20
489.106431
 30
0.0
 10
230.565366
 20
486.505345
 30
0.0
 10
230.179736
 20
483.915393
 30
0.0
 10
229.710406
 20
481.339292
 30
0.0
 10
229.157871
 20
478.779747
 30
0.0
 10
228.522709
 20
476.239445
 30
0.0
 10
227.805587
 20
473.721053
 30
0.0
 10
227.348897
 20
472.481802
 30
0.0
 10
226.851723
 20
471.258231
 30
0.0
 10
226.314602
 20
470.051661
 30
0.0
 10
225.738116
 20
468.863397
 30
0.0
 10
225.122887
 20
467.694722
 30
0.0
 10
224.469579
 20
466.546899
 30
0.0
 10
223.778898
 20
465.421169
 30
0.0
 10
223.051592
 20
464.318747
 30
0.0
 10
222.288445
 20
463.240825
 30
0.0
 10
221.490282
 20
462.188568
 30
0.0
 10
220.657966
 20
461.163113
 30
0.0
 10
219.792397
 20
460.165567
 30
0.0
 10
218.894508
 20
459.197009
 30
0.0
 10
217.965271
 20
458.258485
 30
0.0
 10
217.005690
 20
457.351009
 30
0.0
 10
216.016802
 20
456.475562
 30
0.0
 10
215.254595
 20
455.828421
 30
0.0
 10
214.470942
 20
455.207425
 30
0.0
 10
213.666737
 20
454.613285
 30
0.0
 10
212.842900
 20
454.046678
 30
0.0
 10
212.000374
 20
453.508254
 30
0.0
 10
211.140123
 20
452.998630
 30
0.0
 10
210.263131
 20
452.518387
 30
0.0
 10
209.370400
 20
452.068074
 30
0.0
 10
208.462952
 20
451.648209
 30
0.0
 10
207.541826
 20
451.259269
 30
0.0
 10
206.608073
 20
450.901700
 30
0.0
 10
205.662763
 20
450.575911
 30
0.0
 10
204.706977
 20
450.282275
 30
0.0
 10
203.741807
 20
450.021128
 30
0.0
 10
202.768359
 20
449.792769
 30
0.0
 10
201.787746
 20
449.597457
 30
0.0
 10
200.801089
 20
449.435418
 30
0.0
 10
199.809516
 20
449.306837
 30
0.0
 10
198.814162
 20
449.211859
 30
0.0
 10
197.816167
 20
449.150595
 30
0.0
 10
196.816670
 20
449.123114
 30
0.0
 10
195.816815
 20
449.129448
 30
0.0
 10
195.079089
 20
449.099711
 30
0.0
 10
194.340780
 20
449.094769
 30
0.0
 10
193.602722
 20
449.114629
 30
0.0
 10
192.865747
 20
449.159268
 30
0.0
 10
192.130687
 20
449.228634
 30
0.0
 10
191.398372
 20
449.322650
 30
0.0
 10
190.669628
 20
449.441210
 30
0.0
 10
189.945278
 20
449.584181
 30
0.0
 10
189.226138
 20
449.751399
 30
0.0
 10
188.513020
 20
449.942678
 30
0.0
 10
187.806729
 20
450.157801
 30
0.0
 10
187.108062
 20
450.396525
 30
0.0
 10
186.417808
 20
450.658581
 30
0.0
 10
185.736745
 20
450.943674
 30
0.0
 10
185.065642
 20
451.251481
 30
0.0
 10
184.405256
 20
451.581655
 30
0.0
 10
183.756333
 20
451.933824
 30
0.0
 10
183.119604
 20
452.307590
 30
0.0
 10
182.495789
 20
452.702532
 30
0.0
 10
181.885590
 20
453.118203
 30
0.0
 10
181.289698
 20
453.554135
 30
0.0
 10
180.708784
 20
454.009835
 30
0.0
 10
180.326684
 20
454.324985
 30
0.0
 10
179.955478
 20
454.652898
 30
0.0
 10
179.595593
 20
454.993197
 30
0.0
 10
179.247442
 20
455.345490
 30
0.0
 10
178.911423
 20
455.709374
 30
0.0
 10
178.587923
 20
456.084432
 30
0.0
 10
178.277313
 20
456.470232
 30
0.0
 10
177.979950
 20
456.866332
 30
0.0
 10
177.696174
 20
457.272277
 30
0.0
 10
177.426312
 20
457.687602
 30
0.0
 10
177.170674
 20
458.111829
 30
0.0
 10
176.929551
 20
458.544473
 30
0.0
 10
176.703222
 20
458.985036
 30
0.0
 10
176.491947
 20
459.433012
 30
0.0
 10
176.295966
 20
459.887888
 30
0.0
 10
176.115507
 20
460.349141
 30
0.0
 10
175.950775
 20
460.816242
 30
0.0
 10
175.801960
 20
461.288656
 30
0.0
 10
175.669233
 20
461.765839
 30
0.0
 10
175.552745
 20
462.247244
 30
0.0
 10
175.452630
 20
462.732318
 30
0.0
 10
175.369005
 20
463.220505
 30
0.0
 10
175.301963
 20
463.711245
 30
0.0
 10
175.251583
 20
464.203975
 30
0.0
 10
175.217923
 20
464.698128
 30
0.0
 10
175.201020
 20
465.193137
 30
0.0
 10
175.180435
 20
465.557035
 30
0.0
 10
175.172243
 20
465.921421
 30
0.0
 10
175.176452
 20
466.285877
 30
0.0
 10
175.193058
 20
466.649977
 30
0.0
 10
175.222042
 20
467.013302
 30
0.0
 10
175.263370
 20
467.375430
 30
0.0
 10
175.316993
 20
467.735943
 30
0.0
 10
175.382851
 20
468.094423
 30
0.0
 10
175.460866
 20
468.450455
 30
0.0
 10
175.550950
 20
468.803626
 30
0.0
 10
175.652995
 20
469.153529
 30
0.0
 10
175.766886
 20
469.499757
 30
0.0
 10
175.892491
 20
469.841909
 30
0.0
 10
176.029663
 20
470.179591
 30
0.0
 10
176.178244
 20
470.512410
 30
0.0
 10
176.338062
 20
470.839981
 30
0.0
 10
176.508932
 20
471.161926
 30
0.0
 10
176.690656
 20
471.477872
 30
0.0
 10
176.883023
 20
471.787452
 30
0.0
 10
177.085811
 20
472.090308
 30
0.0
 10
177.298786
 20
472.386089
 30
0.0
 10
177.521700
 20
472.674454
 30
0.0
 10
177.754296
 20
472.955069
 30
0.0
 10
178.025317
 20
473.220627
 30
0.0
 10
178.305401
 20
473.476609
 30
0.0
 10
178.594210
 20
473.722705
 30
0.0
 10
178.891396
 20
473.958617
 30
0.0
 10
179.196598
 20
474.184060
 30
0.0
 10
179.509450
 20
474.398763
 30
0.0
 10
179.829574
 20
474.602466
 30
0.0
 10
180.156581
 20
474.794924
 30
0.0
 10
180.490078
 20
474.975903
 30
0.0
 10
180.829662
 20
475.145185
 30
0.0
 10
181.174922
 20
475.302567
 30
0.0
 10
181.525443
 20
475.447857
 30
0.0
 10
181.880800
 20
475.580880
 30
0.0
 10
182.240564
 20
475.701476
 30
0.0
 10
182.604302
 20
475.809498
 30
0.0
 10
182.971573
 20
475.904817
 30
0.0
 10
183.341934
 20
475.987318
 30
0.0
 10
183.714938
 20
476.056901
 30
0.0
 10
184.090134
 20
476.113481
 30
0.0
 10
184.467070
 20
476.156991
 30
0.0
 10
184.845290
 20
476.187377
 30
0.0
 10
185.224338
 20
476.204605
 30
0.0
 10
185.603754
 20
476.208651
 30
0.0
 10
185.896982
 20
476.203817
 30
0.0
 10
186.189874
 20
476.188990
 30
0.0
 10
186.482090
 20
476.164188
 30
0.0
 10
186.773290
 20
476.129438
 30
0.0
 10
187.063137
 20
476.084782
 30
0.0
 10
187.351293
 20
476.030272
 30
0.0
 10
187.637423
 20
475.965970
 30
0.0
 10
187.921196
 20
475.891952
 30
0.0
 10
188.202280
 20
475.808302
 30
0.0
 10
188.480349
 20
475.715121
 30
0.0
 10
188.755080
 20
475.612513
 30
0.0
 10
189.026154
 20
475.500601
 30
0.0
 10
189.293254
 20
475.379512
 30
0.0
 10
189.556072
 20
475.249389
 30
0.0
 10
189.814302
 20
475.110381
 30
0.0
 10
190.067642
 20
474.962653
 30
0.0
 10
190.315800
 20
474.806373
 30
0.0
 10
190.558486
 20
474.641726
 30
0.0
 10
190.795418
 20
474.468901
 30
0.0
 10
191.026322
 20
474.288100
 30
0.0
 10
191.250927
 20
474.099532
 30
0.0
 10
191.468974
 20
473.903417
 30
0.0
 10
192.250251
 20
472.895466
 30
0.0
 10
192.997200
 20
471.861819
 30
0.0
 10
193.708974
 20
470.803643
 30
0.0
 10
194.384771
 20
469.722136
 30
0.0
 10
195.023825
 20
468.618519
 30
0.0
 10
195.625414
 20
467.494041
 30
0.0
 10
196.188858
 20
466.349974
 30
0.0
 10
196.713520
 20
465.187610
 30
0.0
 10
197.198807
 20
464.008265
 30
0.0
 10
197.644170
 20
462.813270
 30
0.0
 10
198.049105
 20
461.603978
 30
0.0
 10
198.098455
 20
461.358609
 30
0.0
 10
198.156107
 20
461.115057
 30
0.0
 10
198.221995
 20
460.873601
 30
0.0
 10
198.296042
 20
460.634523
 30
0.0
 10
198.378163
 20
460.398097
 30
0.0
 10
198.468263
 20
460.164593
 30
0.0
 10
198.566239
 20
459.934285
 30
0.0
 10
198.671977
 20
459.707434
 30
0.0
 10
198.785356
 20
459.484305
 30
0.0
 10
198.906244
 20
459.265153
 30
0.0
 10
199.034503
 20
459.050232
 30
0.0
 10
199.169985
 20
458.839789
 30
0.0
 10
199.312533
 20
458.634067
 30
0.0
 10
199.461983
 20
458.433303
 30
0.0
 10
199.618163
 20
458.237729
 30
0.0
 10
199.780893
 20
458.047569
 30
0.0
 10
199.949984
 20
457.863044
 30
0.0
 10
200.125243
 20
457.684365
 30
0.0
 10
200.306466
 20
457.511740
 30
0.0
 10
200.493446
 20
457.345367
 30
0.0
 10
200.685967
 20
457.185437
 30
0.0
 10
200.883806
 20
457.032137
 30
0.0
 10
201.086735
 20
456.885640
 30
0.0
 10
201.294522
 20
456.746117
 30
0.0
 10
201.506925
 20
456.613730
 30
0.0
 10
201.723700
 20
456.488630
 30
0.0
 10
201.944597
 20
456.370961
 30
0.0
 10
202.169362
 20
456.260860
 30
0.0
 10
202.397735
 20
456.158453
 30
0.0
 10
202.629454
 20
456.063857
 30
0.0
 10
202.864250
 20
455.977184
 30
0.0
 10
203.101853
 20
455.898532
 30
0.0
 10
203.341990
 20
455.827991
 30
0.0
 10
203.584382
 20
455.765644
 30
0.0
 10
203.828752
 20
455.711561
 30
0.0
 10
204.074818
 20
455.665807
 30
0.0
 10
204.296011
 20
455.691893
 30
0.0
 10
204.516192
 20
455.725477
 30
0.0
 10
204.735105
 20
455.766517
 30
0.0
 10
204.952498
 20
455.814968
 30
0.0
 10
205.168121
 20
455.870773
 30
0.0
 10
205.381724
 20
455.933868
 30
0.0
 10
205.593062
 20
456.004180
 30
0.0
 10
205.801889
 20
456.081628
 30
0.0
 10
206.007966
 20
456.166123
 30
0.0
 10
206.211056
 20
456.257567
 30
0.0
 10
206.410923
 20
456.355855
 30
0.0
 10
206.607337
 20
456.460873
 30
0.0
 10
206.800071
 20
456.572501
 30
0.0
 10
206.988904
 20
456.690609
 30
0.0
 10
207.173617
 20
456.815061
 30
0.0
 10
207.353998
 20
456.945714
 30
0.0
 10
207.529837
 20
457.082417
 30
0.0
 10
207.700933
 20
457.225013
 30
0.0
 10
207.867088
 20
457.373336
 30
0.0
 10
208.028110
 20
457.527216
 30
0.0
 10
208.183814
 20
457.686475
 30
0.0
 10
208.334021
 20
457.850929
 30
0.0
 10
208.478556
 20
458.020390
 30
0.0
 10
208.617253
 20
458.194661
 30
0.0
 10
208.749952
 20
458.373542
 30
0.0
 10
208.876501
 20
458.556825
 30
0.0
 10
208.996752
 20
458.744301
 30
0.0
 10
209.110567
 20
458.935751
 30
0.0
 10
209.217816
 20
459.130956
 30
0.0
 10
209.565457
 20
459.843618
 30
0.0
 10
209.888090
 20
460.567945
 30
0.0
 10
210.185324
 20
461.303061
 30
0.0
 10
210.456799
 20
462.048073
 30
0.0
 10
210.702187
 20
462.802080
 30
0.0
 10
210.921190
 20
463.564169
 30
0.0
 10
211.113544
 20
464.333416
 30
0.0
 10
211.279014
 20
465.108891
 30
0.0
 10
211.417402
 20
465.889654
 30
0.0
 10
211.528538
 20
466.674760
 30
0.0
 10
211.612290
 20
467.463257
 30
0.0
 10
211.668554
 20
468.254190
 30
0.0
 10
211.697262
 20
469.046603
 30
0.0
 10
211.698382
 20
469.839535
 30
0.0
 10
211.671910
 20
470.632025
 30
0.0
 10
211.617879
 20
471.423114
 30
0.0
 10
211.617879
 20
568.651449
 30
0.0
 10
211.682980
 20
570.331164
 30
0.0
 10
211.693534
 20
572.012108
 30
0.0
 10
211.649532
 20
573.692508
 30
0.0
 10
211.551018
 20
575.370595
 30
0.0
 10
211.398097
 20
577.044601
 30
0.0
 10
211.190930
 20
578.712764
 30
0.0
 10
210.929735
 20
580.373324
 30
0.0
 10
210.614787
 20
582.024533
 30
0.0
 10
210.246419
 20
583.664650
 30
0.0
 10
210.109924
 20
583.965676
 30
0.0
 10
209.963223
 20
584.261862
 30
0.0
 10
209.806488
 20
584.552862
 30
0.0
 10
209.639900
 20
584.838337
 30
0.0
 10
209.463655
 20
585.117953
 30
0.0
 10
209.277958
 20
585.391383
 30
0.0
 10
209.083027
 20
585.658308
 30
0.0
 10
208.879090
 20
585.918417
 30
0.0
 10
208.666382
 20
586.171405
 30
0.0
 10
208.445155
 20
586.416977
 30
0.0
 10
208.215666
 20
586.654847
 30
0.0
 10
207.978183
 20
586.884737
 30
0.0
 10
207.732983
 20
587.106377
 30
0.0
 10
207.480354
 20
587.319509
 30
0.0
 10
207.220589
 20
587.523885
 30
0.0
 10
206.953992
 20
587.719265
 30
0.0
 10
206.680874
 20
587.905421
 30
0.0
 10
206.401556
 20
588.082137
 30
0.0
 10
206.116362
 20
588.249205
 30
0.0
 10
205.825626
 20
588.406430
 30
0.0
 10
205.280446
 20
588.720591
 30
0.0
 10
204.724998
 20
589.016221
 30
0.0
 10
204.159914
 20
589.292983
 30
0.0
 10
203.585833
 20
589.550565
 30
0.0
 10
203.003405
 20
589.788676
 30
0.0
 10
202.413291
 20
590.007043
 30
0.0
 10
201.816161
 20
590.205421
 30
0.0
 10
201.212690
 20
590.383584
 30
0.0
 10
200.603565
 20
590.541330
 30
0.0
 10
199.989473
 20
590.678481
 30
0.0
 10
199.371113
 20
590.794881
 30
0.0
 10
198.749184
 20
590.890397
 30
0.0
 10
198.124393
 20
590.964921
 30
0.0
 10
197.497446
 20
591.018371
 30
0.0
 10
196.869056
 20
591.050684
 30
0.0
 10
196.239934
 20
591.061824
 30
0.0
 10
191.075036
 20
591.061824
 30
0.0
  0
LWPOLYLINE
  5
12e
100
AcDbEntity
  8
Default
 62
7
100
AcDbPolyline
 90
191
 70
0
 10
306.964106
 20
550.909901
 30
0.0
 10
308.386304
 20
550.927558
 30
0.0
 10
309.808281
 20
550.896854
 30
0.0
 10
311.228391
 20
550.817825
 30
0.0
 10
312.644994
 20
550.690565
 30
0.0
 10
314.056451
 20
550.515217
 30
0.0
 10
315.461132
 20
550.291986
 30
0.0
 10
316.857411
 20
550.021129
 30
0.0
 10
318.243675
 20
549.702961
 30
0.0
 10
319.618322
 20
549.337849
 30
0.0
 10
320.979761
 20
548.926214
 30
0.0
 10
322.326418
 20
548.468533
 30
0.0
 10
323.656738
 20
547.965335
 30
0.0
 10
324.969182
 20
547.417201
 30
0.0
 10
326.262232
 20
546.824765
 30
0.0
 10
327.534394
 20
546.188713
 30
0.0
 10
328.784198
 20
545.509780
 30
0.0
 10
330.010197
 20
544.788749
 30
0.0
 10
331.210975
 20
544.026456
 30
0.0
 10
332.385144
 20
543.223781
 30
0.0
 10
333.531346
 20
542.381653
 30
0.0
 10
334.648255
 20
541.501044
 30
0.0
 10
335.734582
 20
540.582973
 30
0.0
 10
336.789070
 20
539.628501
 30
0.0
 10
337.810498
 20
538.638733
 30
0.0
 10
338.797688
 20
537.614811
 30
0.0
 10
339.749498
 20
536.557921
 30
0.0
 10
340.664826
 20
535.469282
 30
0.0
 10
341.542615
 20
534.350156
 30
0.0
 10
342.605579
 20
532.959877
 30
0.0
 10
343.620474
 20
531.534131
 30
0.0
 10
344.586119
 20
530.074577
 30
0.0
 10
345.501388
 20
528.582918
 30
0.0
 10
346.365214
 20
527.060890
 30
0.0
 10
347.176593
 20
525.510267
 30
0.0
 10
347.934577
 20
523.932856
 30
0.0
 10
348.638284
 20
522.330495
 30
0.0
 10
349.286894
 20
520.705050
 30
0.0
 10
349.879650
 20
519.058416
 30
0.0
 10
350.415864
 20
517.392510
 30
0.0
 10
350.894910
 20
515.709275
 30
0.0
 10
351.316229
 20
514.010671
 30
0.0
 10
351.679330
 20
512.298677
 30
0.0
 10
351.983792
 20
510.575289
 30
0.0
 10
352.229258
 20
508.842513
 30
0.0
 10
352.415443
 20
507.102369
 30
0.0
 10
352.542130
 20
505.356884
 30
0.0
 10
352.609172
 20
503.608093
 30
0.0
 10
352.616490
 20
501.858033
 30
0.0
 10
352.558142
 20
499.780420
 30
0.0
 10
352.429990
 20
497.705942
 30
0.0
 10
352.232180
 20
495.636945
 30
0.0
 10
351.964934
 20
493.575765
 30
0.0
 10
351.628557
 20
491.524734
 30
0.0
 10
351.223426
 20
489.486169
 30
0.0
 10
350.750002
 20
487.462374
 30
0.0
 10
350.208817
 20
485.455636
 30
0.0
 10
349.600484
 20
483.468223
 30
0.0
 10
348.925690
 20
481.502381
 30
0.0
 10
348.185199
 20
479.560333
 30
0.0
 10
347.379847
 20
477.644273
 30
0.0
 10
346.510545
 20
475.756365
 30
0.0
 10
345.869634
 20
474.338762
 30
0.0
 10
345.180068
 20
472.944178
 30
0.0
 10
344.442673
 20
471.574282
 30
0.0
 10
343.658330
 20
470.230715
 30
0.0
 10
342.827980
 20
468.915084
 30
0.0
 10
341.952615
 20
467.628965
 30
0.0
 10
341.033285
 20
466.373896
 30
0.0
 10
340.071088
 20
465.151381
 30
0.0
 10
339.067177
 20
463.962881
 30
0.0
 10
338.022754
 20
462.809822
 30
0.0
 10
336.939068
 20
461.693582
 30
0.0
 10
335.817418
 20
460.615497
 30
0.0
 10
334.659145
 20
459.576859
 30
0.0
 10
333.465636
 20
458.578909
 30
0.0
 10
332.238320
 20
457.622844
 30
0.0
 10
330.978665
 20
456.709807
 30
0.0
 10
329.688180
 20
455.840891
 30
0.0
 10
328.422498
 20
455.077633
 30
0.0
 10
327.131920
 20
454.357271
 30
0.0
 10
325.817898
 20
453.680619
 30
0.0
 10
324.481911
 20
453.048437
 30
0.0
 10
323.125466
 20
452.461439
 30
0.0
 10
321.750088
 20
451.920284
 30
0.0
 10
320.357326
 20
451.425581
 30
0.0
 10
318.948751
 20
450.977890
 30
0.0
 10
317.525947
 20
450.577713
 30
0.0
 10
316.090517
 20
450.225500
 30
0.0
 10
314.644078
 20
449.921649
 30
0.0
 10
313.188257
 20
449.666503
 30
0.0
 10
311.724695
 20
449.460347
 30
0.0
 10
310.255040
 20
449.303415
 30
0.0
 10
308.780947
 20
449.195883
 30
0.0
 10
307.304076
 20
449.137872
 30
0.0
 10
305.826090
 20
449.129448
 30
0.0
 10
304.453352
 20
449.114846
 30
0.0
 10
303.080920
 20
449.147353
 30
0.0
 10
301.710411
 20
449.226928
 30
0.0
 10
300.343440
 20
449.353478
 30
0.0
 10
298.981616
 20
449.526855
 30
0.0
 10
297.626542
 20
449.746853
 30
0.0
 10
296.279814
 20
450.013216
 30
0.0
 10
294.943018
 20
450.325627
 30
0.0
 10
293.617727
 20
450.683720
 30
0.0
 10
292.305503
 20
451.087073
 30
0.0
 10
291.007890
 20
451.535211
 30
0.0
 10
289.726418
 20
452.027605
 30
0.0
 10
288.462594
 20
452.563678
 30
0.0
 10
287.217906
 20
453.142797
 30
0.0
 10
285.993821
 20
453.764280
 30
0.0
 10
284.791780
 20
454.427395
 30
0.0
 10
283.613198
 20
455.131362
 30
0.0
 10
282.459462
 20
455.875352
 30
0.0
 10
281.331933
 20
456.658488
 30
0.0
 10
280.231937
 20
457.479849
 30
0.0
 10
279.160769
 20
458.338467
 30
0.0
 10
278.119691
 20
459.233332
 30
0.0
 10
277.109929
 20
460.163389
 30
0.0
 10
276.132672
 20
461.127543
 30
0.0
 10
275.189070
 20
462.124659
 30
0.0
 10
274.280234
 20
463.153563
 30
0.0
 10
273.407236
 20
464.213044
 30
0.0
 10
272.571102
 20
465.301853
 30
0.0
 10
271.772818
 20
466.418709
 30
0.0
 10
270.698997
 20
467.916317
 30
0.0
 10
269.676854
 20
469.449661
 30
0.0
 10
268.707581
 20
471.016960
 30
0.0
 10
267.792301
 20
472.616392
 30
0.0
 10
266.932080
 20
474.246097
 30
0.0
 10
266.127918
 20
475.904181
 30
0.0
 10
265.380750
 20
477.588717
 30
0.0
 10
264.691444
 20
479.297745
 30
0.0
 10
264.060802
 20
481.029279
 30
0.0
 10
263.489556
 20
482.781306
 30
0.0
 10
262.978371
 20
484.551789
 30
0.0
 10
262.527842
 20
486.338669
 30
0.0
 10
262.138492
 20
488.139871
 30
0.0
 10
261.810773
 20
489.953299
 30
0.0
 10
261.545067
 20
491.776845
 30
0.0
 10
261.341682
 20
493.608389
 30
0.0
 10
261.200856
 20
495.445802
 30
0.0
 10
261.122750
 20
497.286949
 30
0.0
 10
261.107458
 20
499.129687
 30
0.0
 10
261.157097
 20
501.077985
 30
0.0
 10
261.271490
 20
503.023556
 30
0.0
 10
261.450512
 20
504.964246
 30
0.0
 10
261.693964
 20
506.897912
 30
0.0
 10
262.001578
 20
508.822413
 30
0.0
 10
262.373011
 20
510.735621
 30
0.0
 10
262.807856
 20
512.635421
 30
0.0
 10
263.305630
 20
514.519712
 30
0.0
 10
263.865782
 20
516.386409
 30
0.0
 10
264.487693
 20
518.233449
 30
0.0
 10
265.170676
 20
520.058789
 30
0.0
 10
265.913975
 20
521.860409
 30
0.0
 10
266.716769
 20
523.636318
 30
0.0
 10
267.578168
 20
525.384552
 30
0.0
 10
268.242616
 20
526.768501
 30
0.0
 10
268.954336
 20
528.128745
 30
0.0
 10
269.712484
 20
529.463668
 30
0.0
 10
270.516161
 20
530.771685
 30
0.0
 10
271.364413
 20
532.051247
 30
0.0
 10
272.256232
 20
533.300833
 30
0.0
 10
273.190562
 20
534.518961
 30
0.0
 10
274.166293
 20
535.704185
 30
0.0
 10
275.182266
 20
536.855100
 30
0.0
 10
276.237278
 20
537.970338
 30
0.0
 10
277.330076
 20
539.048578
 30
0.0
 10
278.459362
 20
540.088539
 30
0.0
 10
279.623798
 20
541.088988
 30
0.0
 10
280.822002
 20
542.048736
 30
0.0
 10
282.052550
 20
542.966646
 30
0.0
 10
283.313982
 20
543.841628
 30
0.0
 10
284.604804
 20
544.672644
 30
0.0
 10
285.874504
 20
545.410908
 30
0.0
 10
287.168532
 20
546.105649
 30
0.0
 10
288.485396
 20
546.756065
 30
0.0
 10
289.823579
 20
547.361407
 30
0.0
 10
291.181538
 20
547.920977
 30
0.0
 10
292.557709
 20
548.434132
 30
0.0
 10
293.950505
 20
548.900278
 30
0.0
 10
295.358321
 20
549.318879
 30
0.0
 10
296.779534
 20
549.689453
 30
0.0
 10
298.212507
 20
550.011571
 30
0.0
 10
299.655589
 20
550.284864
 30
0.0
 10
301.107114
 20
550.509015
 30
0.0
 10
302.565413
 20
550.683768
 30
0.0
 10
304.028803
 20
550.808920
 30
0.0
 10
305.495598
 20
550.884326
 30
0.0
 10
306.964106
 20
550.909901
 30
0.0
  0
LWPOLYLINE
  5
12f
100
AcDbEntity
  8
Default
 62
7
100
AcDbPolyline
 90
188
 70
0
 10
303.798066
 20
544.373542
 30
0.0
 10
303.078029
 20
544.346581
 30
0.0
 10
302.359367
 20
544.294565
 30
0.0
 10
301.642954
 20
544.217554
 30
0.0
 10
300.929655
 20
544.115644
 30
0.0
 10
300.220338
 20
543.988957
 30
0.0
 10
299.515863
 20
543.837649
 30
0.0
 10
298.817083
 20
543.661900
 30
0.0
 10
298.124848
 20
543.461925
 30
0.0
 10
297.439995
 20
543.237968
 30
0.0
 10
296.763357
 20
542.990299
 30
0.0
 10
296.095753
 20
542.719218
 30
0.0
 10
295.437993
 20
542.425055
 30
0.0
 10
294.790875
 20
542.108166
 30
0.0
 10
294.155184
 20
541.768936
 30
0.0
 10
293.531691
 20
541.407775
 30
0.0
 10
292.921153
 20
541.025123
 30
0.0
 10
292.282023
 20
540.566697
 30
0.0
 10
291.658706
 20
540.086992
 30
0.0
 10
291.051912
 20
539.586551
 30
0.0
 10
290.462328
 20
539.065943
 30
0.0
 10
289.890626
 20
538.525760
 30
0.0
 10
289.337454
 20
537.966616
 30
0.0
 10
288.803442
 20
537.389145
 30
0.0
 10
288.289195
 20
536.794005
 30
0.0
 10
287.795299
 20
536.181872
 30
0.0
 10
287.322314
 20
535.553440
 30
0.0
 10
286.870779
 20
534.909424
 30
0.0
 10
286.441206
 20
534.250555
 30
0.0
 10
286.034082
 20
533.577583
 30
0.0
 10
285.649871
 20
532.891272
 30
0.0
 10
285.289010
 20
532.192401
 30
0.0
 10
284.951907
 20
531.481765
 30
0.0
 10
284.638947
 20
530.760172
 30
0.0
 10
284.350485
 20
530.028441
 30
0.0
 10
284.086848
 20
529.287403
 30
0.0
 10
283.448472
 20
527.396488
 30
0.0
 10
282.874954
 20
525.484902
 30
0.0
 10
282.366959
 20
523.554869
 30
0.0
 10
281.925082
 20
521.608636
 30
0.0
 10
281.549834
 20
519.648464
 30
0.0
 10
281.241651
 20
517.676636
 30
0.0
 10
281.000895
 20
515.695444
 30
0.0
 10
280.827843
 20
513.707194
 30
0.0
 10
280.722698
 20
511.714199
 30
0.0
 10
280.685581
 20
509.718778
 30
0.0
 10
280.716536
 20
507.723252
 30
0.0
 10
280.692754
 20
505.015297
 30
0.0
 10
280.763451
 20
502.308161
 30
0.0
 10
280.928545
 20
499.605138
 30
0.0
 10
281.187832
 20
496.909520
 30
0.0
 10
281.540998
 20
494.224588
 30
0.0
 10
281.987614
 20
491.553610
 30
0.0
 10
282.527134
 20
488.899838
 30
0.0
 10
283.158902
 20
486.266503
 30
0.0
 10
283.882149
 20
483.656810
 30
0.0
 10
284.695994
 20
481.073935
 30
0.0
 10
285.599449
 20
478.521024
 30
0.0
 10
286.591410
 20
476.001183
 30
0.0
 10
287.670674
 20
473.517481
 30
0.0
 10
288.835923
 20
471.072940
 30
0.0
 10
289.145554
 20
470.313505
 30
0.0
 10
289.480757
 20
469.565005
 30
0.0
 10
289.841146
 20
468.828303
 30
0.0
 10
290.226310
 20
468.104243
 30
0.0
 10
290.635802
 20
467.393660
 30
0.0
 10
291.069153
 20
466.697370
 30
0.0
 10
291.525864
 20
466.016175
 30
0.0
 10
292.005410
 20
465.350857
 30
0.0
 10
292.507241
 20
464.702183
 30
0.0
 10
293.030777
 20
464.070897
 30
0.0
 10
293.575418
 20
463.457726
 30
0.0
 10
294.140537
 20
462.863375
 30
0.0
 10
294.725484
 20
462.288528
 30
0.0
 10
295.329586
 20
461.733845
 30
0.0
 10
295.952149
 20
461.199965
 30
0.0
 10
296.592456
 20
460.687501
 30
0.0
 10
297.249772
 20
460.197044
 30
0.0
 10
297.923340
 20
459.729157
 30
0.0
 10
298.612386
 20
459.284377
 30
0.0
 10
299.316116
 20
458.863218
 30
0.0
 10
300.033722
 20
458.466162
 30
0.0
 10
300.764380
 20
458.093667
 30
0.0
 10
301.507247
 20
457.746161
 30
0.0
 10
302.261470
 20
457.424044
 30
0.0
 10
303.026182
 20
457.127686
 30
0.0
 10
303.800503
 20
456.857428
 30
0.0
 10
304.583543
 20
456.613581
 30
0.0
 10
305.374401
 20
456.396425
 30
0.0
 10
306.172166
 20
456.206209
 30
0.0
 10
306.975923
 20
456.043154
 30
0.0
 10
307.784747
 20
455.907445
 30
0.0
 10
308.597707
 20
455.799241
 30
0.0
 10
309.413869
 20
455.718664
 30
0.0
 10
310.232293
 20
455.665807
 30
0.0
 10
310.916750
 20
455.672805
 30
0.0
 10
311.600550
 20
455.703592
 30
0.0
 10
312.282866
 20
455.758129
 30
0.0
 10
312.962874
 20
455.836351
 30
0.0
 10
313.639753
 20
455.938163
 30
0.0
 10
314.312683
 20
456.063443
 30
0.0
 10
314.980852
 20
456.212039
 30
0.0
 10
315.643451
 20
456.383771
 30
0.0
 10
316.299681
 20
456.578431
 30
0.0
 10
316.948747
 20
456.795785
 30
0.0
 10
317.589866
 20
457.035570
 30
0.0
 10
318.222262
 20
457.297496
 30
0.0
 10
318.845172
 20
457.581246
 30
0.0
 10
319.457841
 20
457.886477
 30
0.0
 10
320.059530
 20
458.212821
 30
0.0
 10
320.649512
 20
458.559883
 30
0.0
 10
321.227073
 20
458.927244
 30
0.0
 10
321.791514
 20
459.314458
 30
0.0
 10
322.342155
 20
459.721060
 30
0.0
 10
322.878330
 20
460.146556
 30
0.0
 10
323.399390
 20
460.590433
 30
0.0
 10
323.904705
 20
461.052154
 30
0.0
 10
324.393666
 20
461.531161
 30
0.0
 10
324.865679
 20
462.026876
 30
0.0
 10
325.320177
 20
462.538698
 30
0.0
 10
325.756608
 20
463.066010
 30
0.0
 10
326.174446
 20
463.608174
 30
0.0
 10
326.573185
 20
464.164535
 30
0.0
 10
327.389349
 20
465.642089
 30
0.0
 10
328.155008
 20
467.146434
 30
0.0
 10
328.869286
 20
468.675845
 30
0.0
 10
329.531361
 20
470.228567
 30
0.0
 10
330.140475
 20
471.802819
 30
0.0
 10
330.695929
 20
473.396795
 30
0.0
 10
331.197086
 20
475.008667
 30
0.0
 10
331.643370
 20
476.636586
 30
0.0
 10
332.034271
 20
478.278685
 30
0.0
 10
332.369339
 20
479.933078
 30
0.0
 10
332.648190
 20
481.597870
 30
0.0
 10
332.870505
 20
483.271150
 30
0.0
 10
333.036028
 20
484.950998
 30
0.0
 10
333.144570
 20
486.635489
 30
0.0
 10
333.196005
 20
488.322689
 30
0.0
 10
333.190275
 20
490.010663
 30
0.0
 10
333.127386
 20
491.697475
 30
0.0
 10
333.007412
 20
493.381190
 30
0.0
 10
333.098574
 20
495.761282
 30
0.0
 10
333.107000
 20
498.143105
 30
0.0
 10
333.032678
 20
500.523783
 30
0.0
 10
332.875697
 20
502.900441
 30
0.0
 10
332.636247
 20
505.270213
 30
0.0
 10
332.314618
 20
507.630235
 30
0.0
 10
331.911198
 20
509.977660
 30
0.0
 10
331.426474
 20
512.309653
 30
0.0
 10
330.861030
 20
514.623400
 30
0.0
 10
330.215550
 20
516.916107
 30
0.0
 10
329.490814
 20
519.185006
 30
0.0
 10
328.687694
 20
521.427360
 30
0.0
 10
327.807162
 20
523.640460
 30
0.0
 10
326.850279
 20
525.821636
 30
0.0
 10
325.818202
 20
527.968253
 30
0.0
 10
324.712175
 20
530.077721
 30
0.0
 10
323.533535
 20
532.147493
 30
0.0
 10
322.283705
 20
534.175072
 30
0.0
 10
321.867187
 20
534.810406
 30
0.0
 10
321.428854
 20
535.430890
 30
0.0
 10
320.969234
 20
536.035775
 30
0.0
 10
320.488882
 20
536.624332
 30
0.0
 10
319.988378
 20
537.195849
 30
0.0
 10
319.468325
 20
537.749637
 30
0.0
 10
318.929351
 20
538.285029
 30
0.0
 10
318.372107
 20
538.801377
 30
0.0
 10
317.797265
 20
539.298059
 30
0.0
 10
317.205518
 20
539.774475
 30
0.0
 10
316.597582
 20
540.230051
 30
0.0
 10
315.974188
 20
540.664237
 30
0.0
 10
315.336090
 20
541.076508
 30
0.0
 10
314.684058
 20
541.466368
 30
0.0
 10
314.018879
 20
541.833345
 30
0.0
 10
313.341354
 20
542.176998
 30
0.0
 10
312.652302
 20
542.496911
 30
0.0
 10
311.952555
 20
542.792698
 30
0.0
 10
311.242957
 20
543.064002
 30
0.0
 10
310.524362
 20
543.310497
 30
0.0
 10
309.797641
 20
543.531884
 30
0.0
 10
309.063669
 20
543.727896
 30
0.0
 10
308.323330
 20
543.898297
 30
0.0
 10
307.577521
 20
544.042881
 30
0.0
 10
306.827140
 20
544.161473
 30
0.0
 10
306.073092
 20
544.253931
 30
0.0
 10
305.316288
 20
544.320144
 30
0.0
 10
304.557641
 20
544.360030
 30
0.0
 10
303.798066
 20
544.373542
 30
0.0
  0
LWPOLYLINE
  5
130
100
AcDbEntity
  8
Default
 62
7
100
AcDbPolyline
 90
271
 70
0
 10
382.496990
 20
511.691745
 30
0.0
 10
382.417612
 20
509.984145
 30
0.0
 10
382.396950
 20
508.274827
 30
0.0
 10
382.435026
 20
506.565807
 30
0.0
 10
382.531796
 20
504.859105
 30
0.0
 10
382.687146
 20
503.156735
 30
0.0
 10
382.900894
 20
501.460708
 30
0.0
 10
383.172785
 20
499.773025
 30
0.0
 10
383.502499
 20
498.095681
 30
0.0
 10
383.889647
 20
496.430653
 30
0.0
 10
384.333772
 20
494.779912
 30
0.0
 10
384.834350
 20
493.145402
 30
0.0
 10
385.390788
 20
491.529057
 30
0.0
 10
386.002430
 20
489.932783
 30
0.0
 10
386.668555
 20
488.358465
 30
0.0
 10
387.388376
 20
486.807964
 30
0.0
 10
388.161042
 20
485.283109
 30
0.0
 10
388.985641
 20
483.785700
 30
0.0
 10
389.861200
 20
482.317505
 30
0.0
 10
390.786685
 20
480.880260
 30
0.0
 10
391.761002
 20
479.475659
 30
0.0
 10
392.783002
 20
478.105363
 30
0.0
 10
393.461089
 20
477.257087
 30
0.0
 10
394.168227
 20
476.432874
 30
0.0
 10
394.903566
 20
475.633718
 30
0.0
 10
395.666215
 20
474.860583
 30
0.0
 10
396.455257
 20
474.114402
 30
0.0
 10
397.269738
 20
473.396077
 30
0.0
 10
398.108677
 20
472.706471
 30
0.0
 10
398.971059
 20
472.046420
 30
0.0
 10
399.855846
 20
471.416718
 30
0.0
 10
400.761970
 20
470.818125
 30
0.0
 10
401.688337
 20
470.251365
 30
0.0
 10
402.633828
 20
469.717121
 30
0.0
 10
403.597305
 20
469.216036
 30
0.0
 10
404.577603
 20
468.748717
 30
0.0
 10
405.573541
 20
468.315726
 30
0.0
 10
406.583915
 20
467.917586
 30
0.0
 10
407.607509
 20
467.554779
 30
0.0
 10
408.643085
 20
467.227741
 30
0.0
 10
409.689395
 20
466.936866
 30
0.0
 10
410.745176
 20
466.682507
 30
0.0
 10
411.809154
 20
466.464970
 30
0.0
 10
412.880046
 20
466.284517
 30
0.0
 10
413.956559
 20
466.141367
 30
0.0
 10
415.037394
 20
466.035691
 30
0.0
 10
416.121248
 20
465.967617
 30
0.0
 10
417.206812
 20
465.937229
 30
0.0
 10
418.164547
 20
465.931836
 30
0.0
 10
419.121894
 20
465.959603
 30
0.0
 10
420.077706
 20
466.020497
 30
0.0
 10
421.030838
 20
466.114444
 30
0.0
 10
421.980145
 20
466.241332
 30
0.0
 10
422.924490
 20
466.401009
 30
0.0
 10
423.862741
 20
466.593283
 30
0.0
 10
424.793774
 20
466.817924
 30
0.0
 10
425.716470
 20
467.074663
 30
0.0
 10
426.629726
 20
467.363192
 30
0.0
 10
427.532446
 20
467.683164
 30
0.0
 10
428.423546
 20
468.034197
 30
0.0
 10
429.301961
 20
468.415869
 30
0.0
 10
430.166635
 20
468.827722
 30
0.0
 10
431.016532
 20
469.269265
 30
0.0
 10
431.850634
 20
469.739965
 30
0.0
 10
432.667940
 20
470.239260
 30
0.0
 10
433.467471
 20
470.766550
 30
0.0
 10
434.370574
 20
471.537397
 30
0.0
 10
435.247672
 20
472.337708
 30
0.0
 10
436.097807
 20
473.166604
 30
0.0
 10
436.920046
 20
474.023179
 30
0.0
 10
437.713490
 20
474.906494
 30
0.0
 10
438.477268
 20
475.815582
 30
0.0
 10
439.210544
 20
476.749448
 30
0.0
 10
439.912516
 20
477.707067
 30
0.0
 10
440.582414
 20
478.687391
 30
0.0
 10
441.219504
 20
479.689346
 30
0.0
 10
441.823088
 20
480.711836
 30
0.0
 10
442.392506
 20
481.753738
 30
0.0
 10
442.927134
 20
482.813914
 30
0.0
 10
443.426386
 20
483.891201
 30
0.0
 10
443.889714
 20
484.984418
 30
0.0
 10
444.316612
 20
486.092369
 30
0.0
 10
444.706613
 20
487.213841
 30
0.0
 10
445.059288
 20
488.347604
 30
0.0
 10
447.860585
 20
486.305004
 30
0.0
 10
447.591900
 20
484.703469
 30
0.0
 10
447.269006
 20
483.111977
 30
0.0
 10
446.892276
 20
481.532363
 30
0.0
 10
446.462142
 20
479.966447
 30
0.0
 10
445.979103
 20
478.416035
 30
0.0
 10
445.443714
 20
476.882913
 30
0.0
 10
444.856591
 20
475.368848
 30
0.0
 10
444.218412
 20
473.875585
 30
0.0
 10
443.529913
 20
472.404845
 30
0.0
 10
442.791886
 20
470.958325
 30
0.0
 10
442.005183
 20
469.537689
 30
0.0
 10
441.170710
 20
468.144577
 30
0.0
 10
440.289430
 20
466.780594
 30
0.0
 10
439.362358
 20
465.447312
 30
0.0
 10
438.390561
 20
464.146267
 30
0.0
 10
437.375161
 20
462.878959
 30
0.0
 10
436.317327
 20
461.646849
 30
0.0
 10
435.218280
 20
460.451357
 30
0.0
 10
434.415474
 20
459.589175
 30
0.0
 10
433.583454
 20
458.755149
 30
0.0
 10
432.723208
 20
457.950267
 30
0.0
 10
431.835756
 20
457.175485
 30
0.0
 10
430.922151
 20
456.431722
 30
0.0
 10
429.983476
 20
455.719861
 30
0.0
 10
429.020846
 20
455.040744
 30
0.0
 10
428.035400
 20
454.395179
 30
0.0
 10
427.028310
 20
453.783930
 30
0.0
 10
426.000767
 20
453.207722
 30
0.0
 10
424.953993
 20
452.667241
 30
0.0
 10
423.889228
 20
452.163125
 30
0.0
 10
422.807735
 20
451.695973
 30
0.0
 10
421.710798
 20
451.266339
 30
0.0
 10
420.599717
 20
450.874733
 30
0.0
 10
419.475809
 20
450.521619
 30
0.0
 10
418.340409
 20
450.207417
 30
0.0
 10
417.194862
 20
449.932498
 30
0.0
 10
416.040528
 20
449.697189
 30
0.0
 10
414.878776
 20
449.501769
 30
0.0
 10
413.710983
 20
449.346470
 30
0.0
 10
412.538535
 20
449.231476
 30
0.0
 10
411.362823
 20
449.156923
 30
0.0
 10
410.185241
 20
449.122901
 30
0.0
 10
409.007186
 20
449.129448
 30
0.0
 10
407.676826
 20
449.145268
 30
0.0
 10
406.347828
 20
449.207503
 30
0.0
 10
405.021811
 20
449.316077
 30
0.0
 10
403.700390
 20
449.470859
 30
0.0
 10
402.385177
 20
449.671659
 30
0.0
 10
401.077770
 20
449.918233
 30
0.0
 10
399.779766
 20
450.210279
 30
0.0
 10
398.492742
 20
450.547444
 30
0.0
 10
397.218269
 20
450.929316
 30
0.0
 10
395.957898
 20
451.355429
 30
0.0
 10
394.713164
 20
451.825265
 30
0.0
 10
393.485583
 20
452.338252
 30
0.0
 10
392.276652
 20
452.893764
 30
0.0
 10
391.087842
 20
453.491125
 30
0.0
 10
389.920602
 20
454.129607
 30
0.0
 10
388.776354
 20
454.808433
 30
0.0
 10
387.656491
 20
455.526774
 30
0.0
 10
386.562378
 20
456.283758
 30
0.0
 10
385.495346
 20
457.078461
 30
0.0
 10
384.456697
 20
457.909916
 30
0.0
 10
383.447695
 20
458.777109
 30
0.0
 10
382.469570
 20
459.678985
 30
0.0
 10
381.523512
 20
460.614443
 30
0.0
 10
380.610674
 20
461.582346
 30
0.0
 10
379.732169
 20
462.581514
 30
0.0
 10
378.608956
 20
463.958485
 30
0.0
 10
377.533558
 20
465.373114
 30
0.0
 10
376.507237
 20
466.823742
 30
0.0
 10
375.531196
 20
468.308667
 30
0.0
 10
374.606582
 20
469.826147
 30
0.0
 10
373.734478
 20
471.374401
 30
0.0
 10
372.915909
 20
472.951614
 30
0.0
 10
372.151833
 20
474.555935
 30
0.0
 10
371.443148
 20
476.185482
 30
0.0
 10
370.790685
 20
477.838343
 30
0.0
 10
370.195210
 20
479.512578
 30
0.0
 10
369.657419
 20
481.206225
 30
0.0
 10
369.177946
 20
482.917296
 30
0.0
 10
368.757354
 20
484.643783
 30
0.0
 10
368.396133
 20
486.383661
 30
0.0
 10
368.094709
 20
488.134889
 30
0.0
 10
367.853435
 20
489.895413
 30
0.0
 10
367.672594
 20
491.663167
 30
0.0
 10
367.552399
 20
493.436077
 30
0.0
 10
367.492990
 20
495.212063
 30
0.0
 10
367.494438
 20
496.989042
 30
0.0
 10
367.556740
 20
498.764929
 30
0.0
 10
367.475124
 20
500.641053
 30
0.0
 10
367.457534
 20
502.518869
 30
0.0
 10
367.503991
 20
504.396192
 30
0.0
 10
367.614441
 20
506.270839
 30
0.0
 10
367.788755
 20
508.140629
 30
0.0
 10
368.026730
 20
510.003387
 30
0.0
 10
368.328091
 20
511.856947
 30
0.0
 10
368.692486
 20
513.699151
 30
0.0
 10
369.119491
 20
515.527857
 30
0.0
 10
369.608610
 20
517.340939
 30
0.0
 10
370.159274
 20
519.136286
 30
0.0
 10
370.770841
 20
520.911810
 30
0.0
 10
371.442601
 20
522.665446
 30
0.0
 10
372.173772
 20
524.395154
 30
0.0
 10
372.963504
 20
526.098921
 30
0.0
 10
373.810878
 20
527.774767
 30
0.0
 10
374.714908
 20
529.420741
 30
0.0
 10
375.674543
 20
531.034929
 30
0.0
 10
376.688666
 20
532.615453
 30
0.0
 10
377.756098
 20
534.160473
 30
0.0
 10
378.875598
 20
535.668194
 30
0.0
 10
380.045861
 20
537.136862
 30
0.0
 10
380.997057
 20
538.182571
 30
0.0
 10
381.984146
 20
539.194468
 30
0.0
 10
383.005929
 20
540.171321
 30
0.0
 10
384.061160
 20
541.111941
 30
0.0
 10
385.148556
 20
542.015185
 30
0.0
 10
386.266794
 20
542.879953
 30
0.0
 10
387.414514
 20
543.705193
 30
0.0
 10
388.590318
 20
544.489901
 30
0.0
 10
389.792775
 20
545.233121
 30
0.0
 10
391.020424
 20
545.933949
 30
0.0
 10
392.271769
 20
546.591533
 30
0.0
 10
393.545287
 20
547.205073
 30
0.0
 10
394.839430
 20
547.773820
 30
0.0
 10
396.152623
 20
548.297085
 30
0.0
 10
397.483267
 20
548.774229
 30
0.0
 10
398.829744
 20
549.204673
 30
0.0
 10
400.190414
 20
549.587892
 30
0.0
 10
401.563622
 20
549.923421
 30
0.0
 10
402.947698
 20
550.210849
 30
0.0
 10
404.340957
 20
550.449830
 30
0.0
 10
405.741702
 20
550.640070
 30
0.0
 10
407.148231
 20
550.781340
 30
0.0
 10
408.558832
 20
550.873466
 30
0.0
 10
409.971787
 20
550.916337
 30
0.0
 10
411.385378
 20
550.909901
 30
0.0
 10
412.551319
 20
550.928313
 30
0.0
 10
413.717222
 20
550.907627
 30
0.0
 10
414.881777
 20
550.847865
 30
0.0
 10
416.043674
 20
550.749096
 30
0.0
 10
417.201606
 20
550.611429
 30
0.0
 10
418.354271
 20
550.435021
 30
0.0
 10
419.500374
 20
550.220068
 30
0.0
 10
420.638628
 20
549.966813
 30
0.0
 10
421.767751
 20
549.675541
 30
0.0
 10
422.886474
 20
549.346578
 30
0.0
 10
423.993541
 20
548.980296
 30
0.0
 10
425.087705
 20
548.577105
 30
0.0
 10
426.167738
 20
548.137459
 30
0.0
 10
427.232423
 20
547.661852
 30
0.0
 10
428.280566
 20
547.150819
 30
0.0
 10
429.310988
 20
546.604934
 30
0.0
 10
430.322529
 20
546.024812
 30
0.0
 10
431.314054
 20
545.411103
 30
0.0
 10
432.284446
 20
544.764499
 30
0.0
 10
433.232615
 20
544.085726
 30
0.0
 10
434.157496
 20
543.375547
 30
0.0
 10
435.058049
 20
542.634761
 30
0.0
 10
435.933260
 20
541.864201
 30
0.0
 10
436.782146
 20
541.064732
 30
0.0
 10
437.603753
 20
540.237253
 30
0.0
 10
438.498551
 20
539.221646
 30
0.0
 10
439.357995
 20
538.175952
 30
0.0
 10
440.181074
 20
537.101400
 30
0.0
 10
440.966818
 20
535.999253
 30
0.0
 10
441.714305
 20
534.870810
 30
0.0
 10
442.422654
 20
533.717397
 30
0.0
 10
443.091034
 20
532.540371
 30
0.0
 10
443.718656
 20
531.341117
 30
0.0
 10
444.304782
 20
530.121045
 30
0.0
 10
444.848726
 20
528.881590
 30
0.0
 10
445.349843
 20
527.624211
 30
0.0
 10
445.807548
 20
526.350387
 30
0.0
 10
446.221299
 20
525.061617
 30
0.0
 10
446.590612
 20
523.759415
 30
0.0
 10
446.915051
 20
522.445314
 30
0.0
 10
447.194236
 20
521.120861
 30
0.0
 10
447.427836
 20
519.787612
 30
0.0
 10
447.615578
 20
518.447137
 30
0.0
 10
447.757242
 20
517.101012
 30
0.0
 10
447.852658
 20
515.750821
 30
0.0
 10
447.901718
 20
514.398152
 30
0.0
 10
447.904360
 20
513.044596
 30
0.0
 10
447.860585
 20
511.691745
 30
0.0
 10
382.496990
 20
511.691745
 30
0.0
  0
LWPOLYLINE
  5
131
100
AcDbEntity
  8
Default
 62
7
100
AcDbPolyline
 90
90
 70
0
 10
382.496990
 20
518.228105
 30
0.0
 10
426.383975
 20
518.228105
 30
0.0
 10
426.349812
 20
519.730254
 30
0.0
 10
426.263337
 20
521.230302
 30
0.0
 10
426.124656
 20
522.726426
 30
0.0
 10
425.933936
 20
524.216812
 30
0.0
 10
425.691410
 20
525.699647
 30
0.0
 10
425.397371
 20
527.173134
 30
0.0
 10
425.052177
 20
528.635482
 30
0.0
 10
424.656247
 20
530.084917
 30
0.0
 10
424.210062
 20
531.519678
 30
0.0
 10
423.920641
 20
532.186216
 30
0.0
 10
423.608398
 20
532.842373
 30
0.0
 10
423.273706
 20
533.487367
 30
0.0
 10
422.916962
 20
534.120432
 30
0.0
 10
422.538591
 20
534.740813
 30
0.0
 10
422.139043
 20
535.347771
 30
0.0
 10
421.718794
 20
535.940585
 30
0.0
 10
421.278346
 20
536.518548
 30
0.0
 10
420.818220
 20
537.080972
 30
0.0
 10
420.338966
 20
537.627189
 30
0.0
 10
419.841153
 20
538.156546
 30
0.0
 10
419.325375
 20
538.668416
 30
0.0
 10
418.792246
 20
539.162188
 30
0.0
 10
418.242401
 20
539.637273
 30
0.0
 10
417.676493
 20
540.093108
 30
0.0
 10
417.095196
 20
540.529149
 30
0.0
 10
416.499203
 20
540.944876
 30
0.0
 10
415.973174
 20
541.299805
 30
0.0
 10
415.435586
 20
541.636969
 30
0.0
 10
414.887038
 20
541.955992
 30
0.0
 10
414.328141
 20
542.256518
 30
0.0
 10
413.759520
 20
542.538212
 30
0.0
 10
413.181810
 20
542.800760
 30
0.0
 10
412.595653
 20
543.043868
 30
0.0
 10
412.001705
 20
543.267266
 30
0.0
 10
411.400628
 20
543.470704
 30
0.0
 10
410.793092
 20
543.653956
 30
0.0
 10
410.179775
 20
543.816817
 30
0.0
 10
409.561362
 20
543.959105
 30
0.0
 10
408.938542
 20
544.080661
 30
0.0
 10
408.312009
 20
544.181350
 30
0.0
 10
407.682464
 20
544.261060
 30
0.0
 10
407.050607
 20
544.319701
 30
0.0
 10
406.417146
 20
544.357209
 30
0.0
 10
405.782784
 20
544.373542
 30
0.0
 10
405.060594
 20
544.354072
 30
0.0
 10
404.339501
 20
544.309784
 30
0.0
 10
403.620356
 20
544.240731
 30
0.0
 10
402.904010
 20
544.146995
 30
0.0
 10
402.191311
 20
544.028686
 30
0.0
 10
401.483101
 20
543.885945
 30
0.0
 10
400.780216
 20
543.718941
 30
0.0
 10
400.083489
 20
543.527870
 30
0.0
 10
399.393742
 20
543.312958
 30
0.0
 10
398.711792
 20
543.074461
 30
0.0
 10
398.038444
 20
542.812659
 30
0.0
 10
397.374495
 20
542.527862
 30
0.0
 10
396.720730
 20
542.220407
 30
0.0
 10
396.077922
 20
541.890657
 30
0.0
 10
395.446830
 20
541.539004
 30
0.0
 10
394.828202
 20
541.165861
 30
0.0
 10
394.222767
 20
540.771669
 30
0.0
 10
393.631242
 20
540.356897
 30
0.0
 10
393.054328
 20
539.922033
 30
0.0
 10
392.492704
 20
539.467593
 30
0.0
 10
391.947037
 20
538.994112
 30
0.0
 10
391.417970
 20
538.502151
 30
0.0
 10
390.906129
 20
537.992292
 30
0.0
 10
390.412120
 20
537.465137
 30
0.0
 10
389.711624
 20
536.667831
 30
0.0
 10
389.039286
 20
535.846641
 30
0.0
 10
388.395918
 20
535.002561
 30
0.0
 10
387.782300
 20
534.136614
 30
0.0
 10
387.199174
 20
533.249847
 30
0.0
 10
386.647246
 20
532.343333
 30
0.0
 10
386.127185
 20
531.418170
 30
0.0
 10
385.639618
 20
530.475477
 30
0.0
 10
385.185138
 20
529.516394
 30
0.0
 10
384.764292
 20
528.542084
 30
0.0
 10
384.377591
 20
527.553725
 30
0.0
 10
384.025504
 20
526.552513
 30
0.0
 10
383.708455
 20
525.539659
 30
0.0
 10
383.426830
 20
524.516390
 30
0.0
 10
383.180967
 20
523.483945
 30
0.0
 10
382.971166
 20
522.443573
 30
0.0
 10
382.797680
 20
521.396532
 30
0.0
 10
382.660718
 20
520.344090
 30
0.0
 10
382.560449
 20
519.287521
 30
0.0
 10
382.496990
 20
518.228105
 30
0.0
  0
ENDSEC
  0
SECTION
  2
OBJECTS
  0
DICTIONARY
  5
C
330
0
100
AcDbDictionary
  3
ACAD_GROUP
350
D
  3
ACAD_MLINESTYLE
350
17
  0
DICTIONARY
  5
D
330
C
100
AcDbDictionary
  0
DICTIONARY
  5
1A
330
C
100
AcDbDictionary
  0
DICTIONARY
  5
17
330
C
100
AcDbDictionary
  3
STANDARD
350
18
  0
DICTIONARY
  5
19
330
C
100
AcDbDictionary
  0
ENDSEC
  0
EOF
